<?xml version="1.0" encoding="UTF-8"?><svg xmlns="http://www.w3.org/2000/svg" viewBox="0 0 252 252"><defs><style>.k{fill:#eb2329;}.l{fill:#fff;}.m{fill:#1e4598;}</style></defs><g id="a"/><g id="b"><circle class="m" cx="126" cy="126" r="126"/></g><g id="c"><polygon id="d" class="l" points="57.76 143.47 62.9 159.43 78.58 153.49 69.3 167.46 83.73 176.02 67.02 177.47 69.32 194.09 57.76 181.93 46.21 194.09 48.51 177.47 31.81 176.02 46.23 167.46 36.95 153.49 52.63 159.43 57.76 143.47"/><polygon id="e" class="l" points="193.42 172.21 195.87 179.81 203.33 176.99 198.92 183.64 205.78 187.71 197.82 188.41 198.92 196.32 193.42 190.53 187.92 196.32 189.01 188.41 181.06 187.71 187.93 183.64 183.5 176.99 190.97 179.81 193.42 172.21"/><polygon id="f" class="l" points="149.04 101.94 151.48 109.54 158.94 106.71 154.53 113.36 161.4 117.44 153.44 118.13 154.53 126.04 149.04 120.25 143.53 126.04 144.62 118.13 136.67 117.44 143.54 113.36 139.12 106.71 146.59 109.54 149.04 101.94"/><polygon id="g" class="l" points="193.42 53.86 195.87 61.46 203.33 58.63 198.92 65.29 205.78 69.36 197.82 70.05 198.92 77.96 193.42 72.18 187.92 77.96 189.01 70.05 181.06 69.36 187.93 65.29 183.5 58.63 190.97 61.46 193.42 53.86"/><polygon id="h" class="l" points="232.87 90.11 235.32 97.71 242.78 94.88 238.37 101.53 245.24 105.61 237.27 106.3 238.37 114.21 232.87 108.42 227.37 114.21 228.46 106.3 220.51 105.61 227.38 101.53 222.96 94.88 230.43 97.71 232.87 90.11"/><polygon id="i" class="l" points="211.17 125.72 213.1 130.45 218.21 130.83 214.3 134.13 215.51 139.09 211.17 136.4 206.82 139.09 208.04 134.13 204.13 130.83 209.24 130.45 211.17 125.72"/></g><g id="j"><path class="l" d="M125.97,0c-6.05,0-12,.44-17.82,1.26l-42.23,38.02V15.22C39.39,29.64,18.63,53.32,7.95,81.92h11.36l-15.7,14.15c-1.79,7.36-2.95,14.96-3.39,22.75l35.71-32.15v39.36h30.03v-39.36l43.62,39.3h16.41v-14.78l-32.49-29.28h32.49V44.1h-32.54L125.97,14.8V0Z"/><polygon class="k" points="125.97 125.97 125.97 116.12 88.01 81.91 77.07 81.91 125.97 125.97"/><g><path class="k" d="M59.93,18.7c-6.41,3.96-12.44,8.47-18.02,13.48v19.46H24.29c-5.16,7.04-9.61,14.64-13.23,22.69h30.85v.04h.02v51.67h18.01v-51.67H125.97v-22.68H59.93V18.7Z"/><path class="k" d="M32.83,41.19c-.86,.94-1.7,1.91-2.53,2.88h5.73l-3.2-2.88Z"/><path class="k" d="M24.81,81.89L2.26,102.19c-.71,3.72-1.27,7.5-1.64,11.34l35.14-31.64h-10.95Z"/><path class="k" d="M66.09,44.06h10.95L125.97,0c-3.89,0-7.74,.19-11.54,.53l-48.34,43.53Z"/></g></g></svg>