<?xml version="1.0" encoding="UTF-8"?><svg xmlns="http://www.w3.org/2000/svg" viewBox="0 0 252 252"><defs><style>.d{fill:#fff;}.e{fill:#ed1c24;}</style></defs><g id="a"/><g id="b"><circle class="d" cx="126" cy="126" r="126"/></g><g id="c"><path class="e" d="M252,126c0-42.37-20.91-79.85-52.98-102.7V228.69c32.07-22.84,52.98-60.33,52.98-102.69Z"/><path class="e" d="M0,126C0,168.37,20.91,205.85,52.98,228.69V23.31C20.91,46.15,0,83.63,0,126Z"/><path class="e" d="M68.52,123.45l-6.35,3,30.66,25.06c1.22,.95,1.82,2.65,1.39,4.2l-2.68,8.86c10.56-1.22,20.02-3.07,30.58-4.2,.93-.1,2.5,1.45,2.49,2.54l-1.4,32.47h5.13l-.8-32.4c0-1.09,1.41-2.71,2.34-2.61,10.56,1.14,20.02,2.98,30.58,4.2l-2.69-8.86c-.43-1.54,.18-3.25,1.4-4.2l30.66-25.06-6.34-3c-2.8-1-2.02-2.58-1.01-6.39l4.68-17.12-17.82,3.77c-1.74,.26-2.9-.84-3.17-1.9l-2.28-8.06-14.09,15.87c-2.01,2.54-6.06,2.54-4.8-3.34l6.02-32.14-8.07,4.21c-2.27,1.27-4.53,1.48-5.8-.8l-11.15-20.92-11.15,20.92c-1.26,2.28-3.53,2.07-5.8,.8l-8.07-4.21,6.01,32.14c1.26,5.87-2.79,5.87-4.8,3.34l-14.09-15.87-2.28,8.06c-.26,1.06-1.42,2.17-3.16,1.9l-17.81-3.77,4.68,17.12c1,3.81,1.78,5.39-1.01,6.39Z"/></g></svg>