<?xml version="1.0" encoding="UTF-8"?><svg xmlns="http://www.w3.org/2000/svg" viewBox="0 0 252 252"><defs><style>.f{fill:#eb2329;}.g{fill:#fff;}.h{fill:#1e4598;}</style></defs><g id="a"/><g id="b"><circle class="g" cx="126" cy="126" r="126"/></g><g id="c"><g><path class="f" d="M193.17,232.61H58.83c19.37,12.23,42.3,19.33,66.88,19.38h.58c24.59-.06,47.51-7.16,66.88-19.38Z"/><path class="f" d="M0,126c0,3.26,.12,6.49,.37,9.69H251.63c.24-3.2,.37-6.43,.37-9.69s-.12-6.49-.37-9.69H.37c-.24,3.2-.37,6.43-.37,9.69Z"/><path class="f" d="M19.81,193.84c4.46,6.96,9.58,13.45,15.27,19.38H216.92c5.7-5.94,10.82-12.43,15.27-19.38H19.81Z"/><path class="f" d="M35.08,38.77c-5.7,5.94-10.82,12.43-15.27,19.38H232.19c-4.46-6.96-9.58-13.45-15.27-19.38H35.08Z"/><path class="f" d="M3.38,155.08c1.58,6.68,3.69,13.16,6.28,19.38H242.34c2.6-6.22,4.71-12.7,6.28-19.38H3.38Z"/><path class="f" d="M125.72,0c-24.59,.05-47.52,7.15-66.89,19.38H193.17C173.8,7.16,150.87,.06,126.28,0h-.57Z"/><path class="f" d="M9.66,77.54c-2.6,6.22-4.71,12.7-6.28,19.38H248.62c-1.58-6.68-3.69-13.16-6.28-19.38H9.66Z"/></g></g><g id="d"><path class="h" d="M126,0h-.28C56.26,.16,0,56.51,0,126c0,3.26,.12,6.49,.37,9.69H126V0Z"/></g><g id="e"><g><polygon class="g" points="106.8 14.33 105.06 19.7 109.62 16.39 114.18 19.7 112.44 14.33 117 11.02 111.37 11.02 109.62 5.66 107.88 11.02 102.24 11.02 106.8 14.33"/><polygon class="g" points="62 19.27 60.25 24.63 54.62 24.63 59.18 27.94 57.44 33.3 62 30 66.55 33.3 64.82 27.94 69.38 24.63 63.74 24.63 62 19.27"/><polygon class="g" points="93.75 19.27 92 24.63 86.37 24.63 90.93 27.94 89.19 33.3 93.75 30 98.31 33.3 96.57 27.94 101.13 24.63 95.49 24.63 93.75 19.27"/><polygon class="g" points="46.12 32.88 44.38 38.24 38.74 38.24 43.3 41.55 41.56 46.91 46.12 43.6 50.69 46.91 48.94 41.55 53.51 38.24 47.87 38.24 46.12 32.88"/><polygon class="g" points="77.87 32.88 76.13 38.24 70.49 38.24 75.05 41.55 73.31 46.91 77.87 43.6 82.44 46.91 80.69 41.55 85.25 38.24 79.62 38.24 77.87 32.88"/><polygon class="g" points="109.62 32.88 107.88 38.24 102.24 38.24 106.8 41.55 105.06 46.91 109.62 43.6 114.18 46.91 112.44 41.55 117 38.24 111.37 38.24 109.62 32.88"/><polygon class="g" points="62 46.48 60.25 51.85 54.62 51.85 59.18 55.16 57.44 60.52 62 57.21 66.55 60.52 64.82 55.16 69.38 51.85 63.74 51.85 62 46.48"/><polygon class="g" points="93.75 46.48 92 51.85 86.37 51.85 90.93 55.16 89.19 60.52 93.75 57.21 98.31 60.52 96.57 55.16 101.13 51.85 95.49 51.85 93.75 46.48"/><polygon class="g" points="46.12 60.09 44.38 65.45 38.74 65.45 43.3 68.76 41.56 74.13 46.12 70.82 50.69 74.13 48.94 68.76 53.51 65.45 47.87 65.45 46.12 60.09"/><polygon class="g" points="77.87 60.09 76.13 65.45 70.49 65.45 75.05 68.76 73.31 74.13 77.87 70.82 82.44 74.13 80.69 68.76 85.25 65.45 79.62 65.45 77.87 60.09"/><polygon class="g" points="109.62 60.09 107.88 65.45 102.24 65.45 106.8 68.76 105.06 74.13 109.62 70.82 114.18 74.13 112.44 68.76 117 65.45 111.37 65.45 109.62 60.09"/><path class="g" d="M30.25,73.7l-1.75,5.36h-5.64l4.57,3.31-1.74,5.36,4.56-3.31,4.56,3.31-1.74-5.36,4.56-3.31h-5.64l-1.74-5.36Zm0,7.76h0Z"/><path class="g" d="M62,73.7l-1.74,5.36h-5.64l4.57,3.31-1.74,5.36,4.56-3.31,4.56,3.31-1.74-5.36,4.56-3.31h-5.64l-1.74-5.36Zm0,7.76h0Z"/><path class="g" d="M93.75,73.7l-1.74,5.36h-5.64l4.56,3.31-1.74,5.36,4.56-3.31,4.56,3.31-1.74-5.36,4.56-3.31h-5.64l-1.74-5.36Zm0,7.76h0Z"/><path class="g" d="M14.37,87.31l-1.74,5.36H6.99l4.56,3.31-1.74,5.36,4.56-3.31,4.57,3.31-1.74-5.36,4.56-3.31h-5.64l-1.74-5.36Zm0,7.76h0Z"/><path class="g" d="M46.12,87.31l-1.74,5.36h-5.64l4.56,3.31-1.74,5.36,4.57-3.31,4.57,3.31-1.74-5.36,4.56-3.31h-5.64l-1.74-5.36Zm0,7.76h0Z"/><path class="g" d="M77.87,87.31l-1.74,5.36h-5.64l4.56,3.31-1.74,5.36,4.57-3.31,4.56,3.31-1.74-5.36,4.56-3.31h-5.64l-1.74-5.36Zm0,7.76h0Z"/><path class="g" d="M109.62,87.31l-1.74,5.36h-5.64l4.57,3.31-1.74,5.36,4.57-3.31,4.56,3.31-1.74-5.36,4.56-3.31h-5.64l-1.74-5.36Zm0,7.76h0Z"/><polygon class="g" points="31.99 106.28 30.25 100.91 28.5 106.28 22.87 106.28 27.43 109.59 25.69 114.95 30.25 111.64 34.81 114.95 33.07 109.59 37.63 106.28 31.99 106.28"/><polygon class="g" points="63.74 106.28 62 100.91 60.25 106.28 54.62 106.28 59.18 109.59 57.44 114.95 62 111.64 66.55 114.95 64.82 109.59 69.38 106.28 63.74 106.28"/><polygon class="g" points="95.49 106.28 93.75 100.91 92 106.28 86.37 106.28 90.93 109.59 89.19 114.95 93.75 111.64 98.31 114.95 96.57 109.59 101.13 106.28 95.49 106.28"/><polygon class="g" points="16.12 119.88 14.37 114.52 12.63 119.88 6.99 119.88 11.55 123.19 9.81 128.56 14.37 125.25 18.94 128.56 17.19 123.19 21.75 119.88 16.12 119.88"/><polygon class="g" points="47.87 119.88 46.12 114.52 44.38 119.88 38.74 119.88 43.3 123.19 41.56 128.56 46.12 125.25 50.69 128.56 48.94 123.19 53.51 119.88 47.87 119.88"/><polygon class="g" points="79.62 119.88 77.87 114.52 76.13 119.88 70.49 119.88 75.05 123.19 73.31 128.56 77.87 125.25 82.44 128.56 80.69 123.19 85.25 119.88 79.62 119.88"/><polygon class="g" points="111.37 119.88 109.62 114.52 107.88 119.88 102.24 119.88 106.8 123.19 105.06 128.56 109.62 125.25 114.18 128.56 112.44 123.19 117 119.88 111.37 119.88"/></g><path class="g" d="M18.94,74.13l-1.74-5.36,4.56-3.31h-5.64l-.23-.72c-1.44,2.59-2.8,5.24-4.06,7.93l2.55-1.85,4.57,3.31Z"/><path class="g" d="M1.32,109.59l4.56-3.31H1.54c-.36,2.29-.66,4.59-.9,6.92l2.42,1.75-1.74-5.36Z"/><path class="g" d="M25.69,60.52l4.56-3.31,4.56,3.31-1.74-5.36,4.56-3.31h-5.64l-1.74-5.36-1.75,5.36h-4.37c-.15,.2-.29,.4-.44,.6l3.74,2.71-1.74,5.36Z"/><path class="g" d="M73.31,19.7l4.57-3.31,4.56,3.31-1.74-5.36,4.56-3.31h-5.64l-.63-1.95c-.86,.35-1.71,.7-2.56,1.06l-.29,.89h-1.74c-.8,.36-1.59,.73-2.38,1.1l3.04,2.21-1.74,5.36Z"/></g></svg>