<?xml version="1.0" encoding="UTF-8"?><svg xmlns="http://www.w3.org/2000/svg" viewBox="0 0 252 252"><defs><style>.d{fill:#ffd200;}.e{fill:#1f429b;}</style></defs><g id="a"/><g id="b"><circle class="e" cx="126" cy="126" r="126"/></g><g id="c"><path class="d" d="M126,29.35l-3.15,9.68h-10.22l8.26,5.96-3.15,9.68,8.27-5.98,8.27,5.98-3.17-9.68,8.25-5.96h-10.21l-3.15-9.68Zm3.15,177.66l-3.15-9.68-3.15,9.68h-10.22l8.26,5.98-3.15,9.66,8.27-5.98,8.27,5.98-3.17-9.66,8.25-5.98h-10.21ZM41.65,132.68l8.27,5.98-3.17-9.67,8.27-5.98h-10.21l-3.15-9.67-3.16,9.67h-10.22l8.26,5.98-3.15,9.67,8.27-5.98Zm45.33,63.07l-3.17-9.68-3.15,9.68h-10.21l8.27,5.97-3.17,9.68,8.26-5.98,8.27,5.98-3.15-9.68,8.25-5.97h-10.2ZM52.94,71.35l-3.15,9.67h-10.21l8.27,5.97-3.15,9.68,8.25-5.99,8.27,5.99-3.15-9.68,8.27-5.97h-10.22l-3.16-9.67Zm137.85,25.32l8.25-5.99,8.27,5.99-3.15-9.68,8.25-5.97h-10.21l-3.16-9.67-3.15,9.67h-10.21l8.26,5.97-3.15,9.68ZM56.1,165.01l-3.16-9.67-3.15,9.67h-10.21l8.27,5.98-3.15,9.67,8.25-5.98,8.27,5.98-3.15-9.67,8.27-5.98h-10.22ZM168.17,40.6l-3.16,9.67h-10.2l8.27,5.98-3.16,9.68,8.25-5.98,8.27,5.98-3.17-9.68,8.27-5.98h-10.22l-3.15-9.67Zm55.56,82.41h-10.22l-3.15-9.67-3.14,9.67h-10.22l8.25,5.98-3.15,9.67,8.27-5.98,8.27,5.98-3.15-9.67,8.27-5.98ZM83.81,40.6l-3.15,9.67h-10.21l8.27,5.98-3.17,9.68,8.26-5.98,8.27,5.98-3.15-9.68,8.25-5.98h-10.2l-3.17-9.67Zm118.39,124.41l-3.16-9.67-3.15,9.67h-10.21l8.26,5.98-3.15,9.67,8.25-5.98,8.27,5.98-3.15-9.67,8.25-5.98h-10.21Zm-30.88,30.74l-3.15-9.68-3.16,9.68h-10.2l8.27,5.97-3.16,9.68,8.25-5.98,8.27,5.98-3.17-9.68,8.27-5.97h-10.22Z"/></g></svg>