<?xml version="1.0" encoding="utf-8"?>
<!-- Generator: Adobe Illustrator 26.2.1, SVG Export Plug-In . SVG Version: 6.00 Build 0)  -->
<svg version="1.1" xmlns="http://www.w3.org/2000/svg" xmlns:xlink="http://www.w3.org/1999/xlink" x="0px" y="0px"
	 viewBox="0 0 288 288" style="enable-background:new 0 0 288 288;" xml:space="preserve">
<style type="text/css">
	.st0{display:none;}
	.st1{fill:url(#SVGID_1_);}
	.st2{fill:#17479E;}
	.st3{fill:#15489E;}
	.st4{fill:#12499F;}
	.st5{fill:#104AA0;}
	.st6{fill:#0D4BA0;}
	.st7{fill:#094CA1;}
	.st8{fill:#054DA2;}
	.st9{fill:#014EA2;}
	.st10{fill:#004FA3;}
	.st11{fill:#0050A3;}
	.st12{fill:#0051A4;}
	.st13{fill:#0052A5;}
	.st14{fill:#0053A5;}
	.st15{fill:#0054A6;}
	.st16{fill:#0055A7;}
	.st17{fill:#0056A7;}
	.st18{fill:#0057A8;}
	.st19{fill:#0058A9;}
	.st20{fill:#0059A9;}
	.st21{fill:#005AAA;}
	.st22{fill:#005BAB;}
	.st23{fill:#005CAB;}
	.st24{fill:#005DAC;}
	.st25{fill:#005EAC;}
	.st26{fill:#005EAD;}
	.st27{fill:#005FAE;}
	.st28{fill:#0060AE;}
	.st29{fill:#0061AF;}
	.st30{fill:#0062B0;}
	.st31{fill:#0063B0;}
	.st32{fill:#0064B1;}
	.st33{fill:#0065B2;}
	.st34{fill:#0066B3;}
	.st35{fill:url(#SVGID_00000057837418183828225540000015848926848681756555_);}
	.st36{fill:url(#SVGID_00000134236096145749092640000017218048157874878086_);}
	.st37{fill:url(#SVGID_00000156545368193778587690000013635156640891509135_);}
	.st38{fill:#670000;}
	.st39{fill:#6D0000;}
	.st40{fill:#730000;}
	.st41{fill:#790000;}
	.st42{fill:#7F0000;}
	.st43{fill:#840001;}
	.st44{fill:#8A0204;}
	.st45{fill:#900507;}
	.st46{fill:#96080B;}
	.st47{fill:#9C0A0E;}
	.st48{fill:#A20C11;}
	.st49{fill:#A80F13;}
	.st50{fill:#AE1016;}
	.st51{fill:#B51218;}
	.st52{fill:#BB141A;}
	.st53{fill:#C1151B;}
	.st54{fill:#C8161D;}
	.st55{fill:#CE181E;}
	.st56{fill:#CF181F;}
	.st57{fill:#D1181F;}
	.st58{fill:#D31820;}
	.st59{fill:#D41920;}
	.st60{fill:#D61920;}
	.st61{fill:#D81921;}
	.st62{fill:#DA1A21;}
	.st63{fill:#DB1A21;}
	.st64{fill:#DD1A21;}
	.st65{fill:#DF1A22;}
	.st66{fill:#E01B22;}
	.st67{fill:#E21B22;}
	.st68{fill:#E41B23;}
	.st69{fill:#E61B23;}
	.st70{fill:#E81C23;}
	.st71{fill:#EA1C24;}
	.st72{fill:#ED1C24;}
</style>
<g id="Guides" class="st0">
</g>
<g id="Circle">
	<g>
		<linearGradient id="SVGID_1_" gradientUnits="userSpaceOnUse" x1="1.8" y1="144" x2="286.2" y2="144">
			<stop  offset="2.620457e-04" style="stop-color:#0054A6"/>
			<stop  offset="1" style="stop-color:#0066B3"/>
		</linearGradient>
		<circle class="st1" cx="144" cy="144" r="142.2"/>
	</g>
</g>
<g id="Center">
	<g>
		<g>
			<circle class="st2" cx="144" cy="144" r="130.5"/>
		</g>
		<g>
			<circle class="st3" cx="143.3" cy="143.2" r="127.1"/>
		</g>
		<g>
			<circle class="st4" cx="142.7" cy="142.3" r="123.7"/>
		</g>
		<g>
			<circle class="st5" cx="142" cy="141.5" r="120.3"/>
		</g>
		<g>
			<circle class="st6" cx="141.3" cy="140.7" r="116.9"/>
		</g>
		<g>
			<circle class="st7" cx="140.6" cy="139.8" r="113.5"/>
		</g>
		<g>
			<circle class="st8" cx="140" cy="139" r="110"/>
		</g>
		<g>
			<circle class="st9" cx="139.3" cy="138.2" r="106.6"/>
		</g>
		<g>
			<circle class="st10" cx="138.6" cy="137.3" r="103.2"/>
		</g>
		<g>
			<circle class="st11" cx="137.9" cy="136.5" r="99.8"/>
		</g>
		<g>
			<circle class="st12" cx="137.3" cy="135.7" r="96.4"/>
		</g>
		<g>
			<circle class="st13" cx="136.6" cy="134.8" r="93"/>
		</g>
		<g>
			<circle class="st14" cx="135.9" cy="134" r="89.6"/>
		</g>
		<g>
			<circle class="st15" cx="135.3" cy="133.2" r="86.2"/>
		</g>
		<g>
			<circle class="st16" cx="134.6" cy="132.3" r="82.8"/>
		</g>
		<g>
			<circle class="st17" cx="133.9" cy="131.5" r="79.4"/>
		</g>
		<g>
			<circle class="st18" cx="133.2" cy="130.7" r="76"/>
		</g>
		<g>
			<circle class="st19" cx="132.6" cy="129.8" r="72.5"/>
		</g>
		<g>
			<circle class="st20" cx="131.9" cy="129" r="69.1"/>
		</g>
		<g>
			<circle class="st21" cx="131.2" cy="128.2" r="65.7"/>
		</g>
		<g>
			<circle class="st22" cx="130.5" cy="127.3" r="62.3"/>
		</g>
		<g>
			<circle class="st23" cx="129.9" cy="126.5" r="58.9"/>
		</g>
		<g>
			<circle class="st24" cx="129.2" cy="125.7" r="55.5"/>
		</g>
		<g>
			<circle class="st25" cx="128.5" cy="124.8" r="52.1"/>
		</g>
		<g>
			<circle class="st26" cx="127.8" cy="124" r="48.7"/>
		</g>
		<g>
			<circle class="st27" cx="127.2" cy="123.2" r="45.3"/>
		</g>
		<g>
			<circle class="st28" cx="126.5" cy="122.3" r="41.9"/>
		</g>
		<g>
			<circle class="st29" cx="125.8" cy="121.5" r="38.5"/>
		</g>
		<g>
			<circle class="st30" cx="125.2" cy="120.7" r="35"/>
		</g>
		<g>
			<circle class="st31" cx="124.5" cy="119.8" r="31.6"/>
		</g>
		<g>
			<circle class="st32" cx="123.8" cy="119" r="28.2"/>
		</g>
		<g>
			<circle class="st33" cx="123.1" cy="118.2" r="24.8"/>
		</g>
		<g>
			<circle class="st33" cx="122.5" cy="117.3" r="21.4"/>
		</g>
		<g>
			<circle class="st34" cx="121.8" cy="116.5" r="18"/>
		</g>
	</g>
</g>
<g id="Flag">
</g>
<g id="Leaf_Multi">
	<g>
		
			<linearGradient id="SVGID_00000008839481385047536610000011381329225714764416_" gradientUnits="userSpaceOnUse" x1="235.3501" y1="237.1956" x2="54.479" y2="52.6705">
			<stop  offset="2.620457e-04" style="stop-color:#0054A6"/>
			<stop  offset="1" style="stop-color:#0066B3"/>
		</linearGradient>
		<circle style="fill:url(#SVGID_00000008839481385047536610000011381329225714764416_);" cx="144" cy="144" r="130.5"/>
	</g>
	
		<linearGradient id="SVGID_00000052064118993443450630000014722572061957293474_" gradientUnits="userSpaceOnUse" x1="200.961" y1="31.8894" x2="76.3374" y2="277.1733">
		<stop  offset="1.140215e-04" style="stop-color:#44C8F5"/>
		<stop  offset="1" style="stop-color:#0066B3"/>
	</linearGradient>
	<circle style="fill:url(#SVGID_00000052064118993443450630000014722572061957293474_);" cx="144" cy="144" r="130.5"/>
	
		<linearGradient id="SVGID_00000174584789575743792320000011388187770175553454_" gradientUnits="userSpaceOnUse" x1="182.57" y1="38.0605" x2="62.2534" y2="247.8719">
		<stop  offset="0" style="stop-color:#005BAA"/>
		<stop  offset="0.9993" style="stop-color:#2A2A85"/>
	</linearGradient>
	<path style="fill:url(#SVGID_00000174584789575743792320000011388187770175553454_);" d="M98.3,223.4c-6.4-29.1,1.5-60.2,45.7-79.4
		c44.2-19.1,52.1-50.3,45.7-79.4c-9.9-38.8-48.3-55-79.5-46.7C40.6,36.6-0.7,108.2,18,177.8c18.6,69.6,90.2,110.9,159.8,92.3
		C146.6,278.4,108.2,262.1,98.3,223.4z M147.6,96.3h-27.2c-3.8,0-6.9-3.1-6.9-6.9c0-3.4,2.5-6.3,5.8-6.8c1.9-4.8,6.5-8.2,12-8.2
		c5,0,9.4,2.9,11.5,7.1c0.4-0.1,0.8-0.2,1.2-0.2c2.1,0,3.8,1.5,4.3,3.4c2.9,0.4,5.1,2.8,5.1,5.7C153.4,93.7,150.8,96.3,147.6,96.3z
		 M81,68.9C81,62.3,86.4,57,93.1,57c0,0,0,0,0,0c1.9-7.5,8.7-13.1,16.9-13.1c6.1,0,11.5,3.1,14.7,7.9c1.5-0.5,3.2-0.7,4.8-0.7
		c8.6,0,15.7,6.4,16.7,14.7l0,0v0c4.1,0.1,7.5,3.4,7.5,7.5c0,3.4-2.3,6.3-5.5,7.2c-1.2-0.9-2.6-1.5-4.2-1.5c0,0,0,0,0,0
		c-2.7-4.1-7.4-6.9-12.7-6.9c-6,0-11.3,3.5-13.7,8.7H93.1C86.4,80.8,81,75.5,81,68.9z"/>
</g>
<g id="Heart">
	<g>
		<path class="st38" d="M163,252c11.4-25.2,72.7-31.8,72.7-79.7c0-27.5-24.6-36.9-35.3-36.9c-16.5,0-27.7,4.8-36.9,21.4
			c-0.4,0.7-2,0.7-2.4,0c-9.2-16.5-20.4-21.4-36.9-21.4c-10.6,0-35.3,9.4-35.3,36.9c0,47.9,61.3,54.5,72.7,79.7
			C161.9,252.5,162.7,252.5,163,252z"/>
		<path class="st39" d="M235.1,172.3c0-27.3-24.3-36.5-34.9-36.5c-16.4,0-27.2,4.9-36.6,21.3c-0.4,0.8-2.2,0.7-2.7-0.1
			c-9.4-16.3-20.2-21.2-36.6-21.2c-10.6,0-34.9,9.3-34.9,36.5c0,47.5,59.8,54.4,72.1,79.2c0.3,0.6,1.2,0.6,1.5,0
			C174.9,226.8,235.1,219.8,235.1,172.3z"/>
		<path class="st40" d="M234.6,172.4c0-27-24-36.1-34.5-36.1c-16.2,0-26.8,4.9-36.4,21.2c-0.5,0.8-2.5,0.8-3-0.1
			c-9.5-16-20-21-36.2-21c-10.5,0-34.6,9.1-34.6,36.1c0,47.1,58.6,54.3,71.5,78.7c0.4,0.7,1.3,0.7,1.6,0
			C175.3,226.8,234.6,219.4,234.6,172.4z"/>
		<path class="st41" d="M234.1,172.4c0-26.8-23.7-35.7-34.1-35.7c-16.1,0-26.3,5-36.2,21.1c-0.5,0.8-2.7,0.8-3.3-0.2
			c-9.6-15.8-19.9-20.7-35.9-20.7c-10.4,0-34.2,8.9-34.2,35.7c0,46.6,57.4,54.2,70.9,78.2c0.5,0.8,1.4,0.8,1.8,0
			C175.6,226.7,234.1,219.1,234.1,172.4z"/>
		<path class="st42" d="M233.5,172.4c0-26.6-23.4-35.3-33.6-35.3c-15.9,0-25.9,5-35.9,20.9c-0.5,0.8-2.9,0.9-3.6-0.2
			c-9.6-15.6-19.7-20.5-35.6-20.5c-10.3,0-33.9,8.7-33.9,35.3c0,46.2,56.4,54,70.3,77.7c0.5,0.9,1.6,0.8,2,0.1
			C175.9,226.6,233.5,218.7,233.5,172.4z"/>
		<path class="st43" d="M233,172.4c0-26.3-23.1-34.9-33.2-34.9c-15.8,0-25.5,5-35.7,20.8c-0.6,0.9-3.1,0.9-3.9-0.2
			c-9.7-15.4-19.5-20.3-35.3-20.3c-10.2,0-33.5,8.5-33.5,34.9c0,45.8,55.4,53.7,69.7,77.2c0.6,1,1.7,0.9,2.1,0.1
			C176.1,226.5,233,218.3,233,172.4z"/>
		<path class="st44" d="M232.4,172.5c0-26.1-22.7-34.5-32.8-34.5c-15.7,0-25.1,5.1-35.5,20.7c-0.6,0.9-3.4,0.9-4.1-0.3
			c-9.7-15.2-19.3-20.1-35-20.1c-10.1,0-33.2,8.4-33.2,34.4c0,45.4,54.4,53.5,69.1,76.7c0.7,1.1,1.8,1,2.3,0.1
			C176.3,226.4,232.4,217.9,232.4,172.5z"/>
		<path class="st45" d="M231.9,172.5c0-25.9-22.4-34.1-32.4-34.1c-15.5,0-24.7,5.1-35.2,20.6c-0.6,0.9-3.6,1-4.4-0.3
			c-9.7-15-19.2-19.9-34.7-19.9c-10,0-32.8,8.2-32.8,34c0,45,53.5,53.2,68.5,76.2c0.8,1.2,1.9,1.1,2.5,0.1
			C176.5,226.3,231.9,217.5,231.9,172.5z"/>
		<path class="st46" d="M231.4,172.5c0-25.6-22.1-33.7-32-33.7c-15.4,0-24.3,5.1-35,20.5c-0.7,1-3.8,1-4.7-0.4
			c-9.8-14.8-19-19.7-34.4-19.7c-9.9,0-32.5,8-32.5,33.6c0,44.6,52.6,52.9,67.9,75.7c0.8,1.2,2,1.1,2.7,0.1
			C176.7,226.1,231.4,217.1,231.4,172.5z"/>
		<path class="st47" d="M230.8,172.5c0-25.4-21.8-33.3-31.6-33.3c-15.2,0-23.9,5.1-34.8,20.4c-0.7,1-4,1.1-5-0.4
			c-9.8-14.6-18.8-19.5-34-19.5c-9.8,0-32.1,7.8-32.1,33.2c0,44.2,51.7,52.6,67.3,75.2c0.9,1.3,2.1,1.2,2.8,0.1
			C176.9,226,230.8,216.7,230.8,172.5z"/>
		<path class="st48" d="M230.3,172.6c0-25.1-21.5-32.9-31.2-32.9c-15.1,0-23.6,5.1-34.5,20.3c-0.7,1-4.2,1.1-5.3-0.5
			c-9.8-14.5-18.6-19.3-33.7-19.3c-9.7,0-31.8,7.6-31.8,32.8c0,43.8,50.9,52.3,66.7,74.7c1,1.4,2.3,1.3,3,0.1
			C177,225.8,230.3,216.4,230.3,172.6z"/>
		<path class="st49" d="M229.8,172.6c0-24.9-21.2-32.5-30.8-32.5c-15,0-23.2,5.1-34.3,20.2c-0.8,1.1-4.5,1.1-5.6-0.5
			c-9.8-14.3-18.5-19.1-33.4-19.1c-9.6,0-31.5,7.4-31.5,32.4c0,43.4,50,51.9,66.1,74.2c1.1,1.5,2.4,1.4,3.2,0.1
			C177.2,225.6,229.8,216,229.8,172.6z"/>
		<path class="st50" d="M229.2,172.6c0-24.7-20.8-32.1-30.4-32.1c-14.8,0-22.8,5.1-34,20.1c-0.8,1.1-4.7,1.2-5.9-0.6
			c-9.8-14.1-18.3-18.9-33.1-18.9c-9.6,0-31.1,7.3-31.1,31.9c0,43,49.2,51.6,65.5,73.7c1.2,1.6,2.5,1.4,3.3,0.1
			C177.3,225.5,229.2,215.6,229.2,172.6z"/>
		<path class="st51" d="M228.7,172.6c0-24.4-20.5-31.7-30-31.7c-14.7,0-22.5,5.1-33.8,20c-0.9,1.1-4.9,1.2-6.2-0.6
			c-9.8-13.9-18.1-18.7-32.8-18.7c-9.5,0-30.8,7.1-30.8,31.5c0,42.6,48.3,51.3,64.9,73.2c1.3,1.7,2.6,1.5,3.5,0.1
			C177.4,225.3,228.7,215.2,228.7,172.6z"/>
		<path class="st52" d="M228.2,172.6c0-24.2-20.2-31.3-29.6-31.3c-14.5,0-22.1,5.1-33.6,19.8c-0.9,1.1-5.1,1.2-6.5-0.6
			c-9.8-13.8-18-18.5-32.5-18.5c-9.4,0-30.4,6.9-30.4,31.1c0,42.2,47.5,50.9,64.3,72.7c1.3,1.7,2.7,1.6,3.7,0.2
			C177.6,225.1,228.2,214.8,228.2,172.6z"/>
		<path class="st53" d="M227.6,172.7c0-24-19.9-30.8-29.2-30.8c-14.4,0-21.7,5.1-33.3,19.7c-0.9,1.2-5.3,1.3-6.8-0.7
			c-9.8-13.6-17.8-18.3-32.2-18.3c-9.3,0-30.1,6.7-30.1,30.7c0,41.7,46.6,50.5,63.7,72.2c1.4,1.8,2.8,1.7,3.8,0.2
			C177.7,224.9,227.6,214.4,227.6,172.7z"/>
		<path class="st54" d="M227.1,172.7c0-23.7-19.6-30.4-28.8-30.4c-14.2,0-21.4,5.1-33.1,19.6c-1,1.2-5.6,1.3-7.1-0.7
			c-9.8-13.5-17.6-18.1-31.8-18.1c-9.2,0-29.7,6.5-29.7,30.3c0,41.3,45.8,50.2,63.1,71.7c1.5,1.9,2.9,1.7,4,0.2
			C177.8,224.7,227.1,214,227.1,172.7z"/>
		<path class="st55" d="M163.7,244.8c14.2-20.2,62.8-31.1,62.8-72c0-23.5-19.3-30-28.4-30c-14.1,0-21,5-32.9,19.5
			c-1,1.2-5.8,1.3-7.3-0.8c-9.8-13.3-17.4-17.9-31.5-17.9c-9.1,0-29.4,6.4-29.4,29.9c0,40.9,45,49.8,62.5,71.2
			C161.1,246.5,162.6,246.4,163.7,244.8z"/>
		<path class="st56" d="M225.8,172.9c0-22.9-18.6-29.4-27.7-29.4c-14,0-20.4,5.1-32.5,18.9c-1.2,1.3-6.3,1.5-8.1-0.8
			c-9.9-12.7-17.1-17.3-31.1-17.3c-9,0-28.6,6.4-28.6,29.4c0,39.8,43.3,49,61.1,69.4c1.7,2,3.9,1.9,5.2,0.2
			C179.5,224.2,225.8,212.7,225.8,172.9z"/>
		<path class="st57" d="M225,173c0-22.2-18-28.7-27-28.7c-14,0-20,5.1-32.2,18.3c-1.4,1.5-6.9,1.6-8.9-0.8
			c-9.9-12.1-16.8-16.7-30.7-16.7c-8.8,0-27.8,6.4-27.8,28.9c0,38.7,41.6,48.2,59.8,67.7c1.8,1.9,4.7,1.9,6.3,0.2
			C180.9,223.7,225,211.7,225,173z"/>
		<path class="st58" d="M224.3,173.1c0-21.5-17.3-28-26.3-28c-13.9,0-19.6,5.1-31.9,17.7c-1.6,1.6-7.4,1.7-9.6-0.9
			c-9.9-11.6-16.6-16.1-30.3-16.1c-8.7,0-27,6.4-27,28.4c0,37.5,40,47.4,58.5,66c1.9,1.9,5.5,2,7.3,0.2
			C182.2,223.2,224.3,210.7,224.3,173.1z"/>
		<path class="st59" d="M223.6,173.3c0-20.9-16.7-27.3-25.6-27.3c-13.8,0-19.2,5-31.6,17.1c-1.8,1.7-7.9,1.9-10.4-0.9
			c-9.9-11.1-16.3-15.5-29.9-15.5c-8.5,0-26.2,6.4-26.2,27.9c0,36.4,38.5,46.6,57.2,64.2c2,1.9,6.3,2.1,8.4,0.2
			C183.3,222.6,223.6,209.7,223.6,173.3z"/>
		<path class="st60" d="M222.8,173.4c0-20.2-16-26.6-24.9-26.6c-13.8,0-18.9,4.9-31.2,16.4c-2,1.8-8.4,2-11.2-0.9
			c-9.8-10.6-16-14.9-29.5-14.9c-8.4,0-25.4,6.5-25.4,27.4c0,35.2,36.9,45.7,55.9,62.5c2.1,1.9,7.1,2.1,9.5,0.2
			C184.4,221.9,222.8,208.7,222.8,173.4z"/>
		<path class="st61" d="M222.1,173.5c0-19.6-15.4-26-24.2-26c-13.7,0-18.6,4.7-30.9,15.8c-2.2,2-9,2.1-11.9-1
			c-9.7-10.1-15.7-14.3-29.1-14.3c-8.2,0-24.6,6.5-24.6,26.9c0,34.1,35.4,44.8,54.6,60.7c2.3,1.9,7.9,2.2,10.5,0.2
			C185.4,221.2,222.1,207.7,222.1,173.5z"/>
		<path class="st62" d="M221.3,173.7c0-18.9-14.7-25.3-23.5-25.3c-13.7,0-18.4,4.5-30.6,15.2c-2.4,2.1-9.5,2.2-12.7-1
			c-9.6-9.7-15.4-13.7-28.7-13.7c-8.1,0-23.8,6.5-23.8,26.4c0,33,33.9,43.9,53.3,59c2.4,1.9,8.7,2.2,11.6,0.2
			C186.4,220.4,221.3,206.7,221.3,173.7z"/>
		<path class="st63" d="M220.6,173.8c0-18.3-14-24.6-22.8-24.6c-13.6,0-18.1,4.3-30.3,14.6c-2.6,2.2-10,2.4-13.5-1
			c-9.4-9.2-15.1-13.1-28.3-13.1c-7.9,0-23,6.5-23,25.9c0,31.8,32.5,42.9,52,57.3c2.5,1.8,9.5,2.2,12.6,0.2
			C187.3,219.6,220.6,205.7,220.6,173.8z"/>
		<path class="st64" d="M219.8,174c0-17.6-13.4-23.9-22.1-23.9c-13.5,0-17.9,4.1-30,14c-2.8,2.3-10.5,2.5-14.2-1.1
			c-9.3-8.8-14.8-12.5-27.9-12.5c-7.8,0-22.2,6.6-22.2,25.4c0,30.7,31,42,50.7,55.5c2.6,1.8,10.3,2.3,13.7,0.1
			C188.2,218.7,219.8,204.7,219.8,174z"/>
		<path class="st65" d="M219.1,174.1c0-17-12.7-23.3-21.4-23.3c-13.5,0-17.7,3.9-29.6,13.4c-3,2.4-11,2.6-15-1.1
			c-9.1-8.4-14.5-11.9-27.5-11.9c-7.6,0-21.4,6.6-21.4,24.9c0,29.6,29.6,41,49.4,53.8c2.7,1.8,11.1,2.3,14.7,0.1
			C189.1,217.8,219.1,203.7,219.1,174.1z"/>
		<path class="st66" d="M218.3,174.2c0-16.3-12.1-22.6-20.7-22.6c-13.4,0-17.5,3.6-29.3,12.8c-3.2,2.5-11.5,2.7-15.8-1.1
			c-9-8-14.2-11.3-27.1-11.3c-7.5,0-20.7,6.6-20.7,24.4c0,28.4,28.2,40,48.1,52c2.9,1.7,11.8,2.3,15.8,0.1
			C190,216.9,218.3,202.7,218.3,174.2z"/>
		<path class="st67" d="M217.6,174.4c0-15.7-11.4-21.9-20-21.9c-13.3,0-17.2,3.4-29,12.1c-3.4,2.6-12,2.8-16.5-1.2
			c-8.8-7.6-13.9-10.7-26.7-10.7c-7.3,0-19.9,6.6-19.9,23.9c0,27.3,26.8,38.9,46.8,50.3c3,1.7,12.6,2.3,16.9,0.1
			C190.9,215.9,217.6,201.7,217.6,174.4z"/>
		<path class="st68" d="M216.8,174.5c0-15-10.8-21.2-19.3-21.2c-13.3,0-17,3.1-28.7,11.5c-3.7,2.7-12.5,2.9-17.3-1.2
			c-8.6-7.2-13.6-10.1-26.3-10.1c-7.2,0-19.1,6.6-19.1,23.4c0,26.2,25.4,37.9,45.5,48.6c3.1,1.7,13.4,2.3,17.9,0.1
			C191.8,214.9,216.8,200.7,216.8,174.5z"/>
		<path class="st69" d="M216.1,174.6c0-14.4-10.1-20.6-18.6-20.6c-13.2,0-16.8,2.9-28.3,10.9c-3.9,2.7-12.9,2.9-18.1-1.2
			c-8.4-6.9-13.3-9.5-25.9-9.5c-7.1,0-18.3,6.7-18.3,22.9c0,25,24,36.8,44.2,46.8c3.3,1.6,14.1,2.3,19,0.1
			C192.7,213.9,216.1,199.7,216.1,174.6z"/>
		<path class="st70" d="M215.4,174.8c0-13.7-9.5-19.9-17.9-19.9c-13.1,0-16.6,2.6-28,10.3c-4.1,2.8-13.4,3-18.8-1.3
			c-8.3-6.5-13-8.9-25.5-8.9c-6.9,0-17.5,6.7-17.5,22.4c0,23.9,22.6,35.7,42.9,45.1c3.4,1.6,14.9,2.3,20,0.1
			C193.6,212.9,215.4,198.7,215.4,174.8z"/>
		<path class="st71" d="M214.6,174.9c0-13.1-8.8-19.2-17.2-19.2c-13.1,0-16.4,2.3-27.7,9.7c-4.4,2.9-13.9,3-19.6-1.3
			c-8.1-6.1-12.8-8.3-25.1-8.3c-6.8,0-16.7,6.7-16.7,21.9c0,22.7,21.2,34.6,41.6,43.3c3.5,1.5,15.7,2.2,21.1,0.1
			C194.6,211.8,214.6,197.7,214.6,174.9z"/>
		<path class="st72" d="M171.4,219.7c24.1-8.9,42.4-23,42.4-44.6c0-12.4-8.2-18.5-16.5-18.5c-13,0-16.2,2-27.4,9.1
			c-4.6,2.9-14.3,3.1-20.4-1.3c-7.9-5.8-12.5-7.7-24.7-7.7c-6.6,0-15.9,6.7-15.9,21.4c0,21.6,19.7,33.5,40.3,41.6
			C152.9,221,165.7,221.8,171.4,219.7z"/>
	</g>
</g>
</svg>
