<?xml version="1.0" encoding="utf-8"?>
<!-- Generator: Adobe Illustrator 26.2.1, SVG Export Plug-In . SVG Version: 6.00 Build 0)  -->
<svg version="1.1" xmlns="http://www.w3.org/2000/svg" xmlns:xlink="http://www.w3.org/1999/xlink" x="0px" y="0px"
	 viewBox="0 0 288 288" style="enable-background:new 0 0 288 288;" xml:space="preserve">
<style type="text/css">
	.st0{display:none;}
	.st1{fill:#003C10;}
	.st2{fill:#00561D;}
	.st3{fill:#00571E;}
	.st4{fill:#00581F;}
	.st5{fill:#00591F;}
	.st6{fill:#005A20;}
	.st7{fill:#005B21;}
	.st8{fill:#005C21;}
	.st9{fill:#005D22;}
	.st10{fill:#005E23;}
	.st11{fill:#005F23;}
	.st12{fill:#006124;}
	.st13{fill:#006224;}
	.st14{fill:#006325;}
	.st15{fill:#006426;}
	.st16{fill:#006526;}
	.st17{fill:#006627;}
	.st18{fill:#006727;}
	.st19{fill:#006828;}
	.st20{fill:#006929;}
	.st21{fill:#006A29;}
	.st22{fill:#006B2A;}
	.st23{fill:#006C2B;}
	.st24{fill:#006D2B;}
	.st25{fill:#006E2C;}
	.st26{fill:#006F2C;}
	.st27{fill:#00702D;}
	.st28{fill:#00712D;}
	.st29{fill:#00722E;}
	.st30{fill:#00732F;}
	.st31{fill:#00752F;}
	.st32{fill:#007630;}
	.st33{fill:#007730;}
	.st34{fill:#007831;}
	.st35{fill:#007932;}
	.st36{fill:url(#SVGID_1_);}
	.st37{fill:url(#SVGID_00000057143595326705584630000009885812563423711880_);}
	.st38{fill:url(#SVGID_00000050632680590642768120000001928367662862087062_);}
	.st39{fill:url(#SVGID_00000014598145332505831380000016198429556474176403_);}
</style>
<g id="Guides" class="st0">
</g>
<g id="Circle">
	<g>
		<circle class="st1" cx="144" cy="144" r="142.2"/>
	</g>
</g>
<g id="Center">
	<g>
		<g>
			<circle class="st2" cx="144" cy="144" r="130.5"/>
		</g>
		<g>
			<circle class="st3" cx="143.3" cy="143.2" r="127.1"/>
		</g>
		<g>
			<circle class="st4" cx="142.7" cy="142.3" r="123.7"/>
		</g>
		<g>
			<circle class="st5" cx="142" cy="141.5" r="120.3"/>
		</g>
		<g>
			<circle class="st6" cx="141.3" cy="140.7" r="116.9"/>
		</g>
		<g>
			<circle class="st7" cx="140.6" cy="139.8" r="113.5"/>
		</g>
		<g>
			<circle class="st8" cx="140" cy="139" r="110"/>
		</g>
		<g>
			<circle class="st9" cx="139.3" cy="138.2" r="106.6"/>
		</g>
		<g>
			<circle class="st10" cx="138.6" cy="137.3" r="103.2"/>
		</g>
		<g>
			<circle class="st11" cx="137.9" cy="136.5" r="99.8"/>
		</g>
		<g>
			<circle class="st12" cx="137.3" cy="135.7" r="96.4"/>
		</g>
		<g>
			<circle class="st13" cx="136.6" cy="134.8" r="93"/>
		</g>
		<g>
			<circle class="st14" cx="135.9" cy="134" r="89.6"/>
		</g>
		<g>
			<circle class="st15" cx="135.3" cy="133.2" r="86.2"/>
		</g>
		<g>
			<circle class="st16" cx="134.6" cy="132.3" r="82.8"/>
		</g>
		<g>
			<circle class="st17" cx="133.9" cy="131.5" r="79.4"/>
		</g>
		<g>
			<circle class="st18" cx="133.2" cy="130.7" r="76"/>
		</g>
		<g>
			<circle class="st19" cx="132.6" cy="129.8" r="72.5"/>
		</g>
		<g>
			<circle class="st20" cx="131.9" cy="129" r="69.1"/>
		</g>
		<g>
			<circle class="st21" cx="131.2" cy="128.2" r="65.7"/>
		</g>
		<g>
			<circle class="st22" cx="130.5" cy="127.3" r="62.3"/>
		</g>
		<g>
			<circle class="st23" cx="129.9" cy="126.5" r="58.9"/>
		</g>
		<g>
			<circle class="st24" cx="129.2" cy="125.7" r="55.5"/>
		</g>
		<g>
			<circle class="st25" cx="128.5" cy="124.8" r="52.1"/>
		</g>
		<g>
			<circle class="st26" cx="127.8" cy="124" r="48.7"/>
		</g>
		<g>
			<circle class="st27" cx="127.2" cy="123.2" r="45.3"/>
		</g>
		<g>
			<circle class="st28" cx="126.5" cy="122.3" r="41.9"/>
		</g>
		<g>
			<circle class="st29" cx="125.8" cy="121.5" r="38.5"/>
		</g>
		<g>
			<circle class="st30" cx="125.2" cy="120.7" r="35"/>
		</g>
		<g>
			<circle class="st31" cx="124.5" cy="119.8" r="31.6"/>
		</g>
		<g>
			<circle class="st32" cx="123.8" cy="119" r="28.2"/>
		</g>
		<g>
			<circle class="st33" cx="123.1" cy="118.2" r="24.8"/>
		</g>
		<g>
			<circle class="st34" cx="122.5" cy="117.3" r="21.4"/>
		</g>
		<g>
			<circle class="st35" cx="121.8" cy="116.5" r="18"/>
		</g>
	</g>
</g>
<g id="Layer_6">
</g>
<g id="Leaf_Back">
	<path class="st2" d="M124.4,248.7c-0.1,0-0.2,0-0.4,0l-5.3-0.4c-3.7-0.3-7-2.1-9.4-4.9c-2.3-2.8-3.4-6.4-3-10
		c0.3-3.3,0.8-6.5,1.2-9.7c0.6-4,1.3-8.3,2.1-12.6c-2-7.9-4.7-15.7-8-23.2c-17.1,4.1-38.8-1.2-54.7-15.3
		c-18.2-16.2-25.2-39.4-20.2-62c0.4-1.7,1.7-3.1,3.5-3.4c23.9-5,48.4-0.1,62.2,12.3c14.6,13.1,22.1,32.4,22.1,57.3
		c0,0.3,0,0.8,0.2,1.1c0.4,0.8,0.8,1.5,1.2,2.1c0.5,0.8,0.9,1.6,1.3,2.3c1.8-5.5,3.8-10.9,5.9-16.1c0.3-0.6,0.5-1.2,0.8-1.8
		c-8.5-27.3-4-55.1,12.4-76.3c19.6-25.5,53.9-40,89.5-37.9c1.8,0.1,3.3,1.2,3.9,2.9c10.2,26.9,9.1,56.4-8.5,81.6
		c-17.2,24.6-46.4,37.5-81.7,40.3c0,0,0,0,0,0c-2.3,7.8-4.5,17-6,26c6-13,14.6-20.8,28-26.6c18.7-8,41.7-7.6,59.4,2.7
		c1.7,1,2.5,2.9,2.1,4.8c-2.9,14.9-12.8,28.2-26.9,36.5c-17.9,10.5-34.8,13.4-55.4,5.7c-1.8-0.7-2.2-1.2-2.4-1.8
		c-3.5,4.4-6.6,9.1-9.1,14.1c-0.1,2.4-0.1,4.9-0.1,8c0,1.3-0.5,2.5-1.4,3.3C126.6,248.2,125.5,248.7,124.4,248.7z M139,174.9
		C139,174.9,139,174.9,139,174.9C139,174.9,139,174.9,139,174.9z"/>
</g>
<g id="Leaf_copy">
	<linearGradient id="SVGID_1_" gradientUnits="userSpaceOnUse" x1="182.0949" y1="33.01" x2="84.6639" y2="221.927">
		<stop  offset="0" style="stop-color:#B2D235"/>
		<stop  offset="1" style="stop-color:#7ABB3F"/>
	</linearGradient>
	<path class="st36" d="M133.1,209.6c-1.1,0.9-2.1,1.8-3.1,2.8c-2.1,1.9-4,4-5.9,6.1c2.1-19.3,5.8-36.6,10.5-52.2
		c66.4,3.5,111.7-52.4,88.9-112.7c-68.6-4.1-115,52.1-96.2,109.1c-0.5,1.1-1,2.2-1.4,3.3c-3.5,8.6-7.7,20.2-10.2,31.6
		c-3-6.9-6.5-13.9-9.9-19.9c10-48.4-35.1-77.3-76-67.9c-10.4,47.2,40.6,82.2,73,70.8c4.3,9.1,7.7,18.7,10.2,28.4
		c-0.9,4.4-1.6,8.9-2.3,13.3c-0.5,3.2-0.8,6.4-1.2,9.6c-0.5,5.1,3.3,9.6,8.3,10l5.3,0.4c0-3.1,0-6.1,0.1-9.2
		c3.4-7.8,8.9-14.7,15.4-20.9c-1.1,1-1.2,3.9,4.1,6.2c33.8,14.8,69.4-10.1,74.4-39.6C183.5,159.4,140.9,176.9,133.1,209.6z"/>
</g>
<g id="Layer_8">
	
		<linearGradient id="SVGID_00000042006877963651893690000006060577349819502478_" gradientUnits="userSpaceOnUse" x1="233.132" y1="61.1748" x2="145.0588" y2="173.4681">
		<stop  offset="0" style="stop-color:#92C83E"/>
		<stop  offset="1" style="stop-color:#238937"/>
	</linearGradient>
	<path style="fill:url(#SVGID_00000042006877963651893690000006060577349819502478_);" d="M223.5,53.6
		c-18.9,8.7-70.2,38.8-88.9,112.7C201,169.8,246.3,113.9,223.5,53.6z"/>
	
		<linearGradient id="SVGID_00000020376008138035246920000001740841821429892233_" gradientUnits="userSpaceOnUse" x1="193.7311" y1="167.1576" x2="162.5359" y2="227.6446">
		<stop  offset="0" style="stop-color:#92C83E"/>
		<stop  offset="1" style="stop-color:#238937"/>
	</linearGradient>
	<path style="fill:url(#SVGID_00000020376008138035246920000001740841821429892233_);" d="M217.1,179c-20.9,1.2-53.6,9.7-78.5,33.4
		c-1.1,1-1.2,3.9,4.1,6.2C176.5,233.3,212.1,208.4,217.1,179"/>
	
		<linearGradient id="SVGID_00000170974302723526288810000007939052514375633835_" gradientUnits="userSpaceOnUse" x1="40.0177" y1="99.3166" x2="115.1001" y2="167.1329">
		<stop  offset="0" style="stop-color:#92C83E"/>
		<stop  offset="1" style="stop-color:#238937"/>
	</linearGradient>
	<path style="fill:url(#SVGID_00000170974302723526288810000007939052514375633835_);" d="M29.8,109.8c40.9-9.4,86,19.5,76,67.9
		C91.6,152.7,61.8,122.5,29.8,109.8z"/>
</g>
</svg>
