<?xml version="1.0" encoding="UTF-8"?><svg xmlns="http://www.w3.org/2000/svg" xmlns:xlink="http://www.w3.org/1999/xlink" viewBox="0 0 252 252"><defs><style>.d{fill:url(#c);}.e{fill:#eff1f2;}</style><linearGradient id="c" x1="126" y1="0" x2="126" y2="252" gradientTransform="matrix(1, 0, 0, 1, 0, 0)" gradientUnits="userSpaceOnUse"><stop offset="0" stop-color="#a43ea1"/><stop offset=".11" stop-color="#8d51ab"/><stop offset=".45" stop-color="#4a8ecc"/><stop offset=".71" stop-color="#24a0a4"/><stop offset="1" stop-color="#00b37d"/></linearGradient></defs><g id="a"/><g id="b"><circle class="d" cx="126" cy="126" r="126"/><path class="e" d="M52.01,95.9c-2.23,0-3.35-2.69-1.77-4.27l24.12-24.12c.96-.92,2.23-1.46,3.54-1.46h122.1c2.23,0,3.35,2.69,1.77,4.27l-24.12,24.12c-.92,.92-2.19,1.46-3.54,1.46H52.01Zm25.89,60.2c-1.35,0-2.62,.54-3.54,1.46l-24.12,24.12c-1.58,1.58-.46,4.27,1.77,4.27h122.1c1.35,0,2.62-.54,3.54-1.46l24.12-24.12c1.58-1.58,.46-4.27-1.77-4.27H77.9Zm-25.89-45.31c-2.23,0-3.35,2.69-1.77,4.27l24.12,24.12c.92,.92,2.19,1.46,3.54,1.46h122.1c2.23,0,3.35-2.69,1.77-4.27l-24.12-24.12c-.92-.92-2.19-1.46-3.54-1.46H52.01Z"/></g></svg>