<?xml version="1.0" encoding="utf-8"?>
<!-- Generator: Adobe Illustrator 26.2.1, SVG Export Plug-In . SVG Version: 6.00 Build 0)  -->
<svg version="1.1" id="Layer_1" xmlns="http://www.w3.org/2000/svg" xmlns:xlink="http://www.w3.org/1999/xlink" x="0px" y="0px"
	 viewBox="0 0 284.4 284.4" style="enable-background:new 0 0 284.4 284.4;" xml:space="preserve">
<style type="text/css">
	.st0{fill:#E0C369;}
	.st1{fill:#E1C46B;}
	.st2{fill:#E2C66E;}
	.st3{fill:#E3C770;}
	.st4{fill:#E4C872;}
	.st5{fill:#E5CA74;}
	.st6{fill:#E5CB76;}
	.st7{fill:#E6CC78;}
	.st8{fill:#E7CE7A;}
	.st9{fill:#E8CF7C;}
	.st10{fill:#EAD280;}
	.st11{fill:#EBD382;}
	.st12{fill:#EBD584;}
	.st13{fill:#ECD686;}
	.st14{fill:#EDD788;}
	.st15{fill:#EED98A;}
	.st16{fill:#EFDA8C;}
	.st17{fill:#F0DC8E;}
	.st18{fill:#F0DD90;}
	.st19{fill:#F1DF93;}
	.st20{fill:#F2E095;}
	.st21{fill:#F3E197;}
	.st22{fill:#F4E399;}
	.st23{fill:#F5E49B;}
	.st24{fill:#F6E69D;}
	.st25{fill:#F7E7A0;}
	.st26{fill:#F8E9A2;}
	.st27{fill:#F9EAA4;}
	.st28{fill:#FAECA6;}
	.st29{fill:#FBEEA9;}
	.st30{fill:#FCEFAB;}
	.st31{fill:#FDF1AE;}
	.st32{fill:#FEF3B0;}
	.st33{fill:#9A741C;}
	.st34{fill:url(#SVGID_1_);}
	.st35{fill:url(#SVGID_00000120554520960580566040000018107923072034384807_);}
	.st36{fill:url(#SVGID_00000092452096880009968140000002093288227642114490_);}
	.st37{fill:url(#SVGID_00000082349843425247216320000016227372550329882298_);}
	.st38{fill:#76B043;}
	.st39{opacity:0.8;}
	.st40{fill:#C7EAFB;}
	.st41{fill:#E1F4FD;}
</style>
<g id="a">
</g>
<g id="b">
	<g>
		<circle class="st0" cx="142.2" cy="142.2" r="142.2"/>
		<circle class="st1" cx="141.5" cy="141.5" r="138.4"/>
		<circle class="st2" cx="140.7" cy="140.7" r="134.7"/>
		<circle class="st3" cx="140" cy="140" r="130.9"/>
		<circle class="st4" cx="139.3" cy="139.2" r="127.1"/>
		<circle class="st5" cx="138.6" cy="138.5" r="123.3"/>
		<circle class="st6" cx="137.8" cy="137.7" r="119.6"/>
		<circle class="st7" cx="137.1" cy="137" r="115.8"/>
		<circle class="st8" cx="136.4" cy="136.2" r="112"/>
		<circle class="st9" cx="135.6" cy="135.5" r="108.3"/>
		<circle class="st10" cx="134.2" cy="134" r="100.7"/>
		<circle class="st11" cx="133.4" cy="133.3" r="96.9"/>
		<circle class="st12" cx="132.7" cy="132.5" r="93.2"/>
		<circle class="st13" cx="132" cy="131.8" r="89.4"/>
		<circle class="st14" cx="131.3" cy="131.1" r="85.6"/>
		<circle class="st15" cx="130.5" cy="130.3" r="81.9"/>
		<circle class="st16" cx="129.8" cy="129.6" r="78.1"/>
		<circle class="st17" cx="129.1" cy="128.8" r="74.3"/>
		<circle class="st18" cx="128.4" cy="128.1" r="70.6"/>
		<circle class="st19" cx="127.6" cy="127.3" r="66.8"/>
		<circle class="st20" cx="126.9" cy="126.6" r="63"/>
		<circle class="st21" cx="126.2" cy="125.8" r="59.2"/>
		<circle class="st22" cx="125.4" cy="125.1" r="55.5"/>
		<circle class="st23" cx="124.7" cy="124.3" r="51.7"/>
		<circle class="st24" cx="124" cy="123.6" r="47.9"/>
		<circle class="st25" cx="123.2" cy="122.9" r="44.2"/>
		<circle class="st26" cx="122.5" cy="122.1" r="40.4"/>
		<circle class="st27" cx="121.8" cy="121.4" r="36.6"/>
		<circle class="st28" cx="121.1" cy="120.6" r="32.9"/>
		<circle class="st29" cx="120.3" cy="119.9" r="29.1"/>
		<circle class="st30" cx="119.6" cy="119.2" r="25.3"/>
		<circle class="st31" cx="118.9" cy="118.4" r="21.5"/>
		<circle class="st32" cx="118.2" cy="117.7" r="17.8"/>
	</g>
</g>
<g id="c">
	<path class="st33" d="M142.2,4c36.9,0,71.6,14.4,97.7,40.5s40.5,60.8,40.5,97.7s-14.4,71.6-40.5,97.7s-60.8,40.5-97.7,40.5
		S70.6,266,44.5,239.9S4,179.1,4,142.2s14.4-71.6,40.5-97.7S105.3,4,142.2,4 M142.2,0C63.7,0,0,63.7,0,142.2s63.7,142.2,142.2,142.2
		s142.2-63.7,142.2-142.2S220.7,0,142.2,0L142.2,0z"/>
</g>
<g id="d">
	<g>
		
			<linearGradient id="SVGID_1_" gradientUnits="userSpaceOnUse" x1="192.6208" y1="244.6584" x2="20.2209" y2="151.5184" gradientTransform="matrix(1 0 0 -1 0 286)">
			<stop  offset="0" style="stop-color:#005BAA"/>
			<stop  offset="1" style="stop-color:#008FD5"/>
		</linearGradient>
		<path class="st34" d="M16.2,127.9c4.3-38.3,24.9-74.9,61-95.8c57-32.9,104.3-10.8,120.1,16.7c13.9,24,9.2,55.7-15.4,69.9
			c-14,8.1-39.8,12.2-60.6-3.7c-31.2-23.7-52.7-27.8-79.5-12.4C33.4,107.6,20.5,119.5,16.2,127.9L16.2,127.9z"/>
		
			<linearGradient id="SVGID_00000032616999997061563670000012690842817458814095_" gradientUnits="userSpaceOnUse" x1="146.6262" y1="8.7841" x2="49.5162" y2="155.4241" gradientTransform="matrix(1 0 0 -1 0 286)">
			<stop  offset="0" style="stop-color:#39B54A;stop-opacity:0.93"/>
			<stop  offset="1" style="stop-color:#CBD72A"/>
		</linearGradient>
		<path style="fill:url(#SVGID_00000032616999997061563670000012690842817458814095_);" d="M192.5,257.3
			c-35.3,15.4-77.3,15.9-113.5-5c-57-32.9-61.5-84.9-45.6-112.4c13.8-24,43.7-35.8,68.2-21.7c14,8.1,30.4,28.3,27.1,54.3
			c-4.9,38.9,2.3,59.6,29,75C166.3,252.6,183.1,257.7,192.5,257.3L192.5,257.3z"/>
		
			<linearGradient id="SVGID_00000176037410520573582680000010181479909403240069_" gradientUnits="userSpaceOnUse" x1="205.13" y1="50.85" x2="205.13" y2="242.34" gradientTransform="matrix(1 0 0 -1 0 286)">
			<stop  offset="0" style="stop-color:#009B69"/>
			<stop  offset="1" style="stop-color:#00B4CD"/>
		</linearGradient>
		<path style="fill:url(#SVGID_00000176037410520573582680000010181479909403240069_);" d="M216.4,39.9c31,22.9,52.4,59,52.4,100.8
			c0,65.8-42.8,95.7-74.5,95.7c-27.7,0-52.9-19.9-52.9-48.3c0-16.1,9.3-40.5,33.5-50.7c36.1-15.2,50.4-31.7,50.4-62.6
			C225.4,64.9,221.5,47.8,216.4,39.9z"/>
		<g>
			
				<linearGradient id="SVGID_00000156562399170207239850000011052834276651863694_" gradientUnits="userSpaceOnUse" x1="41.4246" y1="156.7054" x2="161.3146" y2="17.3253" gradientTransform="matrix(1 0 0 -1 0 286)">
				<stop  offset="0" style="stop-color:#39B54A;stop-opacity:0.93"/>
				<stop  offset="1" style="stop-color:#CBD72A"/>
			</linearGradient>
			<path style="fill:url(#SVGID_00000156562399170207239850000011052834276651863694_);" d="M41.8,167.2c0,1,0.9,1.3,1.2-0.2
				c0.6-3.4,4.5-22.7,21.9-34.5c-0.7,7.6-0.8,14.4-0.6,19.2c-12.4,14.1-15.3,31.4-14.4,41.2c0.2,2,1.4,1.1,1.4,0.2
				c-0.3-11,9.1-29.3,13.5-33.3c1,9.9,3.1,18.6,6,26.3c-5.7,12.1-6.3,25.2-2.2,33.2c0.7,1.3,1.4,0.5,1.1-0.1
				c-3.7-10.6,1-23.1,3.5-27.4c8.3,18.2,21.1,30.7,32.6,41.3c1.7,1.5,2.3,0.5,1.3-0.6c-10-10.4-18.2-21.9-23.5-31.5
				c11.8,2.2,18.8,9.1,20.6,11.2c0.9,1,1.5,0.5,1-0.3c-6.8-11-16.2-14.4-23.9-15.8c-4.8-9.6-6.9-17.1-8.5-25.6
				c19.3,2.3,26.5,15.1,28.4,17.6c0.8,1.1,1.4,0.6,1-0.3c-4.2-9.5-12-18.1-30.2-22.7c-1.1-8.3-1-15.9-0.5-22.6
				c21.6,2.7,33.8,18.9,35.9,21.8c0.9,1.2,1.5,0.6,1.1-0.3c-4.7-10.6-16.5-22.7-36.4-29.4c0.2-6.2,2.2-15.4,5.2-22.6
				c-3,0.1-5.9,0.5-8.8,1.2c-1,4.1-2.2,9-2.5,11.3C46.8,139.2,41.4,156,41.8,167.2L41.8,167.2z"/>
			<path class="st38" d="M41.8,167.2c0,1,0.9,1.3,1.2-0.2c0.6-3.4,4.5-22.7,21.9-34.5c-0.7,7.6-0.8,14.4-0.6,19.2
				c-12.4,14.1-15.3,31.4-14.4,41.2c0.2,2,1.4,1.1,1.4,0.2c-0.3-11,9.1-29.3,13.5-33.3c1,9.9,3.1,18.6,6,26.3
				c-5.7,12.1-6.3,25.2-2.2,33.2c0.7,1.3,1.4,0.5,1.1-0.1c-3.7-10.6,1-23.1,3.5-27.4c8.3,18.2,21.1,30.7,32.6,41.3
				c1.7,1.5,2.3,0.5,1.3-0.6c-10-10.4-18.2-21.9-23.5-31.5c11.8,2.2,18.8,9.1,20.6,11.2c0.9,1,1.5,0.5,1-0.3
				c-6.8-11-16.2-14.4-23.9-15.8c-4.8-9.6-6.9-17.1-8.5-25.6c19.3,2.3,26.5,15.1,28.4,17.6c0.8,1.1,1.4,0.6,1-0.3
				c-4.2-9.5-12-18.1-30.2-22.7c-1.1-8.3-1-15.9-0.5-22.6c21.6,2.7,33.8,18.9,35.9,21.8c0.9,1.2,1.5,0.6,1.1-0.3
				c-4.7-10.6-16.5-22.7-36.4-29.4c0.2-6.2,2.2-15.4,5.2-22.6c-3,0.1-5.9,0.5-8.8,1.2c-1,4.1-2.2,9-2.5,11.3
				C46.8,139.2,41.4,156,41.8,167.2L41.8,167.2z"/>
		</g>
		<g class="st39">
			<circle class="st40" cx="222" cy="207" r="8.8"/>
			<path class="st40" d="M253.7,149.8c-5.4,19.2-14.9,28.2-23.4,34.8c-3.8,3-3.2,9.3-0.1,12.5c3.4,3.5,9,3.5,12.5,0.1
				c8.4-8.3,15.8-27.3,15.9-46.2C258.7,147.9,254.4,147.3,253.7,149.8L253.7,149.8z"/>
		</g>
		<path class="st41" d="M169.5,58.9c-0.4-1.7-1.9-2.9-3.6-2.9c-0.4,0-0.7,0.1-1.1,0.2c-1.8-3.6-5.5-6-9.8-6c-4.6,0-8.6,2.9-10.2,7
			c-2.8,0.4-4.9,2.9-4.9,5.8c0,3.2,2.6,5.9,5.9,5.9h23.2c2.7,0,5-2.2,5-5C173.8,61.2,171.9,59.2,169.5,58.9L169.5,58.9z"/>
		<path class="st41" d="M122.4,55.5h20.9c2.1-4.4,6.5-7.4,11.7-7.4c4.5,0,8.5,2.3,10.8,5.9h0c1.3,0,2.6,0.5,3.6,1.2
			c2.7-0.8,4.7-3.2,4.7-6.2c0-3.5-2.9-6.3-6.4-6.4h0c-0.8-7-6.9-12.5-14.2-12.5c-1.4,0-2.8,0.2-4.1,0.6c-2.6-4-7.2-6.7-12.5-6.7
			c-7,0-12.8,4.7-14.4,11.1h0c-5.7,0-10.3,4.5-10.3,10.2S116.7,55.5,122.4,55.5L122.4,55.5z"/>
	</g>
</g>
</svg>
