<?xml version="1.0" encoding="UTF-8"?><svg xmlns="http://www.w3.org/2000/svg" xmlns:xlink="http://www.w3.org/1999/xlink" viewBox="0 0 284.4 284.4"><defs><style>.g{fill:url(#e);}.h{fill:url(#d);}.i{fill:url(#f);}.j{fill:#0054a6;}.k{fill:#26247b;}</style><linearGradient id="d" x1="189.93" y1="260.02" x2="31.11" y2="142.79" gradientTransform="matrix(1, 0, 0, 1, 0, 0)" gradientUnits="userSpaceOnUse"><stop offset="0" stop-color="#0072bc"/><stop offset="1" stop-color="#00bdf2"/></linearGradient><linearGradient id="e" x1="198.64" y1="238.94" x2="219.53" y2="41.28" xlink:href="#d"/><linearGradient id="f" x1="15.81" y1="124.92" x2="197.3" y2="45.62" xlink:href="#d"/></defs><g id="a"/><g id="b"><g><circle class="j" cx="142.2" cy="142.2" r="140.2"/><path class="k" d="M142.2,4c36.91,0,71.62,14.38,97.72,40.48,26.1,26.1,40.48,60.81,40.48,97.72s-14.38,71.62-40.48,97.72c-26.1,26.1-60.81,40.48-97.72,40.48s-71.62-14.38-97.72-40.48C18.38,213.82,4,179.11,4,142.2S18.38,70.58,44.48,44.48C70.58,18.38,105.29,4,142.2,4m0-4C63.67,0,0,63.67,0,142.2s63.67,142.2,142.2,142.2,142.2-63.67,142.2-142.2S220.73,0,142.2,0h0Z"/></g></g><g id="c"><path class="h" d="M157.37,248.21c-26.86-15.51-34.09-36.27-29.13-75.3,3.32-26.11-13.21-46.46-27.23-54.55-5.94-3.43-12.19-5.33-18.44-5.93-22.24,34.7-24.05,101.28,23.86,128.38-47.94-23.04-62.45-72.41-39.59-127.17-13.95,3.47-26.61,13.08-34.33,26.45-15.9,27.55-11.4,79.77,45.79,112.79,36.27,20.94,78.45,20.45,113.92,4.99-9.43,.44-26.27-4.72-34.85-9.67Z"/><path class="g" d="M217.37,41.05c31.12,22.98,52.63,59.27,52.63,101.15,0,66.04-42.97,96.05-74.78,96.05-27.82,0-53.08-19.95-53.08-48.45,0-16.18,9.36-40.67,33.63-50.85,36.28-15.22,50.65-31.86,50.65-62.88,0-9.9-3.95-27.06-9.05-35.01Zm14.31,146.91c-9.8,10.47-21.96,11.97-35.53,11.97-6.86,0-11.55,6.19-11.55,11.78,0,4.9,3.65,12.04,11.89,12.04,18.6,0,35.91-15.6,42.01-31.26,1.79-4.58-3.96-7.6-6.83-4.54Z"/><path class="i" d="M17.02,127.68c4.35-38.44,25.01-75.21,61.28-96.16,57.19-33.02,104.67-10.81,120.57,16.74,13.91,24.09,9.26,55.94-15.42,70.2-14.02,8.09-39.91,12.23-60.86-3.7-31.32-23.81-52.92-27.93-79.78-12.42-8.58,4.95-21.46,16.96-25.8,25.35ZM170.89,58.39c-.39-1.66-1.88-2.9-3.66-2.9-.37,0-.73,.07-1.07,.17-1.81-3.59-5.52-6.06-9.82-6.06-4.66,0-8.63,2.9-10.24,6.99-2.81,.44-4.97,2.87-4.97,5.81,0,3.25,2.64,5.89,5.89,5.89h23.25c2.75,0,4.98-2.23,4.98-4.98,0-2.54-1.9-4.61-4.36-4.91Zm-47.27-3.38h21c2.1-4.38,6.56-7.41,11.72-7.41,4.55,0,8.55,2.35,10.87,5.89h.02c1.35,0,2.59,.47,3.57,1.25,2.71-.78,4.7-3.25,4.7-6.18,0-3.52-2.86-6.37-6.41-6.44h-.02c-.83-7.07-6.91-12.56-14.29-12.56-1.44,0-2.83,.21-4.14,.6-2.66-4.05-7.28-6.73-12.53-6.73-7.01,0-12.87,4.76-14.48,11.18h-.01c-5.71,0-10.34,4.57-10.34,10.2s4.63,10.2,10.34,10.2Z"/></g></svg>