<?xml version="1.0" encoding="utf-8"?>
<!-- Generator: Adobe Illustrator 26.2.1, SVG Export Plug-In . SVG Version: 6.00 Build 0)  -->
<svg version="1.1" id="Layer_1" xmlns="http://www.w3.org/2000/svg" xmlns:xlink="http://www.w3.org/1999/xlink" x="0px" y="0px"
	 viewBox="0 0 288 288" style="enable-background:new 0 0 288 288;" xml:space="preserve">
<style type="text/css">
	.st0{display:none;}
	.st1{fill:url(#SVGID_1_);}
	.st2{fill:#17479E;}
	.st3{fill:#15489E;}
	.st4{fill:#12499F;}
	.st5{fill:#104AA0;}
	.st6{fill:#0D4BA0;}
	.st7{fill:#094CA1;}
	.st8{fill:#054DA2;}
	.st9{fill:#014EA2;}
	.st10{fill:#004FA3;}
	.st11{fill:#0050A3;}
	.st12{fill:#0051A4;}
	.st13{fill:#0052A5;}
	.st14{fill:#0053A5;}
	.st15{fill:#0054A6;}
	.st16{fill:#0055A7;}
	.st17{fill:#0056A7;}
	.st18{fill:#0057A8;}
	.st19{fill:#0058A9;}
	.st20{fill:#0059A9;}
	.st21{fill:#005AAA;}
	.st22{fill:#005BAB;}
	.st23{fill:#005CAB;}
	.st24{fill:#005DAC;}
	.st25{fill:#005EAC;}
	.st26{fill:#005EAD;}
	.st27{fill:#005FAE;}
	.st28{fill:#0060AE;}
	.st29{fill:#0061AF;}
	.st30{fill:#0062B0;}
	.st31{fill:#0063B0;}
	.st32{fill:#0064B1;}
	.st33{fill:#0065B2;}
	.st34{fill:#0066B3;}
	.st35{fill:url(#SVGID_00000103265072669858453740000004420989743094074513_);}
	.st36{fill:url(#SVGID_00000022524026508956685340000013083275916895728554_);}
	.st37{fill:url(#SVGID_00000168084823962155939130000009219445673623175350_);}
	.st38{fill:#AB8C15;}
	.st39{fill:#AE8E15;}
	.st40{fill:#B19115;}
	.st41{fill:#B49415;}
	.st42{fill:#B79715;}
	.st43{fill:#BA9A15;}
	.st44{fill:#BE9D15;}
	.st45{fill:#C1A015;}
	.st46{fill:#C4A315;}
	.st47{fill:#C7A614;}
	.st48{fill:#CAA914;}
	.st49{fill:#CEAC13;}
	.st50{fill:#D1AF13;}
	.st51{fill:#D4B212;}
	.st52{fill:#D8B511;}
	.st53{fill:#DBB910;}
	.st54{fill:#DEBC0F;}
	.st55{fill:#E2BF0E;}
	.st56{fill:#E5C20C;}
	.st57{fill:#E9C609;}
	.st58{fill:#ECC906;}
	.st59{fill:#F0CC03;}
	.st60{fill:#F4D000;}
	.st61{fill:#F8D300;}
	.st62{fill:#FDD800;}
	.st63{fill:#FFDD00;}
</style>
<g id="Guides" class="st0">
</g>
<g id="Circle">
	<g>
		
			<linearGradient id="SVGID_1_" gradientUnits="userSpaceOnUse" x1="1.8" y1="146" x2="286.2" y2="146" gradientTransform="matrix(1 0 0 -1 0 290)">
			<stop  offset="2.620457e-04" style="stop-color:#0054A6"/>
			<stop  offset="1" style="stop-color:#0066B3"/>
		</linearGradient>
		<circle class="st1" cx="144" cy="144" r="142.2"/>
	</g>
</g>
<g id="Center">
	<g>
		<g>
			<circle class="st2" cx="144" cy="144" r="130.5"/>
		</g>
		<g>
			<circle class="st3" cx="143.3" cy="143.2" r="127.1"/>
		</g>
		<g>
			<circle class="st4" cx="142.7" cy="142.3" r="123.7"/>
		</g>
		<g>
			<circle class="st5" cx="142" cy="141.5" r="120.3"/>
		</g>
		<g>
			<circle class="st6" cx="141.3" cy="140.7" r="116.9"/>
		</g>
		<g>
			<circle class="st7" cx="140.6" cy="139.8" r="113.5"/>
		</g>
		<g>
			<circle class="st8" cx="140" cy="139" r="110"/>
		</g>
		<g>
			<circle class="st9" cx="139.3" cy="138.2" r="106.6"/>
		</g>
		<g>
			<circle class="st10" cx="138.6" cy="137.3" r="103.2"/>
		</g>
		<g>
			<circle class="st11" cx="137.9" cy="136.5" r="99.8"/>
		</g>
		<g>
			<circle class="st12" cx="137.3" cy="135.7" r="96.4"/>
		</g>
		<g>
			<circle class="st13" cx="136.6" cy="134.8" r="93"/>
		</g>
		<g>
			<circle class="st14" cx="135.9" cy="134" r="89.6"/>
		</g>
		<g>
			<circle class="st15" cx="135.3" cy="133.2" r="86.2"/>
		</g>
		<g>
			<circle class="st16" cx="134.6" cy="132.3" r="82.8"/>
		</g>
		<g>
			<circle class="st17" cx="133.9" cy="131.5" r="79.4"/>
		</g>
		<g>
			<circle class="st18" cx="133.2" cy="130.7" r="76"/>
		</g>
		<g>
			<circle class="st19" cx="132.6" cy="129.8" r="72.5"/>
		</g>
		<g>
			<circle class="st20" cx="131.9" cy="129" r="69.1"/>
		</g>
		<g>
			<circle class="st21" cx="131.2" cy="128.2" r="65.7"/>
		</g>
		<g>
			<circle class="st22" cx="130.5" cy="127.3" r="62.3"/>
		</g>
		<g>
			<circle class="st23" cx="129.9" cy="126.5" r="58.9"/>
		</g>
		<g>
			<circle class="st24" cx="129.2" cy="125.7" r="55.5"/>
		</g>
		<g>
			<circle class="st25" cx="128.5" cy="124.8" r="52.1"/>
		</g>
		<g>
			<circle class="st26" cx="127.8" cy="124" r="48.7"/>
		</g>
		<g>
			<circle class="st27" cx="127.2" cy="123.2" r="45.3"/>
		</g>
		<g>
			
				<ellipse transform="matrix(8.248055e-02 -0.9966 0.9966 8.248055e-02 -5.8171 238.2816)" class="st28" cx="126.5" cy="122.3" rx="41.9" ry="41.9"/>
		</g>
		<g>
			<circle class="st29" cx="125.8" cy="121.5" r="38.5"/>
		</g>
		<g>
			<circle class="st30" cx="125.2" cy="120.7" r="35"/>
		</g>
		<g>
			<circle class="st31" cx="124.5" cy="119.8" r="31.6"/>
		</g>
		<g>
			<circle class="st32" cx="123.8" cy="119" r="28.2"/>
		</g>
		<g>
			<circle class="st33" cx="123.1" cy="118.2" r="24.8"/>
		</g>
		<g>
			<circle class="st33" cx="122.5" cy="117.3" r="21.4"/>
		</g>
		<g>
			<circle class="st34" cx="121.8" cy="116.5" r="18"/>
		</g>
	</g>
</g>
<g id="Flag">
</g>
<g id="Leaf_Multi">
	<g>
		
			<linearGradient id="SVGID_00000026885978054840055740000004832635983121059772_" gradientUnits="userSpaceOnUse" x1="235.3501" y1="52.8044" x2="54.479" y2="237.3295" gradientTransform="matrix(1 0 0 -1 0 290)">
			<stop  offset="2.620457e-04" style="stop-color:#0054A6"/>
			<stop  offset="1" style="stop-color:#0066B3"/>
		</linearGradient>
		<circle style="fill:url(#SVGID_00000026885978054840055740000004832635983121059772_);" cx="144" cy="144" r="130.5"/>
	</g>
	
		<linearGradient id="SVGID_00000044163545308595745910000008611970698608060579_" gradientUnits="userSpaceOnUse" x1="200.961" y1="258.1106" x2="76.3374" y2="12.8267" gradientTransform="matrix(1 0 0 -1 0 290)">
		<stop  offset="1.140215e-04" style="stop-color:#44C8F5"/>
		<stop  offset="1" style="stop-color:#0066B3"/>
	</linearGradient>
	<circle style="fill:url(#SVGID_00000044163545308595745910000008611970698608060579_);" cx="144" cy="144" r="130.5"/>
	
		<linearGradient id="SVGID_00000165951160906613871780000018080325069720356792_" gradientUnits="userSpaceOnUse" x1="182.5892" y1="251.9285" x2="62.2459" y2="42.0706" gradientTransform="matrix(1 0 0 -1 0 290)">
		<stop  offset="0" style="stop-color:#005BAA"/>
		<stop  offset="0.9993" style="stop-color:#2A2A85"/>
	</linearGradient>
	<path style="fill:url(#SVGID_00000165951160906613871780000018080325069720356792_);" d="M98.3,223.4c-6.4-29.1,1.5-60.2,45.7-79.4
		c44.2-19.1,52.1-50.3,45.7-79.4c-9.9-38.8-48.3-55-79.5-46.7C40.6,36.6-0.7,108.2,18,177.8c18.6,69.6,90.2,110.9,159.8,92.3
		C146.6,278.4,108.2,262.1,98.3,223.4z M147.6,96.3h-27.2c-3.8,0-6.9-3.1-6.9-6.9c0-3.4,2.5-6.3,5.8-6.8c1.9-4.8,6.5-8.2,12-8.2
		c5,0,9.4,2.9,11.5,7.1c0.4-0.1,0.8-0.2,1.2-0.2c2.1,0,3.8,1.5,4.3,3.4c2.9,0.4,5.1,2.8,5.1,5.7C153.4,93.7,150.8,96.3,147.6,96.3z
		 M81,68.9C81,62.3,86.4,57,93.1,57l0,0c1.9-7.5,8.7-13.1,16.9-13.1c6.1,0,11.5,3.1,14.7,7.9c1.5-0.5,3.2-0.7,4.8-0.7
		c8.6,0,15.7,6.4,16.7,14.7l0,0l0,0c4.1,0.1,7.5,3.4,7.5,7.5c0,3.4-2.3,6.3-5.5,7.2c-1.2-0.9-2.6-1.5-4.2-1.5l0,0
		c-2.7-4.1-7.4-6.9-12.7-6.9c-6,0-11.3,3.5-13.7,8.7H93.1C86.4,80.8,81,75.5,81,68.9z"/>
</g>
<g id="Check_Shadow">
	<path d="M138.7,260.5c-1.1,0.1-2.3,0-3.5-0.1c-6.5-1-7.5-4.1-10-11.8l-0.3-0.8c-2.3-7-25.1-51-50.3-60.7c-6.6-2.5-8.1-6.6-8.4-8.9
		c-0.5-3.2,0.9-6.4,3.8-8.6c3.7-2.8,9.5-6.8,15.4-9.7l0,0c13.3-6.5,25.2-6.2,33.4,0.9c8.5,7.3,20.4,23.4,24.7,32.2
		c4-8.3,20.8-41.2,50-69.9c12.4-12.2,30.8-27.9,47.6-33.2c3.7-1.2,8.9-0.1,10.9,3.7c0.8,1.6,2.2,5.9-3.8,10.6
		c-1.1,0.8-26.3,21.1-56.5,72.2c-18.9,31.9-21.6,44.4-25.4,61.6l-0.1,0.7c-1.6,7.3-3.7,9.9-12.7,15.3
		C146.9,258,142.8,260.2,138.7,260.5z"/>
</g>
<g id="Checkmark">
	<g>
		<path class="st38" d="M86.3,161.9c8.5-4.1,20.2-7.1,29,0.3s21.7,25.5,24.5,32.9c1.4,3.5,3.9,3.9,5.7-0.2
			c1.8-4.1,18.7-39.7,50-70.6c26.6-26.2,42.3-31,46-32.2c3.7-1.2,10.1,1.8,3.3,7.2c-6.8,5.4-30.6,27.9-57.4,73.3
			c-19.5,32.9-22.1,45.8-26,63.5c-1.3,5.8-2.4,7.6-10.8,12.6s-11.5,6.4-15.6,5.8s-4.3-1.6-7-9.8s-26.2-53.1-52.7-63.2
			c-7.2-2.8-7-7.8-3.7-10.3S80.5,164.8,86.3,161.9z"/>
		<path class="st39" d="M86.4,162.1c8.4-4.1,20.1-7.1,28.8,0.4s21.6,25.4,24.4,32.8c1.4,3.5,4,3.9,5.8-0.2
			c1.8-4.1,18.7-39.7,49.9-70.5c1.6-1.5,3.1-3,4.6-4.4c23.6-22.1,37.6-26.7,41.2-27.9c2.4-0.8,5.9,0.1,6.3,2.3
			c0.2,1.2-0.4,2.7-2.8,4.7c-6.8,5.4-30.6,27.9-57.4,73c-1.3,2.2-2.5,4.3-3.7,6.4c-16.1,28.2-18.8,40.5-22.4,56.9
			c-0.7,3.4-1.5,5.4-3.6,7.6c-1.5,1.5-3.6,3.1-7,5.1c-2.1,1.3-3.9,2.3-5.5,3.2c-4.6,2.5-7.1,3.1-10.1,2.7c-0.8-0.1-1.5-0.3-2.1-0.5
			c-2.2-0.8-2.7-2.8-4.9-9.3c-3-8.9-26.5-52.9-52.6-63c-7.1-2.7-6.9-7.6-3.7-10.1C75.1,168.8,80.7,164.9,86.4,162.1z"/>
		<path class="st40" d="M86.6,162.2c8.3-4,20-7,28.6,0.4c8.7,7.4,21.4,25.3,24.4,32.8c1.4,3.5,4.1,3.9,5.9-0.2
			c1.8-4,18.8-39.7,49.7-70.3c1.5-1.5,3.1-3,4.5-4.4c23.3-21.9,37.2-26.6,41-27.9c2.5-0.9,5.8,0,6.3,2.1c0.3,1.1-0.2,2.6-2.7,4.6
			c-6.8,5.4-30.7,27.9-57.3,72.8c-1.3,2.2-2.5,4.3-3.7,6.3c-16,28-18.9,40.5-22.5,56.7c-0.7,3.4-1.5,5.4-3.5,7.6
			c-1.5,1.6-3.5,3.2-6.8,5.2c-2.1,1.3-3.8,2.3-5.4,3.2c-4.6,2.5-7.1,3.2-10,2.8c-0.8-0.1-1.5-0.3-2.1-0.5c-2.1-0.8-2.6-2.7-4.9-9.3
			c-3.3-9.5-26.8-52.8-52.5-62.8c-6.9-2.7-6.9-7.4-3.7-10C75.3,168.9,80.8,165,86.6,162.2z"/>
		<path class="st41" d="M86.8,162.4c8.3-4,19.8-6.9,28.5,0.5s21.3,25.2,24.3,32.7c1.4,3.5,4.3,3.9,6-0.2c1.7-4,18.8-39.7,49.5-70.2
			c1.5-1.5,3-3,4.5-4.4c23-21.7,36.9-26.6,40.8-28c2.5-0.9,5.7-0.1,6.3,1.8c0.3,1,0.1,2.5-2.5,4.6c-6.7,5.4-30.8,28-57.3,72.5
			c-1.3,2.2-2.5,4.3-3.7,6.3c-16,27.9-18.9,40.4-22.5,56.5c-0.7,3.3-1.5,5.4-3.4,7.6c-1.4,1.7-3.4,3.3-6.6,5.3
			c-2,1.3-3.8,2.3-5.4,3.2c-4.7,2.6-7.1,3.2-10,2.8c-0.8-0.1-1.5-0.2-2.1-0.4c-2.1-0.7-2.5-2.7-4.8-9.3
			c-3.6-10.2-27.1-52.7-52.4-62.6c-6.8-2.7-6.8-7.2-3.7-9.8C75.5,169,81,165.2,86.8,162.4z"/>
		<path class="st42" d="M86.9,162.6c8.2-3.9,19.7-6.8,28.3,0.5s21.2,25.1,24.2,32.7c1.4,3.4,4.4,3.8,6.2-0.2
			c1.7-4,18.8-39.7,49.4-70c1.5-1.5,3-3,4.5-4.4c22.7-21.4,36.5-26.5,40.6-28.1c2.5-1,5.7-0.2,6.3,1.6c0.3,1,0.3,2.4-2.4,4.5
			c-6.7,5.3-30.8,28-57.2,72.2c-1.3,2.2-2.5,4.3-3.7,6.3c-15.9,27.8-19,40.3-22.6,56.3c-0.7,3.3-1.5,5.4-3.4,7.6
			c-1.4,1.7-3.3,3.4-6.5,5.4c-2,1.3-3.7,2.4-5.3,3.3c-4.7,2.6-7.1,3.3-9.9,2.9c-0.8-0.1-1.5-0.2-2.1-0.4c-2.1-0.7-2.4-2.7-4.8-9.3
			c-3.9-10.9-27.4-52.6-52.3-62.4c-6.7-2.6-6.8-7-3.6-9.6C75.8,169.1,81.2,165.3,86.9,162.6z"/>
		<path class="st43" d="M87.1,162.7c8.2-3.9,19.5-6.7,28.1,0.6s21,25,24.2,32.6c1.4,3.4,4.5,3.8,6.3-0.2c1.7-4,18.9-39.7,49.2-69.9
			c1.5-1.5,3-3,4.5-4.4c22.4-21.2,36.2-26.5,40.4-28.2c2.6-1,5.6-0.3,6.3,1.4c0.4,0.9,0.5,2.3-2.2,4.5c-6.7,5.3-30.9,28-57.2,71.9
			c-1.3,2.2-2.5,4.2-3.7,6.3c-15.9,27.6-19.1,40.3-22.7,56.1c-0.7,3.3-1.5,5.4-3.3,7.7c-1.4,1.8-3.2,3.5-6.3,5.5
			c-1.9,1.3-3.6,2.4-5.3,3.3c-4.7,2.7-7.1,3.3-9.9,3c-0.8-0.1-1.5-0.2-2.1-0.4c-2-0.6-2.4-2.6-4.8-9.3
			c-4.2-11.5-27.7-52.5-52.2-62.2c-6.5-2.6-6.7-6.9-3.6-9.4C76,169.1,81.4,165.4,87.1,162.7z"/>
		<path class="st44" d="M87.2,162.9c8.1-3.9,19.4-6.6,27.9,0.7c8.6,7.3,20.9,24.9,24.1,32.6c1.4,3.4,4.7,3.8,6.4-0.2
			s18.9-39.7,49.1-69.8c1.5-1.5,3-3,4.5-4.4c22.2-21,35.8-26.4,40.2-28.2c2.6-1,5.8-0.5,6.3,1.2c0.6,0.8,0.7,2.2-2,4.4
			c-6.6,5.3-31,28-57.1,71.7c-1.3,2.1-2.5,4.2-3.7,6.3c-15.8,27.5-19.2,40.2-22.8,55.9c-0.7,3.2-1.5,5.3-3.2,7.7
			c-1.4,1.9-3.1,3.6-6.1,5.6c-1.9,1.3-3.6,2.4-5.2,3.3c-4.7,2.7-7.1,3.4-9.8,3c-0.8-0.1-1.5-0.2-2.1-0.4c-2-0.6-2.3-2.6-4.8-9.3
			c-4.5-12.2-28.1-52.4-52.1-62c-6.4-2.5-6.7-6.7-3.6-9.2C76.2,169.2,81.5,165.6,87.2,162.9z"/>
		<path class="st45" d="M87.4,163c8-3.8,19.2-6.5,27.8,0.7s20.8,24.8,24,32.6c1.4,3.4,4.8,3.8,6.5-0.2c1.7-3.9,19-39.6,48.9-69.6
			c1.5-1.5,3-3,4.5-4.4c21.9-20.8,35.5-26.4,40.1-28.3c2.6-1.1,5.8-0.6,6.3,0.9c0.7,0.7,0.9,2.1-1.9,4.4
			c-6.6,5.3-31.1,28.1-57.1,71.4c-1.3,2.1-2.5,4.2-3.7,6.2c-15.8,27.4-19.2,40.1-22.8,55.7c-0.7,3.2-1.5,5.3-3.2,7.7
			c-1.4,1.9-3,3.7-6,5.7c-1.8,1.3-3.5,2.4-5.2,3.4c-4.8,2.8-7.2,3.4-9.8,3.1c-0.8-0.1-1.5-0.2-2.1-0.4c-1.9-0.6-2.3-2.6-4.8-9.3
			c-4.8-12.8-28.4-52.3-52-61.8c-6.2-2.5-6.6-6.5-3.6-9C76.4,169.3,81.7,165.7,87.4,163z"/>
		<path class="st46" d="M87.5,163.2c8-3.8,19.1-6.5,27.6,0.8s20.6,24.7,23.9,32.5c1.4,3.4,4.9,3.7,6.6-0.2
			c1.7-3.9,19-39.6,48.7-69.5c1.5-1.5,3-3,4.4-4.3c21.6-20.5,35.2-26.3,39.9-28.4c2.6-1.1,5.8-0.7,6.3,0.7c0.7,0.6,1.2,2-1.7,4.3
			c-6.5,5.2-31.1,28.1-57,71.1c-1.3,2.1-2.5,4.2-3.7,6.2c-15.7,27.3-19.3,40-22.9,55.5c-0.7,3.2-1.5,5.3-3.1,7.7
			c-1.3,2-3,3.8-5.8,5.8c-1.8,1.3-3.4,2.4-5.2,3.4c-4.8,2.8-7.2,3.5-9.7,3.2c-0.8-0.1-1.4-0.2-2.1-0.4c-1.9-0.5-2.2-2.6-4.8-9.3
			c-5.2-13.5-28.7-52.2-51.9-61.6c-6.1-2.5-6.6-6.3-3.6-8.8C76.6,169.4,81.9,165.8,87.5,163.2z"/>
		<path class="st47" d="M87.7,163.3c7.9-3.7,18.9-6.4,27.4,0.8s20.5,24.6,23.9,32.5c1.4,3.3,5.1,3.7,6.8-0.2s19-39.6,48.6-69.3
			c1.5-1.5,3-3,4.4-4.3c21.3-20.3,34.8-26.3,39.7-28.4c2.7-1.2,5.7-0.9,6.3,0.5c0.8,0.6,1.4,1.9-1.5,4.3
			c-6.5,5.2-31.2,28.1-56.9,70.9c-1.3,2.1-2.5,4.2-3.7,6.2c-15.7,27.1-19.4,40-23,55.3c-0.7,3.1-1.5,5.3-3,7.7
			c-1.3,2.1-2.9,3.9-5.6,5.9c-1.7,1.3-3.4,2.4-5.1,3.4c-4.8,2.9-7.2,3.5-9.7,3.2c-0.8-0.1-1.4-0.2-2.1-0.4c-1.9-0.5-2.1-2.5-4.7-9.2
			c-5.5-14.2-29-52-51.8-61.4c-6-2.4-6.5-6.1-3.6-8.6C76.9,169.5,82.1,166,87.7,163.3z"/>
		<path class="st48" d="M87.8,163.5c7.9-3.7,18.8-6.3,27.2,0.9s20.3,24.5,23.8,32.4c1.5,3.3,5.2,3.7,6.9-0.2s19.1-39.6,48.4-69.2
			c1.5-1.5,3-2.9,4.4-4.3c21-20.1,34.5-26.2,39.5-28.5c2.7-1.2,5.7-1,6.3,0.3c0.9,0.5,1.6,1.8-1.4,4.2c-6.5,5.2-31.3,28.2-56.9,70.6
			c-1.3,2.1-2.5,4.2-3.7,6.2c-15.6,27-19.5,39.9-23.1,55.1c-0.7,3.1-1.5,5.3-3,7.7c-1.3,2.1-2.8,4-5.5,6c-1.7,1.3-3.3,2.4-5.1,3.5
			c-4.9,2.9-7.2,3.6-9.6,3.3c-0.8-0.1-1.4-0.2-2.1-0.4c-1.8-0.5-2.1-2.5-4.7-9.2c-5.8-14.8-29.3-51.9-51.7-61.2
			c-5.8-2.4-6.5-5.9-3.6-8.4C77.1,169.5,82.2,166.1,87.8,163.5z"/>
		<path class="st49" d="M88,163.6c7.8-3.7,18.7-6.2,27.1,0.9s20.2,24.4,23.7,32.4c1.5,3.3,5.3,3.7,7-0.2c1.7-3.8,19.1-39.6,48.3-69
			c1.5-1.5,2.9-2.9,4.4-4.3c20.8-19.8,34.1-26.2,39.3-28.6c2.7-1.3,5.7-1.1,6.3,0c0.9,0.4,1.8,1.7-1.2,4.2
			c-6.4,5.2-31.4,28.2-56.8,70.3c-1.3,2.1-2.5,4.1-3.6,6.2c-15.6,26.9-19.6,39.8-23.1,54.9c-0.7,3.1-1.5,5.3-2.9,7.7
			c-1.3,2.2-2.7,4-5.3,6.1c-1.6,1.3-3.3,2.4-5,3.5c-4.9,3-7.2,3.6-9.6,3.4c-0.8-0.1-1.4-0.2-2.1-0.4c-1.8-0.4-2-2.5-4.7-9.2
			c-6.1-15.5-29.6-51.8-51.6-61c-5.7-2.4-6.4-5.7-3.6-8.2C77.3,169.6,82.4,166.2,88,163.6z"/>
		<path class="st50" d="M88.1,163.8c7.8-3.6,18.5-6.1,26.9,1s20.1,24.3,23.7,32.3c1.5,3.3,5.4,3.7,7.1-0.2
			c1.7-3.8,19.2-39.6,48.1-68.9c1.5-1.5,2.9-2.9,4.4-4.3c20.5-19.6,33.8-26.1,39.1-28.7c2.8-1.3,5.7-1.2,6.3-0.2
			c1,0.3,2.1,1.6-1.1,4.1c-6.4,5.1-31.4,28.2-56.8,70c-1.3,2.1-2.5,4.1-3.6,6.1c-15.5,26.7-19.6,39.8-23.2,54.7
			c-0.7,3-1.5,5.3-2.8,7.7c-1.2,2.3-2.6,4.1-5.1,6.2c-1.6,1.3-3.2,2.4-5,3.5c-4.9,3.1-7.2,3.7-9.5,3.4c-0.8-0.1-1.4-0.2-2.1-0.3
			c-1.8-0.4-2-2.4-4.7-9.2c-6.5-16.1-29.9-51.7-51.5-60.8c-5.6-2.3-6.4-5.5-3.6-8C77.5,169.7,82.6,166.4,88.1,163.8z"/>
		<path class="st51" d="M88.3,163.9c7.7-3.6,18.4-6,26.7,1.1s19.9,24.2,23.6,32.3c1.5,3.3,5.6,3.6,7.3-0.3
			c1.6-3.8,19.2-39.6,47.9-68.8c1.5-1.5,2.9-2.9,4.4-4.3c20.2-19.4,33.4-26.1,38.9-28.7c2.8-1.4,5.6-1.3,6.3-0.4
			c1.1,0.3,2.3,1.5-0.9,4.1c-6.3,5.1-31.5,28.2-56.7,69.8c-1.3,2.1-2.5,4.1-3.6,6.1c-15.5,26.6-19.7,39.7-23.3,54.5
			c-0.7,3-1.5,5.3-2.7,7.7s-2.5,4.2-5,6.3c-1.6,1.3-3.1,2.4-4.9,3.5c-5,3.1-7.2,3.7-9.5,3.5c-0.8-0.1-1.4-0.2-2.1-0.3
			c-1.7-0.4-1.9-2.4-4.7-9.2c-6.8-16.8-30.3-51.6-51.4-60.7c-5.4-2.3-6.3-5.3-3.6-7.8C77.7,169.8,82.8,166.5,88.3,163.9z"/>
		<path class="st52" d="M88.4,164.1c7.6-3.5,18.2-5.9,26.5,1.1s19.8,24.1,23.5,32.3c1.5,3.2,5.7,3.6,7.4-0.3
			c1.6-3.8,19.3-39.5,47.8-68.6c1.5-1.5,2.9-2.9,4.3-4.3c19.9-19.1,33.1-26,38.7-28.8c2.8-1.4,5.6-1.5,6.3-0.6
			c1.2,0.2,2.5,1.4-0.7,4c-6.3,5.1-31.6,28.3-56.7,69.5c-1.2,2.1-2.5,4.1-3.6,6.1c-15.4,26.5-19.8,39.6-23.4,54.3
			c-0.7,3-1.5,5.3-2.7,7.7s-2.4,4.3-4.8,6.4c-1.5,1.3-3.1,2.4-4.9,3.6c-5,3.2-7.2,3.8-9.4,3.6c-0.8-0.1-1.4-0.2-2-0.3
			c-1.7-0.4-1.8-2.4-4.6-9.2C123,223,99.6,189,78.8,180c-5.3-2.3-6.3-5.1-3.6-7.6C78,169.9,82.9,166.6,88.4,164.1z"/>
		<path class="st53" d="M88.6,164.3c7.6-3.5,18.1-5.9,26.3,1.2s19.6,24,23.4,32.2c1.5,3.2,5.8,3.6,7.5-0.3
			c1.6-3.8,19.3-39.5,47.6-68.5c1.4-1.5,2.9-2.9,4.3-4.3c19.6-18.9,32.8-26,38.5-28.9c2.9-1.4,5.6-1.6,6.3-0.9
			c1.2,0.1,2.7,1.3-0.6,4c-6.3,5.1-31.7,28.3-56.6,69.2c-1.2,2-2.5,4.1-3.6,6.1c-15.3,26.3-19.9,39.5-23.5,54.1
			c-0.7,2.9-1.5,5.3-2.6,7.7c-1.1,2.5-2.3,4.4-4.6,6.5c-1.5,1.3-3,2.4-4.9,3.6c-5,3.2-7.2,3.8-9.4,3.6c-0.8-0.1-1.4-0.2-2-0.3
			c-1.7-0.3-1.8-2.3-4.6-9.2c-7.5-18.1-30.9-51.4-51.2-60.3c-5.1-2.2-6.2-4.9-3.6-7.4C78.2,169.9,83.1,166.8,88.6,164.3z"/>
		<path class="st54" d="M88.7,164.4c7.5-3.5,17.9-5.8,26.2,1.2s19.5,23.9,23.4,32.2c1.5,3.2,6,3.6,7.6-0.3
			c1.6-3.7,19.3-39.5,47.5-68.3c1.4-1.5,2.9-2.9,4.3-4.3C217,106.2,230.1,99,236,96c2.9-1.5,5.6-1.7,6.3-1.1c1.3,0.1,3,1.2-0.4,3.9
			c-6.2,5-31.7,28.3-56.5,69c-1.2,2-2.4,4-3.6,6.1c-15.3,26.2-19.9,39.5-23.5,53.9c-0.7,2.9-1.5,5.2-2.5,7.8
			c-1.1,2.6-2.2,4.5-4.5,6.6c-1.4,1.3-3,2.4-4.8,3.6c-5,3.3-7.3,3.9-9.3,3.7c-0.7-0.1-1.4-0.2-2-0.3c-1.6-0.3-1.7-2.3-4.6-9.2
			c-7.8-18.7-31.2-51.2-51.1-60.1c-5-2.2-6.2-4.7-3.6-7.3C78.4,170,83.3,166.9,88.7,164.4z"/>
		<path class="st55" d="M88.9,164.6c7.5-3.4,17.8-5.7,26,1.3s19.4,23.9,23.3,32.1c1.5,3.2,6.1,3.6,7.8-0.3
			c1.6-3.7,19.4-39.5,47.3-68.2c1.4-1.5,2.9-2.9,4.3-4.3c19.1-18.4,32.1-25.9,38.1-29c2.9-1.5,5.5-1.8,6.3-1.3
			c1.4,0,3.2,1.1-0.2,3.9c-6.2,5-31.8,28.4-56.5,68.7c-1.2,2-2.4,4-3.6,6c-15.2,26.1-20,39.4-23.6,53.7c-0.7,2.9-1.4,5.2-2.5,7.8
			c-1.1,2.7-2.1,4.6-4.3,6.7c-1.4,1.3-2.9,2.4-4.8,3.7c-5.1,3.3-7.3,3.9-9.3,3.8c-0.7-0.1-1.4-0.2-2-0.3c-1.6-0.3-1.7-2.3-4.6-9.2
			c-8.1-19.4-31.5-51.1-51-59.9c-4.9-2.2-6.1-4.5-3.6-7.1C78.6,170.1,83.5,167,88.9,164.6z"/>
		<path class="st56" d="M89.1,164.7c7.4-3.4,17.6-5.6,25.8,1.4s19.2,23.8,23.2,32.1c1.5,3.2,6.2,3.5,7.9-0.3
			c1.6-3.7,19.4-39.5,47.1-68.1c1.4-1.5,2.8-2.9,4.3-4.3c18.8-18.2,31.7-25.8,38-29.1c3-1.6,5.5-2,6.3-1.5c1.4-0.1,3.4,1-0.1,3.8
			c-6.1,5-31.9,28.4-56.4,68.4c-1.2,2-2.4,4-3.6,6c-15.2,25.9-20.1,39.3-23.7,53.5c-0.7,2.8-1.4,5.2-2.4,7.8c-1,2.7-2,4.7-4.1,6.8
			c-1.3,1.3-2.8,2.4-4.7,3.7c-5.1,3.4-7.3,4-9.2,3.9c-0.7,0-1.4-0.2-2-0.3c-1.5-0.2-1.6-2.2-4.6-9.2c-8.5-20-31.8-51-50.9-59.7
			c-4.7-2.1-6.1-4.3-3.6-6.9C78.8,170.2,83.6,167.2,89.1,164.7z"/>
		<path class="st57" d="M89.2,164.9c7.3-3.3,17.5-5.5,25.6,1.4s19.1,23.7,23.1,32c1.5,3.2,6.4,3.5,8-0.3c1.6-3.7,19.5-39.5,47-67.9
			c1.4-1.5,2.8-2.9,4.3-4.3c18.5-18,31.4-25.8,37.8-29.2c3-1.6,5.5-2.1,6.3-1.8c1.5-0.2,3.6,0.9,0.1,3.8c-6.1,5-31.9,28.4-56.4,68.1
			c-1.2,2-2.4,4-3.6,6c-15.1,25.8-20.2,39.3-23.8,53.3c-0.7,2.8-1.4,5.2-2.3,7.8c-1,2.8-1.9,4.8-4,6.9c-1.3,1.3-2.8,2.4-4.7,3.7
			c-5.1,3.4-7.3,4-9.2,3.9c-0.7,0-1.3-0.2-2-0.3c-1.5-0.2-1.6-2.2-4.5-9.2c-8.8-20.7-32.1-50.9-50.8-59.5c-4.6-2.1-6-4.2-3.6-6.7
			C79.1,170.3,83.8,167.3,89.2,164.9z"/>
		<path class="st58" d="M89.4,165c7.3-3.3,17.3-5.4,25.5,1.5c8.1,6.9,18.9,23.6,23.1,32c1.5,3.1,6.5,3.5,8.1-0.3
			c1.6-3.6,19.5-39.5,46.8-67.8c1.4-1.5,2.8-2.9,4.2-4.3c18.2-17.7,31.1-25.7,37.6-29.2c3-1.6,5.5-2.2,6.4-2
			c1.6-0.2,3.8,0.8,0.2,3.7c-6.1,4.9-32,28.4-56.3,67.9c-1.2,2-2.4,4-3.6,6c-15.1,25.7-20.3,39.2-23.8,53.1
			c-0.7,2.8-1.4,5.2-2.2,7.8c-0.9,2.9-1.8,4.9-3.8,7c-1.2,1.3-2.7,2.4-4.6,3.7c-5.2,3.5-7.3,4.1-9.1,4c-0.7,0-1.3-0.2-2-0.3
			c-1.5-0.2-1.5-2.1-4.5-9.2c-9.2-21.3-32.5-50.8-50.7-59.3c-4.5-2.1-6-4-3.5-6.5C79.3,170.3,84,167.4,89.4,165z"/>
		<path class="st59" d="M89.5,165.2c7.2-3.3,17.2-5.4,25.3,1.5s18.8,23.5,23,32c1.5,3.1,6.6,3.5,8.3-0.3
			c1.6-3.6,19.5-39.5,46.7-67.6c1.4-1.5,2.8-2.9,4.2-4.3c18-17.5,30.7-25.6,37.4-29.3c3.1-1.7,5.5-1.9,6.4-2.2
			c1.6-0.5,4.1,0.7,0.4,3.7c-6,4.9-32.1,28.5-56.3,67.6c-1.2,2-2.4,4-3.6,6c-15,25.6-20.3,39.1-23.9,52.9c-0.7,2.7-1.4,5.2-2.2,7.8
			c-0.9,3-1.7,5-3.7,7.1c-1.2,1.3-2.6,2.4-4.6,3.8c-5.2,3.5-7.3,4.1-9.1,4.1c-0.7,0-1.3-0.2-2-0.2c-1.4-0.2-1.5-2.1-4.5-9.2
			c-9.5-22-32.8-50.7-50.6-59.1c-4.3-2-5.9-3.8-3.5-6.3C79.5,170.4,84.2,167.6,89.5,165.2z"/>
		<path class="st60" d="M89.7,165.3c7.2-3.2,17.1-5.3,25.1,1.6s18.6,23.4,22.9,31.9c1.5,3.1,6.8,3.5,8.4-0.3
			c1.6-3.6,19.6-39.4,46.5-67.5c1.4-1.5,2.8-2.9,4.2-4.3c17.7-17.3,30.4-25.6,37.2-29.4c3.1-1.7,5.4-2.3,6.4-2.4
			c1.8-0.2,4.3,0.6,0.6,3.6c-6,4.9-32.2,28.5-56.2,67.3c-1.2,2-2.4,3.9-3.6,5.9c-15,25.4-20.4,39-24,52.7c-0.7,2.7-1.4,5.2-2.1,7.8
			c-0.9,3-1.6,5.1-3.5,7.2c-1.1,1.3-2.6,2.4-4.6,3.8c-5.2,3.6-7.3,4.2-9,4.1c-0.7,0-1.3-0.2-2-0.2c-1.4-0.1-1.4-2.1-4.5-9.2
			c-9.9-22.6-33.1-50.6-50.5-58.9c-4.2-2-5.9-3.6-3.5-6.1C79.7,170.5,84.4,167.7,89.7,165.3z"/>
		<path class="st61" d="M89.8,165.5c7.1-3.2,16.9-5.2,24.9,1.6s18.5,23.3,22.9,31.9c1.6,3.1,6.9,3.4,8.5-0.3
			c1.6-3.6,19.6-39.4,46.3-67.3c1.4-1.4,2.8-2.9,4.2-4.3c17.4-17,30.1-25.5,37-29.5c3.1-1.8,5.4-2.5,6.4-2.7
			c1.8-0.3,4.5,0.5,0.7,3.6c-5.9,4.9-32.2,28.5-56.1,67.1c-1.2,1.9-2.4,3.9-3.6,5.9c-14.9,25.3-20.5,39-24.1,52.5
			c-0.7,2.7-1.4,5.2-2,7.8c-0.8,3.1-1.5,5.2-3.3,7.3c-1.1,1.2-2.5,2.5-4.5,3.8c-5.3,3.6-7.3,4.2-9,4.2c-0.7,0-1.3-0.2-2-0.2
			c-1.3-0.1-1.4-2-4.5-9.2c-10.2-23.3-33.4-50.5-50.4-58.7c-4-1.9-5.8-3.4-3.5-5.9C79.9,170.6,84.5,167.8,89.8,165.5z"/>
		<path class="st62" d="M90,165.6c7.1-3.1,16.8-5.1,24.8,1.7s18.4,23.2,22.8,31.8c1.6,3.1,7,3.4,8.6-0.3
			c1.5-3.6,19.7-39.4,46.2-67.2c1.4-1.4,2.8-2.9,4.2-4.3c17.1-16.8,29.7-25.5,36.8-29.5c3.2-1.8,5.4-2.6,6.4-2.9
			c1.9-0.5,4.7,0.3,0.9,3.5c-5.9,4.8-32.3,28.6-56.1,66.8c-1.2,1.9-2.4,3.9-3.6,5.9c-14.9,25.2-20.6,38.9-24.1,52.3
			c-0.7,2.6-1.3,5.2-2,7.8c-0.8,3.2-1.4,5.3-3.2,7.4c-1.1,1.2-2.5,2.5-4.5,3.9c-5.3,3.7-7.4,4.3-8.9,4.3c-0.7,0-1.3-0.2-2-0.2
			c-1.3-0.1-1.3-2-4.5-9.2C121.2,213.5,98,187,81.4,178.9c-3.9-1.9-5.8-3.2-3.5-5.7C80.2,170.7,84.7,168,90,165.6z"/>
		<path class="st63" d="M90.1,165.8c7-3.1,16.6-5,24.6,1.8s18.2,23.1,22.7,31.8c1.6,3,7.1,3.4,8.8-0.3c1.6-3.7,21.6-43.2,50.2-71.3
			c24.2-23.9,39.6-31.7,43-32.7c1.9-0.6,5,0.2,1,3.5c-6.2,5-35.1,31-59.6,72.4c-17.7,30-22.6,43.8-26.1,59.9
			c-1.1,5.2-2,7.6-7.4,11.4c-7.8,5.4-8.6,4.3-10.9,4.1c-1.3-0.1-1.2-2-4.4-9.2c-10.9-24.6-34-50.2-50.2-58.3c-3.8-1.9-5.7-3-3.5-5.5
			C80.4,170.7,84.9,168.1,90.1,165.8z"/>
	</g>
</g>
</svg>
