<?xml version="1.0" encoding="utf-8"?>
<!-- Generator: Adobe Illustrator 26.2.1, SVG Export Plug-In . SVG Version: 6.00 Build 0)  -->
<svg version="1.1" id="Layer_1" xmlns="http://www.w3.org/2000/svg" xmlns:xlink="http://www.w3.org/1999/xlink" x="0px" y="0px"
	 viewBox="0 0 288 288" style="enable-background:new 0 0 288 288;" xml:space="preserve">
<style type="text/css">
	.st0{fill:#670000;}
	.st1{fill:#690000;}
	.st2{fill:#6B0000;}
	.st3{fill:#6C0000;}
	.st4{fill:#6E0000;}
	.st5{fill:#700000;}
	.st6{fill:#710000;}
	.st7{fill:#730000;}
	.st8{fill:#750000;}
	.st9{fill:#760001;}
	.st10{fill:#780002;}
	.st11{fill:#790003;}
	.st12{fill:#7B0004;}
	.st13{fill:#7D0005;}
	.st14{fill:#7E0006;}
	.st15{fill:#800007;}
	.st16{fill:#810008;}
	.st17{fill:#830009;}
	.st18{fill:#85000A;}
	.st19{fill:#86000B;}
	.st20{fill:#88000C;}
	.st21{fill:#89000D;}
	.st22{fill:#8B010E;}
	.st23{fill:#8D020F;}
	.st24{fill:#8E0210;}
	.st25{fill:#900311;}
	.st26{fill:#920412;}
	.st27{fill:#930513;}
	.st28{fill:#950514;}
	.st29{fill:#970614;}
	.st30{fill:#980715;}
	.st31{fill:#9A0716;}
	.st32{fill:#9C0817;}
	.st33{fill:#9E0918;}
	.st34{fill:none;stroke:#670000;stroke-width:6.2841;stroke-miterlimit:10;}
	.st35{fill:none;stroke:#6D0000;stroke-width:5.7022;stroke-miterlimit:10;}
	.st36{fill:none;stroke:#730000;stroke-width:5.1203;stroke-miterlimit:10;}
	.st37{fill:none;stroke:#790003;stroke-width:4.5385;stroke-miterlimit:10;}
	.st38{fill:none;stroke:#7F0007;stroke-width:3.9566;stroke-miterlimit:10;}
	.st39{fill:none;stroke:#85000B;stroke-width:3.3748;stroke-miterlimit:10;}
	.st40{fill:none;stroke:#8B010E;stroke-width:2.7929;stroke-miterlimit:10;}
	.st41{fill:none;stroke:#910412;stroke-width:2.2111;stroke-miterlimit:10;}
	.st42{fill:none;stroke:#970615;stroke-width:1.6292;stroke-miterlimit:10;}
	.st43{fill:none;stroke:#9E0918;stroke-width:1.0473;stroke-miterlimit:10;}
	.st44{fill:#926B00;}
	.st45{fill:#9A7101;}
	.st46{fill:#A27703;}
	.st47{fill:#A97D06;}
	.st48{fill:#B28309;}
	.st49{fill:#BA890B;}
	.st50{fill:#C28F0D;}
	.st51{fill:#CA950F;}
	.st52{fill:#D39B10;}
	.st53{fill:#DBA111;}
	.st54{fill:#850B2C;}
	.st55{fill:#860B2C;}
	.st56{fill:#870B2B;}
	.st57{fill:#870B2A;}
	.st58{fill:#880B2A;}
	.st59{fill:#890B29;}
	.st60{fill:#8A0B28;}
	.st61{fill:#8B0B27;}
	.st62{fill:#8C0B27;}
	.st63{fill:#8C0B26;}
	.st64{fill:#8D0B26;}
	.st65{fill:#8E0A25;}
	.st66{fill:#8E0A24;}
	.st67{fill:#8F0A24;}
	.st68{fill:#900A23;}
	.st69{fill:#900A22;}
	.st70{fill:#910A22;}
	.st71{fill:#920A21;}
	.st72{fill:#930A21;}
	.st73{fill:#930A20;}
	.st74{fill:#940A1F;}
	.st75{fill:#950A1F;}
	.st76{fill:#950A1E;}
	.st77{fill:#960A1D;}
	.st78{fill:#970A1D;}
	.st79{fill:#97091C;}
	.st80{fill:#98091B;}
	.st81{fill:#99091B;}
	.st82{fill:#99091A;}
	.st83{fill:#9A0919;}
	.st84{fill:#9B0919;}
	.st85{fill:#9C0918;}
	.st86{fill:#FFFFFF;}
	.st87{fill:#7E5800;}
	.st88{fill:url(#SVGID_1_);}
	.st89{filter:url(#Adobe_OpacityMaskFilter);}
	.st90{opacity:0.25;mask:url(#SVGID_00000002347927582930508920000015336414039468263563_);}
	.st91{fill:url(#SVGID_00000062905689363883874670000001582743119667785903_);}
	.st92{filter:url(#Adobe_OpacityMaskFilter_00000039096282155542936590000008168052435009716921_);}
	.st93{opacity:0.25;mask:url(#SVGID_00000036964813303857217270000008927199341039100082_);}
	.st94{fill:url(#SVGID_00000101096354169810174880000017097775545070264742_);}
	.st95{filter:url(#Adobe_OpacityMaskFilter_00000065065689939225231960000006835895313823614877_);}
	.st96{opacity:0.25;mask:url(#SVGID_00000163777238293907132040000009734060206672968079_);}
	.st97{fill:url(#SVGID_00000112593973728852470480000010991291898927257769_);}
	.st98{filter:url(#Adobe_OpacityMaskFilter_00000145023117376179626380000005336550452659899009_);}
	.st99{opacity:0.25;mask:url(#SVGID_00000074401917764013633480000002550319173695346065_);}
	.st100{fill:url(#SVGID_00000160176104803969900290000012175631282679305874_);}
	.st101{filter:url(#Adobe_OpacityMaskFilter_00000151530521687344974000000012347916946210031024_);}
	.st102{opacity:0.25;mask:url(#SVGID_00000004507251548259892710000013438866117572546995_);}
	.st103{fill:url(#SVGID_00000129925694470289735130000010393022736972294794_);}
	.st104{filter:url(#Adobe_OpacityMaskFilter_00000183934610270256750670000011992033374635238041_);}
	.st105{opacity:0.25;mask:url(#SVGID_00000114752915855000934820000011795393219866188957_);}
</style>
<g id="Center">
	<g>
		<circle class="st0" cx="144" cy="144" r="110.8"/>
		<circle class="st1" cx="143.4" cy="143.4" r="108"/>
		<circle class="st2" cx="142.8" cy="142.8" r="105.2"/>
		<circle class="st3" cx="142.3" cy="142.2" r="102.4"/>
		<circle class="st4" cx="141.7" cy="141.6" r="99.6"/>
		<circle class="st5" cx="141.1" cy="141.1" r="96.8"/>
		<circle class="st6" cx="140.5" cy="140.5" r="94"/>
		<circle class="st7" cx="139.9" cy="139.9" r="91.3"/>
		<circle class="st8" cx="139.3" cy="139.3" r="88.5"/>
		<circle class="st9" cx="138.8" cy="138.7" r="85.7"/>
		<circle class="st10" cx="138.2" cy="138.1" r="82.9"/>
		<circle class="st11" cx="137.6" cy="137.5" r="80.1"/>
		<circle class="st12" cx="137" cy="136.9" r="77.3"/>
		<circle class="st13" cx="136.4" cy="136.3" r="74.6"/>
		<circle class="st14" cx="135.8" cy="135.7" r="71.8"/>
		<circle class="st15" cx="135.3" cy="135.2" r="69"/>
		<circle class="st16" cx="134.7" cy="134.6" r="66.2"/>
		<circle class="st17" cx="134.1" cy="134" r="63.4"/>
		<circle class="st18" cx="133.5" cy="133.4" r="60.6"/>
		<circle class="st19" cx="132.9" cy="132.8" r="57.8"/>
		<circle class="st20" cx="132.3" cy="132.2" r="55.1"/>
		<circle class="st21" cx="131.8" cy="131.6" r="52.3"/>
		<circle class="st22" cx="131.2" cy="131" r="49.5"/>
		<circle class="st23" cx="130.6" cy="130.4" r="46.7"/>
		<circle class="st24" cx="130" cy="129.9" r="43.9"/>
		
			<ellipse transform="matrix(8.248051e-02 -0.9966 0.9966 8.248051e-02 -10.1324 247.5944)" class="st25" cx="129.4" cy="129.3" rx="41.1" ry="41.1"/>
		<circle class="st26" cx="128.9" cy="128.7" r="38.3"/>
		
			<ellipse transform="matrix(8.248055e-02 -0.9966 0.9966 8.248055e-02 -9.9458 245.3971)" class="st27" cx="128.3" cy="128.1" rx="35.6" ry="35.6"/>
		<circle class="st28" cx="127.7" cy="127.5" r="32.8"/>
		
			<ellipse transform="matrix(8.248051e-02 -0.9966 0.9966 8.248051e-02 -9.8509 243.1002)" class="st29" cx="127.1" cy="126.9" rx="30" ry="30"/>
		<circle class="st30" cx="126.5" cy="126.3" r="27.2"/>
		<circle class="st31" cx="125.9" cy="125.7" r="24.4"/>
		<circle class="st32" cx="125.4" cy="125.1" r="21.6"/>
		<circle class="st33" cx="124.8" cy="124.5" r="18.9"/>
	</g>
	<g>
		<path class="st34" d="M144,33.2C82.8,33.2,33.2,82.8,33.2,144S82.8,254.8,144,254.8S254.8,205.2,254.8,144S205.2,33.2,144,33.2z"
			/>
		<path class="st35" d="M143.9,33.1c-61.2,0-110.8,49.6-110.8,110.8s49.6,110.8,110.8,110.8s110.8-49.6,110.8-110.8
			S205.1,33.1,143.9,33.1z"/>
		<path class="st36" d="M143.8,33C82.6,33,33,82.6,33,143.8s49.6,110.8,110.8,110.8S254.6,205,254.6,143.8S204.9,33,143.8,33z"/>
		<path class="st37" d="M143.7,32.9c-61.2,0-110.8,49.6-110.8,110.8s49.6,110.8,110.8,110.8s110.8-49.6,110.8-110.8
			S204.8,32.9,143.7,32.9z"/>
		<path class="st38" d="M143.6,32.8c-61.2,0-110.8,49.6-110.8,110.8s49.6,110.8,110.8,110.8s110.8-49.6,110.8-110.8
			S204.7,32.8,143.6,32.8z"/>
		<path class="st39" d="M143.4,32.7c-61.2,0-110.8,49.6-110.8,110.8s49.6,110.8,110.8,110.8s110.8-49.6,110.8-110.8
			S204.6,32.7,143.4,32.7z"/>
		<path class="st40" d="M143.3,32.6c-61.2,0-110.8,49.6-110.8,110.8s49.6,110.8,110.8,110.8s110.8-49.6,110.8-110.8
			S204.5,32.6,143.3,32.6z"/>
		<path class="st41" d="M143.2,32.5C82,32.5,32.5,82,32.5,143.2S82,254,143.2,254S254,204.4,254,143.2S204.4,32.5,143.2,32.5z"/>
		<path class="st42" d="M143.1,32.3c-61.2,0-110.8,49.6-110.8,110.8s49.6,110.8,110.8,110.8s110.8-49.6,110.8-110.8
			S204.3,32.3,143.1,32.3z"/>
		<path class="st43" d="M143,32.2C81.8,32.2,32.2,81.8,32.2,143S81.8,253.7,143,253.7S253.7,204.2,253.7,143S204.2,32.2,143,32.2z"
			/>
	</g>
</g>
<g id="Guides">
</g>
<g id="Logo">
	<g>
		<path class="st44" d="M270.1,163.9l13.5-13.5c3.6-3.6,3.6-9.3,0-12.9L270.1,124c-2.6-2.6-3.4-6.5-2-9.9l7.3-17.6
			c1.9-4.7-0.3-10-4.9-11.9l-17.6-7.3c-3.4-1.4-5.6-4.7-5.6-8.4v-19c0-5-4.1-9.1-9.1-9.1h-19c-3.7,0-7-2.2-8.4-5.6l-7.3-17.6
			c-1.9-4.7-7.3-6.9-11.9-4.9L174,20c-3.4,1.4-7.3,0.6-9.9-2L150.5,4.5c-3.6-3.6-9.3-3.6-12.9,0L124.1,18c-2.6,2.6-6.5,3.4-9.9,2
			l-17.6-7.3c-4.7-1.9-10,0.3-11.9,4.9l-7.3,17.6c-1.4,3.4-4.7,5.6-8.4,5.6H50c-5,0-9.1,4.1-9.1,9.1v19c0,3.7-2.2,7-5.6,8.4
			l-17.6,7.3c-4.7,1.9-6.9,7.3-4.9,11.9l7.3,17.6c1.4,3.4,0.6,7.3-2,9.9L4.5,137.5c-3.6,3.6-3.6,9.3,0,12.9L18,163.9
			c2.6,2.6,3.4,6.5,2,9.9l-7.3,17.6c-1.9,4.7,0.3,10,4.9,11.9l17.6,7.3c3.4,1.4,5.6,4.7,5.6,8.4v19c0,5,4.1,9.1,9.1,9.1h19
			c3.7,0,7,2.2,8.4,5.6l7.3,17.6c1.9,4.7,7.3,6.9,11.9,4.9l17.6-7.3c3.4-1.4,7.3-0.6,9.9,2l13.5,13.5c3.6,3.6,9.3,3.6,12.9,0
			l13.5-13.5c2.6-2.6,6.5-3.4,9.9-2l17.6,7.3c4.7,1.9,10-0.3,11.9-4.9l7.3-17.6c1.4-3.4,4.7-5.6,8.4-5.6h19c5,0,9.1-4.1,9.1-9.1v-19
			c0-3.7,2.2-7,5.6-8.4l17.6-7.3c4.7-1.9,6.9-7.3,4.9-11.9l-7.3-17.6C266.7,170.4,267.5,166.5,270.1,163.9z"/>
		<path class="st45" d="M282.9,137.6l-13.4-13.4c-2.6-2.6-3.4-6.5-2-9.9l7.3-17.5c1.9-4.6-0.3-10-4.9-11.9l-17.5-7.3
			c-3.4-1.4-5.6-4.7-5.6-8.4v-19c0-5-4.1-9.1-9.1-9.1h-19c-3.7,0-7-2.2-8.4-5.6L203,18c-1.9-4.6-7.2-6.8-11.9-4.9l-17.5,7.3
			c-3.4,1.4-7.3,0.6-9.9-2L150.4,5.1c-3.5-3.5-9.3-3.5-12.8,0l-13.4,13.4c-2.6,2.6-6.5,3.4-9.9,2l-17.5-7.3
			c-4.6-1.9-10,0.3-11.9,4.9l-7.3,17.5c-1.4,3.4-4.7,5.6-8.4,5.6h-19c-5,0-9.1,4.1-9.1,9.1v19c0,3.7-2.2,7-5.6,8.4L18,85
			c-4.6,1.9-6.8,7.2-4.9,11.9l7.3,17.5c1.4,3.4,0.6,7.3-2,9.9L5.1,137.6c-3.5,3.5-3.5,9.3,0,12.8l13.4,13.4c2.6,2.6,3.4,6.5,2,9.9
			l-7.3,17.5c-1.9,4.6,0.3,10,4.9,11.9l17.5,7.3c3.4,1.4,5.6,4.7,5.6,8.4v19c0,5,4.1,9.1,9.1,9.1h19c3.7,0,7,2.2,8.4,5.6L85,270
			c1.9,4.6,7.2,6.8,11.9,4.9l17.5-7.3c3.4-1.4,7.3-0.6,9.9,2l13.4,13.4c3.5,3.5,9.3,3.5,12.8,0l13.4-13.4c2.6-2.6,6.5-3.4,9.9-2
			l17.5,7.3c4.6,1.9,10-0.3,11.9-4.9l7.3-17.5c1.4-3.4,4.7-5.6,8.4-5.6h19c5,0,9.1-4.1,9.1-9.1v-19c0-3.7,2.2-7,5.6-8.4l17.5-7.3
			c4.6-1.9,6.8-7.2,4.9-11.9l-7.3-17.5c-1.4-3.4-0.6-7.3,2-9.9l13.4-13.4C286.5,146.9,286.5,141.1,282.9,137.6z"/>
		<path class="st46" d="M282.4,137.6L269,124.3c-2.6-2.6-3.4-6.5-2-9.9l7.2-17.4c1.9-4.6-0.3-9.9-4.9-11.8L251.9,78
			c-3.4-1.4-5.6-4.7-5.6-8.4V50.7c0-5-4.1-9-9-9h-18.9c-3.7,0-7-2.2-8.4-5.6l-7.2-17.4c-1.9-4.6-7.2-6.8-11.8-4.9L173.6,21
			c-3.4,1.4-7.3,0.6-9.9-2L150.4,5.6c-3.5-3.5-9.3-3.5-12.8,0L124.3,19c-2.6,2.6-6.5,3.4-9.9,2L97,13.7c-4.6-1.9-9.9,0.3-11.8,4.9
			L78,36c-1.4,3.4-4.7,5.6-8.4,5.6H50.7c-5,0-9,4.1-9,9v18.9c0,3.7-2.2,7-5.6,8.4l-17.4,7.2c-4.6,1.9-6.8,7.2-4.9,11.8l7.2,17.4
			c1.4,3.4,0.6,7.3-2,9.9L5.6,137.6c-3.5,3.5-3.5,9.3,0,12.8L19,163.7c2.6,2.6,3.4,6.5,2,9.9L13.7,191c-1.9,4.6,0.3,9.9,4.9,11.8
			L36,210c3.4,1.4,5.6,4.7,5.6,8.4v18.9c0,5,4.1,9,9,9h18.9c3.7,0,7,2.2,8.4,5.6l7.2,17.4c1.9,4.6,7.2,6.8,11.8,4.9l17.4-7.2
			c3.4-1.4,7.3-0.6,9.9,2l13.3,13.3c3.5,3.5,9.3,3.5,12.8,0l13.3-13.3c2.6-2.6,6.5-3.4,9.9-2l17.4,7.2c4.6,1.9,9.9-0.3,11.8-4.9
			l7.2-17.4c1.4-3.4,4.7-5.6,8.4-5.6h18.9c5,0,9-4.1,9-9v-18.9c0-3.7,2.2-7,5.6-8.4l17.4-7.2c4.6-1.9,6.8-7.2,4.9-11.8l-7.2-17.4
			c-1.4-3.4-0.6-7.3,2-9.9l13.3-13.3C285.9,146.9,285.9,141.1,282.4,137.6z"/>
		<path class="st47" d="M281.8,137.6l-13.3-13.3c-2.6-2.6-3.3-6.5-2-9.8l7.2-17.4c1.9-4.6-0.3-9.9-4.9-11.8l-17.4-7.2
			c-3.4-1.4-5.6-4.7-5.6-8.3V51.1c0-5-4-9-9-9H218c-3.6,0-6.9-2.2-8.3-5.6l-7.2-17.4c-1.9-4.6-7.2-6.8-11.8-4.9l-17.4,7.2
			c-3.4,1.4-7.2,0.6-9.8-2L150.4,6.2c-3.5-3.5-9.2-3.5-12.7,0l-13.3,13.3c-2.6,2.6-6.5,3.3-9.8,2l-17.4-7.2
			c-4.6-1.9-9.9,0.3-11.8,4.9l-7.2,17.4c-1.4,3.4-4.7,5.6-8.3,5.6H51.1c-5,0-9,4-9,9V70c0,3.6-2.2,6.9-5.6,8.3l-17.4,7.2
			c-4.6,1.9-6.8,7.2-4.9,11.8l7.2,17.4c1.4,3.4,0.6,7.2-2,9.8L6.2,137.6c-3.5,3.5-3.5,9.2,0,12.7l13.3,13.3c2.6,2.6,3.3,6.5,2,9.8
			l-7.2,17.4c-1.9,4.6,0.3,9.9,4.9,11.8l17.4,7.2c3.4,1.4,5.6,4.7,5.6,8.3v18.8c0,5,4,9,9,9H70c3.6,0,6.9,2.2,8.3,5.6l7.2,17.4
			c1.9,4.6,7.2,6.8,11.8,4.9l17.4-7.2c3.4-1.4,7.2-0.6,9.8,2l13.3,13.3c3.5,3.5,9.2,3.5,12.7,0l13.3-13.3c2.6-2.6,6.5-3.3,9.8-2
			l17.4,7.2c4.6,1.9,9.9-0.3,11.8-4.9l7.2-17.4c1.4-3.4,4.7-5.6,8.3-5.6h18.8c5,0,9-4,9-9v-18.8c0-3.6,2.2-6.9,5.6-8.3l17.4-7.2
			c4.6-1.9,6.8-7.2,4.9-11.8l-7.2-17.4c-1.4-3.4-0.6-7.2,2-9.8l13.3-13.3C285.3,146.9,285.3,141.1,281.8,137.6z"/>
		<path class="st48" d="M281.2,137.7L268,124.4c-2.6-2.6-3.3-6.4-1.9-9.8l7.2-17.3c1.9-4.6-0.3-9.8-4.9-11.7L251,78.5
			c-3.4-1.4-5.5-4.7-5.5-8.3V51.5c0-5-4-9-9-9h-18.7c-3.6,0-6.9-2.2-8.3-5.5l-7.2-17.3c-1.9-4.6-7.1-6.8-11.7-4.9L173.4,22
			c-3.4,1.4-7.2,0.6-9.8-1.9L150.3,6.8c-3.5-3.5-9.2-3.5-12.7,0L124.4,20c-2.6,2.6-6.4,3.3-9.8,1.9l-17.3-7.2
			c-4.6-1.9-9.8,0.3-11.7,4.9L78.5,37c-1.4,3.4-4.7,5.5-8.3,5.5H51.5c-5,0-9,4-9,9v18.7c0,3.6-2.2,6.9-5.5,8.3l-17.3,7.2
			c-4.6,1.9-6.8,7.1-4.9,11.7l7.2,17.3c1.4,3.4,0.6,7.2-1.9,9.8L6.8,137.7c-3.5,3.5-3.5,9.2,0,12.7L20,163.6
			c2.6,2.6,3.3,6.4,1.9,9.8l-7.2,17.3c-1.9,4.6,0.3,9.8,4.9,11.7l17.3,7.2c3.4,1.4,5.5,4.7,5.5,8.3v18.7c0,5,4,9,9,9h18.7
			c3.6,0,6.9,2.2,8.3,5.5l7.2,17.3c1.9,4.6,7.1,6.8,11.7,4.9l17.3-7.2c3.4-1.4,7.2-0.6,9.8,1.9l13.2,13.2c3.5,3.5,9.2,3.5,12.7,0
			l13.2-13.2c2.6-2.6,6.4-3.3,9.8-1.9l17.3,7.2c4.6,1.9,9.8-0.3,11.7-4.9l7.2-17.3c1.4-3.4,4.7-5.5,8.3-5.5h18.7c5,0,9-4,9-9v-18.7
			c0-3.6,2.2-6.9,5.5-8.3l17.3-7.2c4.6-1.9,6.8-7.1,4.9-11.7l-7.2-17.3c-1.4-3.4-0.6-7.2,1.9-9.8l13.2-13.2
			C284.7,146.8,284.7,141.2,281.2,137.7z"/>
		<path class="st49" d="M280.6,137.7l-13.2-13.2c-2.6-2.6-3.3-6.4-1.9-9.7l7.1-17.2c1.9-4.6-0.3-9.8-4.8-11.7l-17.2-7.1
			c-3.3-1.4-5.5-4.6-5.5-8.3V51.9c0-4.9-4-8.9-8.9-8.9h-18.6c-3.6,0-6.9-2.2-8.3-5.5l-7.1-17.2c-1.9-4.6-7.1-6.7-11.7-4.8l-17.2,7.1
			c-3.3,1.4-7.2,0.6-9.7-1.9L150.3,7.4c-3.5-3.5-9.1-3.5-12.6,0l-13.2,13.2c-2.6,2.6-6.4,3.3-9.7,1.9l-17.2-7.1
			c-4.6-1.9-9.8,0.3-11.7,4.8l-7.1,17.2c-1.4,3.3-4.6,5.5-8.3,5.5H51.9c-4.9,0-8.9,4-8.9,8.9v18.6c0,3.6-2.2,6.9-5.5,8.3l-17.2,7.1
			c-4.6,1.9-6.7,7.1-4.8,11.7l7.1,17.2c1.4,3.3,0.6,7.2-1.9,9.7L7.4,137.7c-3.5,3.5-3.5,9.1,0,12.6l13.2,13.2
			c2.6,2.6,3.3,6.4,1.9,9.7l-7.1,17.2c-1.9,4.6,0.3,9.8,4.8,11.7l17.2,7.1c3.3,1.4,5.5,4.6,5.5,8.3v18.6c0,4.9,4,8.9,8.9,8.9h18.6
			c3.6,0,6.9,2.2,8.3,5.5l7.1,17.2c1.9,4.6,7.1,6.7,11.7,4.8l17.2-7.1c3.3-1.4,7.2-0.6,9.7,1.9l13.2,13.2c3.5,3.5,9.1,3.5,12.6,0
			l13.2-13.2c2.6-2.6,6.4-3.3,9.7-1.9l17.2,7.1c4.6,1.9,9.8-0.3,11.7-4.8l7.1-17.2c1.4-3.3,4.6-5.5,8.3-5.5H236c4.9,0,8.9-4,8.9-8.9
			v-18.6c0-3.6,2.2-6.9,5.5-8.3l17.2-7.1c4.6-1.9,6.7-7.1,4.8-11.7l-7.1-17.2c-1.4-3.3-0.6-7.2,1.9-9.7l13.2-13.2
			C284.1,146.8,284.1,141.2,280.6,137.7z"/>
		<path class="st50" d="M280,137.7l-13.1-13.1c-2.5-2.5-3.3-6.4-1.9-9.7l7.1-17.1c1.9-4.5-0.3-9.7-4.8-11.6L250.1,79
			c-3.3-1.4-5.5-4.6-5.5-8.2V52.3c0-4.9-4-8.9-8.9-8.9h-18.6c-3.6,0-6.8-2.2-8.2-5.5l-7.1-17.1c-1.9-4.5-7.1-6.7-11.6-4.8l-17.1,7
			c-3.3,1.4-7.1,0.6-9.7-1.9L150.3,8c-3.5-3.5-9.1-3.5-12.6,0l-13.1,13.1c-2.5,2.5-6.4,3.3-9.7,1.9l-17.1-7.1
			c-4.5-1.9-9.7,0.3-11.6,4.8L79,37.9c-1.4,3.3-4.6,5.5-8.2,5.5H52.3c-4.9,0-8.9,4-8.9,8.9v18.6c0,3.6-2.2,6.8-5.5,8.2l-17.1,7.1
			c-4.5,1.9-6.7,7.1-4.8,11.6l7.1,17.1c1.4,3.3,0.6,7.1-1.9,9.7L8,137.7c-3.5,3.5-3.5,9.1,0,12.6l13.1,13.1c2.5,2.5,3.3,6.4,1.9,9.7
			l-7.1,17.1c-1.9,4.5,0.3,9.7,4.8,11.6l17.1,7.1c3.3,1.4,5.5,4.6,5.5,8.2v18.6c0,4.9,4,8.9,8.9,8.9h18.6c3.6,0,6.8,2.2,8.2,5.5
			l7.1,17.1c1.9,4.5,7.1,6.7,11.6,4.8l17.1-7.1c3.3-1.4,7.1-0.6,9.7,1.9l13.1,13.1c3.5,3.5,9.1,3.5,12.6,0l13.1-13.1
			c2.5-2.5,6.4-3.3,9.7-1.9l17.1,7.1c4.5,1.9,9.7-0.3,11.6-4.8l7.1-17.1c1.4-3.3,4.6-5.5,8.2-5.5h18.6c4.9,0,8.9-4,8.9-8.9v-18.6
			c0-3.6,2.2-6.8,5.5-8.2l17.1-7.1c4.5-1.9,6.7-7.1,4.8-11.6l-7.1-17.1c-1.4-3.3-0.6-7.1,1.9-9.7l13.1-13.1
			C283.5,146.8,283.5,141.2,280,137.7z"/>
		<path class="st51" d="M279.4,137.7l-13.1-13.1c-2.5-2.5-3.3-6.3-1.9-9.7l7.1-17.1c1.9-4.5-0.3-9.7-4.8-11.6l-17.1-7.1
			c-3.3-1.4-5.5-4.6-5.5-8.2V52.7c0-4.9-4-8.9-8.9-8.9h-18.5c-3.6,0-6.8-2.2-8.2-5.5l-7.1-17.1c-1.9-4.5-7.1-6.7-11.6-4.8L173,23.5
			c-3.3,1.4-7.1,0.6-9.7-1.9l-13-13c-3.5-3.5-9.1-3.5-12.5,0l-13.1,13.1c-2.5,2.5-6.3,3.3-9.7,1.9l-17-7.1
			c-4.5-1.9-9.7,0.3-11.6,4.8l-7.1,17.1c-1.4,3.3-4.6,5.5-8.2,5.5H52.7c-4.9,0-8.9,4-8.9,8.9v18.5c0,3.6-2.2,6.8-5.5,8.2l-17.1,7.1
			c-4.5,1.9-6.7,7.1-4.8,11.6l7.1,17.1c1.4,3.3,0.6,7.1-1.9,9.7l-13,12.7c-3.5,3.5-3.5,9.1,0,12.5l13.1,13.1
			c2.5,2.5,3.3,6.3,1.9,9.7l-7.1,17c-1.9,4.5,0.3,9.7,4.8,11.6l17.1,7.1c3.3,1.4,5.5,4.6,5.5,8.2v18.5c0,4.9,4,8.9,8.9,8.9h18.5
			c3.6,0,6.8,2.2,8.2,5.5l7.1,17.1c1.9,4.5,7.1,6.7,11.6,4.8l17.1-7.1c3.3-1.4,7.1-0.6,9.7,1.9l13.1,13.1c3.5,3.5,9.1,3.5,12.5,0
			l13.1-13.1c2.5-2.5,6.3-3.3,9.7-1.9l17.1,7.1c4.5,1.9,9.7-0.3,11.6-4.8l7.1-17.1c1.4-3.3,4.6-5.5,8.2-5.5h18.5
			c4.9,0,8.9-4,8.9-8.9v-18.5c0-3.6,2.2-6.8,5.5-8.2l17.1-7.1c4.5-1.9,6.7-7.1,4.8-11.6l-7.1-17.1c-1.4-3.3-0.6-7.1,1.9-9.7
			l13.1-13.1C282.9,146.8,282.9,141.2,279.4,137.7z"/>
		<path class="st52" d="M278.9,137.8l-13-13c-2.5-2.5-3.3-6.3-1.9-9.6l7-17c1.9-4.5-0.3-9.7-4.8-11.5l-17-7
			c-3.3-1.4-5.4-4.6-5.4-8.1V53c0-4.9-3.9-8.8-8.8-8.8h-18.4c-3.6,0-6.8-2.1-8.1-5.4l-7-17c-1.9-4.5-7-6.6-11.5-4.8l-17,7
			c-3.3,1.4-7.1,0.6-9.6-1.9l-13-13c-3.4-3.4-9-3.4-12.5,0l-13,13c-2.5,2.5-6.3,3.3-9.6,1.9l-17-7c-4.5-1.9-9.7,0.3-11.5,4.8l-7,17
			c-1.4,3.3-4.6,5.4-8.1,5.4H53c-4.9,0-8.8,3.9-8.8,8.8v18.4c0,3.6-2.1,6.8-5.4,8.1l-17,7c-4.5,1.9-6.6,7-4.8,11.5l7,17
			c1.4,3.3,0.6,7.1-1.9,9.6l-13,13c-3.4,3.4-3.4,9,0,12.5l13,13c2.5,2.5,3.3,6.3,1.9,9.6l-7,17c-1.9,4.5,0.3,9.7,4.8,11.5l17,7
			c3.3,1.4,5.4,4.6,5.4,8.1V235c0,4.9,3.9,8.8,8.8,8.8h18.4c3.6,0,6.8,2.1,8.1,5.4l7,17c1.9,4.5,7,6.6,11.5,4.8l17-7
			c3.3-1.4,7.1-0.6,9.6,1.9l13,13c3.4,3.4,9,3.4,12.5,0l13-13c2.5-2.5,6.3-3.3,9.6-1.9l17,7c4.5,1.9,9.7-0.3,11.5-4.8l7-17
			c1.4-3.3,4.6-5.4,8.1-5.4H235c4.9,0,8.8-3.9,8.8-8.8v-18.4c0-3.6,2.1-6.8,5.4-8.1l17-7c4.5-1.9,6.6-7,4.8-11.5l-7-17
			c-1.4-3.3-0.6-7.1,1.9-9.6l13-13C282.3,146.8,282.3,141.2,278.9,137.8z"/>
		<path class="st53" d="M265.3,163.2l13-13c3.4-3.4,3.4-9,0-12.4l-13-13c-2.5-2.5-3.3-6.3-1.9-9.6l7-16.9c1.9-4.5-0.3-9.6-4.8-11.5
			l-16.9-7c-3.3-1.4-5.4-4.6-5.4-8.1V53.4c0-4.8-3.9-8.8-8.8-8.8h-18.3c-3.6,0-6.8-2.1-8.1-5.4l-7-16.9c-1.9-4.5-7-6.6-11.5-4.8
			l-16.9,7c-3.3,1.4-7.1,0.6-9.6-1.9l-13-13c-3.4-3.4-9-3.4-12.4,0l-13,13c-2.5,2.5-6.3,3.3-9.6,1.9l-16.9-7
			c-4.5-1.9-9.6,0.3-11.5,4.8l-7,16.9c-1.4,3.3-4.6,5.4-8.1,5.4H53.4c-4.8,0-8.8,3.9-8.8,8.8v18.3c0,3.6-2.1,6.8-5.4,8.1l-16.9,7
			c-4.5,1.9-6.6,7-4.8,11.5l7,16.9c1.4,3.3,0.6,7.1-1.9,9.6l-13,13c-3.4,3.4-3.4,9,0,12.4l13,13c2.5,2.5,3.3,6.3,1.9,9.6l-7,16.9
			c-1.9,4.5,0.3,9.6,4.8,11.5l16.9,7c3.3,1.4,5.4,4.6,5.4,8.1v18.3c0,4.8,3.9,8.8,8.8,8.8h18.3c3.6,0,6.8,2.1,8.1,5.4l7,16.9
			c1.9,4.5,7,6.6,11.5,4.8l16.9-7c3.3-1.4,7.1-0.6,9.6,1.9l13,13c3.4,3.4,9,3.4,12.4,0l13-13c2.5-2.5,6.3-3.3,9.6-1.9l16.9,7
			c4.5,1.9,9.6-0.3,11.5-4.8l7-16.9c1.4-3.3,4.6-5.4,8.1-5.4h18.3c4.8,0,8.8-3.9,8.8-8.8v-18.3c0-3.6,2.1-6.8,5.4-8.1l16.9-7
			c4.5-1.9,6.6-7,4.8-11.5l-7-16.9C262.1,169.4,262.8,165.7,265.3,163.2z"/>
	</g>
</g>
<g id="Band">
	<g>
		<path class="st54" d="M160.5,172.5c41.9-24.2,83.3-46.9,123.8-67.9c1.8-0.9,2.6-2.9,1.8-4.5c-4.7-9.8-9.8-19.5-15.4-29.2
			s-11.5-19-17.6-27.9c-1-1.5-3.2-1.8-4.8-0.7c-38.4,24.5-78.8,49-120.7,73.2S44.3,162.4,3.8,183.4c-1.8,0.9-2.6,2.9-1.8,4.5
			c4.7,9.8,9.8,19.5,15.4,29.2s11.5,19,17.6,27.9c1,1.5,3.2,1.8,4.8,0.7C78.2,221.2,118.5,196.7,160.5,172.5z"/>
		<path class="st55" d="M4.4,183.4c-1.8,0.9-2.6,2.9-1.8,4.5c4.6,9.7,9.7,19.3,15.2,28.9s11.4,18.8,17.4,27.6c1,1.5,3.1,1.8,4.8,0.7
			c38.3-24.4,78.5-48.8,120.2-72.9c41.8-24.1,83-46.7,123.3-67.7c1.8-0.9,2.6-2.9,1.8-4.5c-4.6-9.7-9.7-19.3-15.2-28.9
			s-11.4-18.8-17.4-27.6c-1-1.5-3.1-1.8-4.8-0.7c-38.3,24.4-78.5,48.8-120.2,72.9S44.7,162.5,4.4,183.4z"/>
		<path class="st56" d="M5.1,183.4c-1.7,0.9-2.5,2.9-1.8,4.5c4.6,9.6,9.6,19.1,15,28.6c5.5,9.5,11.3,18.6,17.3,27.4
			c1,1.4,3.1,1.7,4.8,0.7c38.1-24.3,78.2-48.6,119.8-72.6s82.7-46.5,122.8-67.4c1.7-0.9,2.5-2.9,1.8-4.5c-4.6-9.6-9.6-19.1-15-28.6
			s-11.3-18.6-17.3-27.4c-1-1.4-3.1-1.7-4.8-0.7C209.5,67.7,169.4,92,127.9,116C86.3,140.1,45.2,162.6,5.1,183.4z"/>
		<path class="st57" d="M5.7,183.5c-1.7,0.9-2.5,2.9-1.8,4.4c4.5,9.5,9.5,19,14.9,28.4s11.2,18.4,17.1,27.1c1,1.4,3.1,1.7,4.8,0.7
			c38-24.2,77.9-48.4,119.3-72.4c41.4-23.9,82.4-46.4,122.3-67.2c1.7-0.9,2.5-2.9,1.8-4.4c-4.5-9.5-9.5-19-14.9-28.4
			S258,53.3,252.1,44.6c-1-1.4-3.1-1.7-4.8-0.7c-38,24.2-77.9,48.4-119.3,72.4C86.6,140.2,45.6,162.7,5.7,183.5z"/>
		<path class="st58" d="M6.3,183.5c-1.7,0.9-2.5,2.9-1.8,4.4c4.5,9.4,9.4,18.8,14.7,28.1c5.4,9.3,11,18.3,17,26.8
			c1,1.4,3.1,1.7,4.7,0.6c37.9-24.1,77.6-48.2,118.9-72.1c41.3-23.8,82.1-46.2,121.8-66.9c1.7-0.9,2.5-2.9,1.8-4.4
			c-4.5-9.4-9.4-18.8-14.7-28.1s-11-18.3-17-26.8c-1-1.4-3.1-1.7-4.7-0.6c-37.9,24.1-77.6,48.2-118.9,72.1
			C86.9,140.4,46.1,162.8,6.3,183.5z"/>
		<path class="st59" d="M7,183.5c-1.7,0.9-2.5,2.8-1.8,4.4c4.4,9.3,9.3,18.6,14.6,27.8s10.9,18.1,16.8,26.5c1,1.4,3.1,1.7,4.7,0.6
			c37.7-24,77.3-48,118.4-71.8c41.1-23.7,81.7-46,121.4-66.7c1.7-0.9,2.5-2.8,1.8-4.4c-4.4-9.3-9.3-18.6-14.6-27.8
			c-5.3-9.2-10.9-18.1-16.8-26.5c-1-1.4-3.1-1.7-4.7-0.6c-37.7,24-77.3,48-118.4,71.8C87.2,140.6,46.6,162.9,7,183.5z"/>
		<path class="st59" d="M7.6,183.6c-1.7,0.9-2.5,2.8-1.8,4.4c4.4,9.2,9.2,18.4,14.4,27.5s10.8,17.9,16.6,26.3c1,1.4,3,1.7,4.7,0.6
			c37.6-23.9,77-47.8,118-71.5s81.4-45.8,120.9-66.4c1.7-0.9,2.5-2.8,1.8-4.4c-4.4-9.2-9.2-18.4-14.4-27.5
			c-5.3-9.1-10.8-17.9-16.6-26.3c-1-1.4-3-1.7-4.7-0.6c-37.6,23.9-77,47.8-118,71.5C87.5,140.8,47.1,163,7.6,183.6z"/>
		<path class="st60" d="M8.2,183.6c-1.7,0.9-2.5,2.8-1.8,4.3c4.3,9.1,9.1,18.2,14.3,27.3s10.7,17.7,16.5,26c1,1.4,3,1.6,4.6,0.6
			c37.4-23.8,76.7-47.6,117.5-71.2s81.1-45.7,120.4-66.2c1.7-0.9,2.5-2.8,1.8-4.3c-4.3-9.1-9.1-18.2-14.3-27.3s-10.7-17.7-16.5-26
			c-1-1.4-3-1.6-4.6-0.6c-37.4,23.8-76.7,47.6-117.5,71.2S47.5,163.1,8.2,183.6z"/>
		<path class="st61" d="M8.9,183.6c-1.7,0.9-2.5,2.8-1.8,4.3c4.3,9,9,18.1,14.1,27c5.2,8.9,10.6,17.5,16.3,25.7
			c0.9,1.4,3,1.6,4.6,0.6c37.3-23.7,76.5-47.4,117.1-70.9s80.8-45.5,119.9-66c1.7-0.9,2.5-2.8,1.8-4.3c-4.3-9-9-18.1-14.1-27
			s-10.6-17.5-16.3-25.7c-0.9-1.4-3-1.6-4.6-0.6c-37.3,23.7-76.5,47.4-117.1,70.9S48,163.2,8.9,183.6z"/>
		<path class="st62" d="M9.5,183.7c-1.7,0.9-2.5,2.8-1.8,4.3c4.2,8.9,8.9,17.9,14,26.7s10.5,17.3,16.2,25.5c0.9,1.3,3,1.6,4.6,0.6
			c37.2-23.6,76.2-47.2,116.6-70.6c40.5-23.4,80.5-45.3,119.5-65.7c1.7-0.9,2.5-2.8,1.8-4.3c-4.2-8.9-8.9-17.9-14-26.7
			S255.9,56.2,250.2,48c-0.9-1.3-3-1.6-4.6-0.6C208.4,71,169.4,94.6,129,118C88.5,141.3,48.5,163.3,9.5,183.7z"/>
		<path class="st63" d="M10.1,183.7c-1.7,0.9-2.5,2.8-1.8,4.2c4.2,8.9,8.8,17.7,13.8,26.4s10.4,17.2,16,25.2c0.9,1.3,3,1.6,4.6,0.5
			c37-23.5,75.9-47,116.2-70.3s80.1-45.2,119-65.5c1.7-0.9,2.5-2.8,1.8-4.2c-4.2-8.9-8.8-17.7-13.8-26.4c-5.1-8.8-10.4-17.2-16-25.2
			c-0.9-1.3-3-1.6-4.6-0.5c-37,23.5-75.9,47-116.2,70.3S49,163.4,10.1,183.7z"/>
		<path class="st64" d="M10.8,183.7c-1.7,0.9-2.5,2.7-1.8,4.2c4.1,8.8,8.7,17.5,13.7,26.2s10.3,17,15.8,24.9
			c0.9,1.3,2.9,1.5,4.5,0.5c36.9-23.4,75.6-46.8,115.7-70c40.2-23.2,79.8-45,118.5-65.2c1.7-0.9,2.5-2.7,1.8-4.2
			c-4.1-8.8-8.7-17.5-13.7-26.2S255,56.9,249.5,49c-0.9-1.3-2.9-1.5-4.5-0.5c-36.9,23.4-75.6,46.8-115.7,70
			C89.1,141.7,49.4,163.5,10.8,183.7z"/>
		<path class="st65" d="M11.4,183.7c-1.7,0.9-2.5,2.7-1.8,4.2c4.1,8.7,8.6,17.3,13.5,25.9c4.9,8.6,10.2,16.8,15.7,24.7
			c0.9,1.3,2.9,1.5,4.5,0.5c36.7-23.3,75.3-46.6,115.3-69.7s79.5-44.8,118-65c1.7-0.9,2.5-2.7,1.8-4.2c-4.1-8.7-8.6-17.3-13.5-25.9
			s-10.2-16.8-15.7-24.7c-0.9-1.3-2.9-1.5-4.5-0.5c-36.7,23.3-75.3,46.6-115.3,69.7C89.4,141.9,49.9,163.6,11.4,183.7z"/>
		<path class="st66" d="M12,183.8c-1.7,0.9-2.5,2.7-1.8,4.1c4,8.6,8.5,17.1,13.4,25.6s10.1,16.6,15.5,24.4c0.9,1.3,2.9,1.5,4.5,0.5
			c36.6-23.2,75-46.4,114.8-69.4s79.2-44.6,117.5-64.7c1.7-0.9,2.5-2.7,1.8-4.1c-4-8.6-8.5-17.1-13.4-25.6S254.2,58,248.8,50.2
			c-0.9-1.3-2.9-1.5-4.5-0.5c-36.6,23.2-75,46.4-114.8,69.4C89.7,142,50.4,163.7,12,183.8z"/>
		<path class="st67" d="M12.7,183.8c-1.7,0.9-2.5,2.7-1.8,4.1c4,8.5,8.4,17,13.2,25.3s10,16.4,15.3,24.1c0.9,1.3,2.9,1.5,4.5,0.5
			c36.5-23.1,74.7-46.2,114.4-69.1s78.9-44.5,117.1-64.5c1.7-0.9,2.5-2.7,1.8-4.1c-4-8.5-8.4-17-13.2-25.3
			c-4.8-8.4-10-16.4-15.3-24.1c-0.9-1.3-2.9-1.5-4.5-0.5c-36.5,23.1-74.7,46.2-114.4,69.1C90,142.2,50.9,163.8,12.7,183.8z"/>
		<path class="st68" d="M13.3,183.8c-1.7,0.9-2.5,2.7-1.8,4.1c3.9,8.4,8.3,16.8,13.1,25.1s9.9,16.2,15.2,23.8
			c0.9,1.3,2.8,1.5,4.4,0.5c36.3-23,74.4-46,114-68.8c39.5-22.8,78.5-44.3,116.6-64.3c1.7-0.9,2.5-2.7,1.8-4.1
			c-3.9-8.4-8.3-16.8-13.1-25.1s-9.9-16.2-15.2-23.8c-0.9-1.3-2.8-1.5-4.4-0.5c-36.3,23-74.4,46-114,68.8
			C90.4,142.4,51.3,163.9,13.3,183.8z"/>
		<path class="st69" d="M13.9,183.9c-1.7,0.9-2.5,2.7-1.8,4c3.9,8.3,8.2,16.6,12.9,24.8s9.8,16.1,15,23.6c0.9,1.2,2.8,1.4,4.4,0.4
			c36.2-22.9,74.1-45.8,113.5-68.5s78.2-44.1,116.1-64c1.7-0.9,2.5-2.7,1.8-4c-3.9-8.3-8.2-16.6-12.9-24.8
			c-4.7-8.2-9.8-16.1-15-23.6c-0.9-1.2-2.8-1.4-4.4-0.4c-36.2,22.9-74.1,45.8-113.5,68.5S51.8,164,13.9,183.9z"/>
		<path class="st70" d="M14.6,183.9c-1.6,0.9-2.5,2.6-1.8,4c3.8,8.2,8.1,16.4,12.8,24.5s9.7,15.9,14.9,23.3c0.9,1.2,2.8,1.4,4.4,0.4
			c36-22.8,73.8-45.6,113.1-68.3s77.9-44,115.6-63.8c1.6-0.9,2.5-2.6,1.8-4c-3.8-8.2-8.1-16.4-12.8-24.5
			c-4.7-8.1-9.7-15.9-14.9-23.3c-0.9-1.2-2.8-1.4-4.4-0.4c-36,22.8-73.8,45.6-113.1,68.3S52.3,164.1,14.6,183.9z"/>
		<path class="st71" d="M15.2,183.9c-1.6,0.9-2.5,2.6-1.8,4c3.8,8.1,8,16.2,12.6,24.3s9.5,15.7,14.7,23c0.9,1.2,2.8,1.4,4.3,0.4
			c35.9-22.7,73.6-45.4,112.6-68c39.1-22.5,77.6-43.8,115.2-63.5c1.6-0.9,2.5-2.6,1.8-4c-3.8-8.1-8-16.2-12.6-24.3
			s-9.5-15.7-14.7-23c-0.9-1.2-2.8-1.4-4.3-0.4c-35.9,22.7-73.6,45.4-112.6,68C91.3,142.9,52.8,164.2,15.2,183.9z"/>
		<path class="st72" d="M15.8,184c-1.6,0.9-2.4,2.6-1.8,3.9c3.7,8,7.9,16.1,12.5,24s9.4,15.5,14.5,22.8c0.8,1.2,2.8,1.4,4.3,0.4
			c35.8-22.6,73.3-45.2,112.2-67.7s77.3-43.6,114.7-63.3c1.6-0.9,2.4-2.6,1.8-3.9c-3.7-8-7.9-16.1-12.5-24s-9.4-15.5-14.5-22.8
			c-0.8-1.2-2.8-1.4-4.3-0.4c-35.8,22.6-73.3,45.2-112.2,67.7C91.6,143.1,53.3,164.3,15.8,184z"/>
		<path class="st73" d="M16.5,184c-1.6,0.9-2.4,2.6-1.8,3.9c3.7,8,7.8,15.9,12.3,23.7s9.3,15.3,14.4,22.5c0.8,1.2,2.7,1.3,4.3,0.4
			c35.6-22.5,73-45,111.7-67.4s77-43.4,114.2-63.1c1.6-0.9,2.4-2.6,1.8-3.9c-3.7-8-7.8-15.9-12.3-23.7s-9.3-15.3-14.4-22.5
			c-0.8-1.2-2.7-1.3-4.3-0.4c-35.6,22.5-73,45-111.7,67.4C91.9,143.3,53.7,164.4,16.5,184z"/>
		<path class="st74" d="M17.1,184c-1.6,0.9-2.4,2.6-1.8,3.9c3.6,7.9,7.7,15.7,12.1,23.4c4.5,7.7,9.2,15.2,14.2,22.2
			c0.8,1.2,2.7,1.3,4.3,0.3c35.5-22.3,72.7-44.8,111.3-67.1s76.6-43.3,113.7-62.8c1.6-0.9,2.4-2.6,1.8-3.9
			c-3.6-7.9-7.7-15.7-12.1-23.4c-4.5-7.7-9.2-15.2-14.2-22.2c-0.8-1.2-2.7-1.3-4.3-0.3c-35.5,22.3-72.7,44.8-111.3,67.1
			C92.3,143.5,54.2,164.5,17.1,184z"/>
		<path class="st75" d="M17.7,184c-1.6,0.8-2.4,2.6-1.8,3.8c3.6,7.8,7.6,15.5,12,23.2S37,226,42,233c0.8,1.2,2.7,1.3,4.2,0.3
			c35.3-22.2,72.4-44.6,110.8-66.8s76.3-43.1,113.3-62.6c1.6-0.8,2.4-2.6,1.8-3.8c-3.6-7.8-7.6-15.5-12-23.2S251,62,246,55
			c-0.8-1.2-2.7-1.3-4.2-0.3c-35.3,22.2-72.4,44.6-110.8,66.8C92.6,143.6,54.7,164.6,17.7,184z"/>
		<path class="st76" d="M18.4,184.1c-1.6,0.8-2.4,2.5-1.8,3.8c3.5,7.7,7.5,15.3,11.8,22.9s9,14.8,13.9,21.7c0.8,1.1,2.7,1.3,4.2,0.3
			c35.2-22.1,72.1-44.4,110.4-66.5s76-42.9,112.8-62.3c1.6-0.8,2.4-2.5,1.8-3.8c-3.5-7.7-7.5-15.3-11.8-22.9
			c-4.4-7.6-9-14.8-13.9-21.7c-0.8-1.1-2.7-1.3-4.2-0.3c-35.2,22.1-72.1,44.4-110.4,66.5C92.9,143.8,55.2,164.7,18.4,184.1z"/>
		<path class="st77" d="M19,184.1c-1.6,0.8-2.4,2.5-1.8,3.8c3.5,7.6,7.4,15.1,11.7,22.6s8.9,14.6,13.7,21.4c0.8,1.1,2.7,1.3,4.2,0.3
			c35.1-22,71.8-44.2,109.9-66.2s75.7-42.7,112.3-62.1c1.6-0.8,2.4-2.5,1.8-3.8c-3.5-7.6-7.4-15.1-11.7-22.6
			c-4.3-7.5-8.9-14.6-13.7-21.4c-0.8-1.1-2.7-1.3-4.2-0.3c-35.1,22-71.8,44.2-109.9,66.2S55.6,164.8,19,184.1z"/>
		<path class="st78" d="M19.6,184.1c-1.6,0.8-2.4,2.5-1.8,3.7c3.4,7.5,7.3,15,11.5,22.3s8.8,14.4,13.6,21.2c0.8,1.1,2.6,1.2,4.2,0.3
			c34.9-21.9,71.5-44,109.5-65.9c37.9-21.9,75.4-42.6,111.8-61.8c1.6-0.8,2.4-2.5,1.8-3.7c-3.4-7.5-7.3-15-11.5-22.3
			c-4.3-7.4-8.8-14.4-13.6-21.2c-0.8-1.1-2.6-1.2-4.2-0.3c-34.9,21.9-71.5,44-109.5,65.9C93.5,144.2,56.1,164.9,19.6,184.1z"/>
		<path class="st79" d="M20.3,184.2c-1.6,0.8-2.4,2.5-1.8,3.7c3.4,7.4,7.2,14.8,11.4,22.1s8.7,14.2,13.4,20.9
			c0.8,1.1,2.6,1.2,4.1,0.3c34.8-21.8,71.2-43.8,109-65.6s75-42.4,111.3-61.6c1.6-0.8,2.4-2.5,1.8-3.7c-3.4-7.4-7.2-14.8-11.4-22.1
			c-4.2-7.3-8.7-14.2-13.4-20.9c-0.8-1.1-2.6-1.2-4.1-0.3c-34.8,21.8-71.2,43.8-109,65.6S56.6,165,20.3,184.2z"/>
		<path class="st80" d="M20.9,184.2c-1.6,0.8-2.4,2.5-1.8,3.7c3.3,7.3,7.1,14.6,11.2,21.8c4.2,7.2,8.6,14.1,13.3,20.6
			c0.8,1.1,2.6,1.2,4.1,0.2c34.6-21.7,70.9-43.6,108.6-65.3c37.6-21.7,74.7-42.2,110.9-61.4c1.6-0.8,2.4-2.5,1.8-3.7
			c-3.3-7.3-7.1-14.6-11.2-21.8c-4.2-7.2-8.6-14.1-13.3-20.6c-0.8-1.1-2.6-1.2-4.1-0.2c-34.6,21.7-70.9,43.6-108.6,65.3
			C94.2,144.5,57.1,165.1,20.9,184.2z"/>
		<path class="st81" d="M21.5,184.2c-1.6,0.8-2.4,2.4-1.8,3.6c3.3,7.2,7,14.4,11.1,21.5s8.5,13.9,13.1,20.3c0.8,1.1,2.6,1.2,4.1,0.2
			c34.5-21.6,70.7-43.4,108.1-65c37.5-21.6,74.4-42.1,110.4-61.1c1.6-0.8,2.4-2.4,1.8-3.6c-3.3-7.2-7-14.4-11.1-21.5
			s-8.5-13.9-13.1-20.3c-0.8-1.1-2.6-1.2-4.1-0.2c-34.5,21.6-70.7,43.4-108.1,65C94.5,144.7,57.5,165.2,21.5,184.2z"/>
		<path class="st82" d="M22.2,184.2c-1.6,0.8-2.4,2.4-1.8,3.6c3.2,7.1,6.9,14.2,10.9,21.2s8.4,13.7,12.9,20.1c0.8,1.1,2.6,1.1,4,0.2
			c34.4-21.5,70.4-43.2,107.7-64.7s74.1-41.9,109.9-60.9c1.6-0.8,2.4-2.4,1.8-3.6c-3.2-7.1-6.9-14.2-10.9-21.2s-8.4-13.7-12.9-20.1
			c-0.8-1.1-2.6-1.1-4-0.2c-34.4,21.5-70.4,43.2-107.7,64.7C94.8,144.9,58,165.3,22.2,184.2z"/>
		<path class="st83" d="M22.8,184.3c-1.6,0.8-2.4,2.4-1.9,3.6c3.2,7,6.8,14,10.8,21c4,6.9,8.3,13.5,12.8,19.8c0.7,1,2.5,1.1,4,0.2
			c34.2-21.4,70.1-43,107.2-64.5c37.1-21.4,73.8-41.7,109.4-60.6c1.6-0.8,2.4-2.4,1.9-3.6c-3.2-7-6.8-14-10.8-21
			s-8.3-13.5-12.8-19.8c-0.7-1-2.5-1.1-4-0.2c-34.2,21.4-70.1,43-107.2,64.5C95.1,145.1,58.5,165.4,22.8,184.3z"/>
		<path class="st84" d="M23.4,184.3c-1.5,0.8-2.4,2.4-1.9,3.5c3.1,7,6.7,13.9,10.6,20.7s8.2,13.3,12.6,19.5c0.7,1,2.5,1.1,4,0.2
			c34.1-21.3,69.8-42.8,106.8-64.2s73.4-41.5,109-60.4c1.5-0.8,2.4-2.4,1.9-3.5c-3.1-7-6.7-13.9-10.6-20.7s-8.2-13.3-12.6-19.5
			c-0.7-1-2.5-1.1-4-0.2c-34.1,21.3-69.8,42.8-106.8,64.2S59,165.5,23.4,184.3z"/>
		<path class="st85" d="M24.1,184.3c-1.5,0.8-2.4,2.4-1.9,3.5c3.1,6.9,6.6,13.7,10.5,20.4s8,13.2,12.4,19.3c0.7,1,2.5,1.1,4,0.2
			c33.9-21.2,69.5-42.6,106.3-63.9s73.1-41.4,108.5-60.2c1.5-0.8,2.4-2.4,1.9-3.5c-3.1-6.9-6.6-13.7-10.5-20.4s-8-13.2-12.4-19.3
			c-0.7-1-2.5-1.1-4-0.2c-33.9,21.2-69.5,42.6-106.3,63.9C95.7,145.4,59.4,165.6,24.1,184.3z"/>
		<path class="st33" d="M155.3,163.5c36.7-21.2,72.8-41.2,108-59.9c1.5-0.8,2.4-2.4,1.9-3.5c-3-6.8-6.5-13.5-10.3-20.1
			s-7.9-13-12.3-19c-0.7-1-2.5-1.1-3.9-0.1c-33.8,21.1-69.2,42.4-105.9,63.6s-72.8,41.2-108,59.9c-1.5,0.8-2.4,2.4-1.9,3.5
			c3,6.8,6.5,13.5,10.3,20.1s7.9,13,12.3,19c0.7,1,2.5,1.1,3.9,0.1C83.2,206,118.6,184.7,155.3,163.5z"/>
	</g>
</g>
<g id="BONUS">
	<g>
		<path class="st86" d="M39.1,181.7l20.5-11.8c7.9-4.6,14.7-3.8,17.9,1.8c1.9,3.3,1.7,7.2-1.3,10.6c3.7-0.9,8.4-0.5,11,4
			c3.1,5.4,2.2,12.1-8.5,18.3L58.9,216L39.1,181.7z M63.7,184.8c2-1.2,2-2.9,1.3-4.1c-0.9-1.6-2.5-2-4.6-0.8l-3.4,2l3,5.1
			L63.7,184.8z M67.7,200.5l3.1-1.8c2.2-1.3,2.7-3.1,1.7-4.8c-0.8-1.4-2.4-2.4-4.7-1.1l-3.3,1.9L67.7,200.5z"/>
		<path class="st86" d="M123.7,155.9c5.7,9.9,4.4,21.4-8.5,28.9c-12.9,7.4-23.4,2.1-28.8-7.4c-5.5-9.6-4.6-21.5,8.5-29.1
			C107.1,141.2,118.1,146.2,123.7,155.9z M100.6,168.9c3.4,5.9,6.5,9.1,10,7c3.3-1.9,2.3-6-1.1-11.8c-3.6-6.2-6.3-9.2-10-7.1
			C96.3,158.9,97.1,162.8,100.6,168.9z"/>
		<path class="st86" d="M137.7,170.5l-19.8-34.3l16.2-9.3c7.2,6.4,11.8,10.9,16.2,15.3l0.3-0.2c-2.6-3.7-6.3-9.6-9.3-14.7l-2-3.4
			l12.8-7.4l19.8,34.3l-15.5,8.9c-5.1-4.5-12.4-11.3-17.2-15.9l-0.2,0.1c2.8,3.8,5.8,9.2,9.2,15.1l2.4,4.1L137.7,170.5z"/>
		<path class="st86" d="M171.3,105.4l12.9,22.4c1.4,2.5,3.3,3.1,5.5,1.9c2-1.1,2.1-3.2,0.7-5.5l-12.9-22.4l14-8.1l11.7,20.2
			c6.1,10.5,2.3,18.6-8.6,25c-11.4,6.6-19.7,4.9-25.6-5.3l-11.7-20.2L171.3,105.4z"/>
		<path class="st86" d="M221.4,107.8c1.7,2.3,3.9,2.5,6.2,1.1c2-1.1,2.7-2.3,1.9-3.6c-0.9-1.5-2.5-1.3-8.3,0.4
			c-12.9,3.6-16.9,0.7-19.6-4c-2.9-5-3-13.3,9.2-20.3c11.2-6.5,19-4,22.9,1.6L221,90.3c-1.2-1.6-2.8-2.3-5-1c-1.5,0.9-2.2,1.8-1.5,3
			s2.1,1,8-0.6c13.6-3.6,17.7-0.6,20.5,4.2c3.7,6.5,1.3,14.3-10.5,21.1c-11.1,6.4-19.4,4.7-24-1.7L221.4,107.8z"/>
	</g>
</g>
<g id="dots">
	<circle class="st87" cx="90" cy="50.5" r="4.5"/>
	<circle class="st87" cx="78.3" cy="58.3" r="4.5"/>
	<circle class="st87" cx="67.6" cy="67.6" r="4.5"/>
	<circle class="st87" cx="58.3" cy="78.3" r="4.5"/>
	<circle class="st87" cx="50.5" cy="90" r="4.5"/>
	<circle class="st87" cx="44.2" cy="102.7" r="4.5"/>
	<circle class="st87" cx="39.7" cy="116" r="4.5"/>
	<circle class="st87" cx="36.9" cy="129.9" r="4.5"/>
	<circle class="st87" cx="36" cy="144" r="4.5"/>
	<circle class="st87" cx="36.9" cy="158.1" r="4.5"/>
	<circle class="st87" cx="78.3" cy="229.7" r="4.5"/>
	<circle class="st87" cx="90" cy="237.5" r="4.5"/>
	<circle class="st87" cx="102.7" cy="243.8" r="4.5"/>
	<circle class="st87" cx="116" cy="248.3" r="4.5"/>
	<circle class="st87" cx="129.9" cy="251.1" r="4.5"/>
	<circle class="st87" cx="144" cy="252" r="4.5"/>
	<circle class="st87" cx="158.1" cy="251.1" r="4.5"/>
	<circle class="st87" cx="172" cy="248.3" r="4.5"/>
	<circle class="st87" cx="185.3" cy="243.8" r="4.5"/>
	<circle class="st87" cx="198" cy="237.5" r="4.5"/>
	<circle class="st87" cx="209.7" cy="229.7" r="4.5"/>
	<circle class="st87" cx="220.4" cy="220.4" r="4.5"/>
	<circle class="st87" cx="229.7" cy="209.7" r="4.5"/>
	<circle class="st87" cx="237.5" cy="198" r="4.5"/>
	<circle class="st87" cx="243.8" cy="185.3" r="4.5"/>
	<circle class="st87" cx="248.3" cy="172" r="4.5"/>
	<circle class="st87" cx="251.1" cy="158.1" r="4.5"/>
	<circle class="st87" cx="252" cy="144" r="4.5"/>
	<circle class="st87" cx="251.1" cy="129.9" r="4.5"/>
	<circle class="st87" cx="209.7" cy="58.3" r="4.5"/>
	<circle class="st87" cx="198" cy="50.5" r="4.5"/>
	<circle class="st87" cx="185.3" cy="44.2" r="4.5"/>
	<circle class="st87" cx="172" cy="39.7" r="4.5"/>
	<circle class="st87" cx="158.1" cy="36.9" r="4.5"/>
	<circle class="st87" cx="144" cy="36" r="4.5"/>
	<circle class="st87" cx="129.9" cy="36.9" r="4.5"/>
	<circle class="st87" cx="116" cy="39.7" r="4.5"/>
	<circle class="st87" cx="102.7" cy="44.2" r="4.5"/>
</g>
<g id="stars">
	<g>
		<g>
			
				<linearGradient id="SVGID_1_" gradientUnits="userSpaceOnUse" x1="-26.6895" y1="170.0744" x2="20.4627" y2="170.0744" gradientTransform="matrix(0.866 -0.5 -0.5 -0.866 196.2183 228.2984)">
				<stop  offset="0" style="stop-color:#CF1B22"/>
				<stop  offset="0.4638" style="stop-color:#ED1C24"/>
				<stop  offset="0.9993" style="stop-color:#91072B"/>
			</linearGradient>
			<path class="st88" d="M122.5,80.9l4.1-13.2c0.4-1.3-0.9-2.5-2.1-1.9l-12.7,5.4c-0.5,0.2-1.1,0.2-1.5-0.2L99,63.1
				c-1.1-0.8-2.6,0.1-2.5,1.4l1.2,13.7c0,0.5-0.2,1.1-0.6,1.4L86,88c-1.1,0.8-0.7,2.5,0.6,2.8l13.4,3.1c0.5,0.1,1,0.5,1.1,1
				l4.5,13.1c0.4,1.3,2.2,1.5,2.9,0.3l7.1-11.8c0.3-0.5,0.8-0.8,1.3-0.8l13.8-0.2c1.4,0,2.1-1.6,1.2-2.6l-9.1-10.4
				C122.5,82,122.4,81.4,122.5,80.9z"/>
		</g>
		<defs>
			<filter id="Adobe_OpacityMaskFilter" filterUnits="userSpaceOnUse" x="85.4" y="62.8" width="46.9" height="46.3">
				<feColorMatrix  type="matrix" values="1 0 0 0 0  0 1 0 0 0  0 0 1 0 0  0 0 0 1 0"/>
			</filter>
		</defs>
		
			<mask maskUnits="userSpaceOnUse" x="85.4" y="62.8" width="46.9" height="46.3" id="SVGID_00000002347927582930508920000015336414039468263563_">
			<g class="st89">
			</g>
		</mask>
		<g class="st90">
			<path d="M122.5,80.9l4.1-13.2c0.4-1.3-0.9-2.5-2.1-1.9l-12.7,5.4c-0.5,0.2-1.1,0.2-1.5-0.2L99,63.1c-1.1-0.8-2.6,0.1-2.5,1.4
				l1.2,13.7c0,0.5-0.2,1.1-0.6,1.4L86,88c-1.1,0.8-0.7,2.5,0.6,2.8l13.4,3.1c0.5,0.1,1,0.5,1.1,1l4.5,13.1c0.4,1.3,2.2,1.5,2.9,0.3
				l7.1-11.8c0.3-0.5,0.8-0.8,1.3-0.8l13.8-0.2c1.4,0,2.1-1.6,1.2-2.6l-9.1-10.4C122.5,82,122.4,81.4,122.5,80.9z"/>
		</g>
	</g>
	<g>
		<g>
			
				<linearGradient id="SVGID_00000171689105826184364820000005839912161517673652_" gradientUnits="userSpaceOnUse" x1="-220.149" y1="192.1484" x2="-184.149" y2="192.1484" gradientTransform="matrix(0.5 -0.866 -0.866 -0.5 340.8093 37.9071)">
				<stop  offset="0" style="stop-color:#CF1B22"/>
				<stop  offset="0.4638" style="stop-color:#ED1C24"/>
				<stop  offset="0.9993" style="stop-color:#91072B"/>
			</linearGradient>
			<path style="fill:url(#SVGID_00000171689105826184364820000005839912161517673652_);" d="M81.9,110.4l-2.3-10.3
				c-0.2-1-1.5-1.3-2.1-0.5l-6.3,8.4c-0.3,0.3-0.7,0.5-1.1,0.5l-10.5-0.9c-1-0.1-1.7,1.1-1.1,1.9l6.1,8.6c0.2,0.3,0.3,0.8,0.1,1.2
				l-4.1,9.7c-0.4,0.9,0.5,1.9,1.5,1.6l10.1-3.1c0.4-0.1,0.8,0,1.2,0.2l7.9,6.9c0.8,0.7,2,0.1,2-0.9l0.2-10.5c0-0.4,0.2-0.8,0.6-1
				l9-5.4c0.9-0.5,0.7-1.9-0.2-2.2l-10-3.4C82.3,111.2,82,110.8,81.9,110.4z"/>
		</g>
		<defs>
			
				<filter id="Adobe_OpacityMaskFilter_00000051349532308424406030000001727275421128901257_" filterUnits="userSpaceOnUse" x="58.3" y="99.1" width="35.4" height="35.8">
				<feColorMatrix  type="matrix" values="1 0 0 0 0  0 1 0 0 0  0 0 1 0 0  0 0 0 1 0"/>
			</filter>
		</defs>
		
			<mask maskUnits="userSpaceOnUse" x="58.3" y="99.1" width="35.4" height="35.8" id="SVGID_00000036964813303857217270000008927199341039100082_">
			<g style="filter:url(#Adobe_OpacityMaskFilter_00000051349532308424406030000001727275421128901257_);">
			</g>
		</mask>
		<g class="st93">
			<path d="M81.9,110.4l-2.3-10.3c-0.2-1-1.5-1.3-2.1-0.5l-6.3,8.4c-0.3,0.3-0.7,0.5-1.1,0.5l-10.5-0.9c-1-0.1-1.7,1.1-1.1,1.9
				l6.1,8.6c0.2,0.3,0.3,0.8,0.1,1.2l-4.1,9.7c-0.4,0.9,0.5,1.9,1.5,1.6l10.1-3.1c0.4-0.1,0.8,0,1.2,0.2l7.9,6.9
				c0.8,0.7,2,0.1,2-0.9l0.2-10.5c0-0.4,0.2-0.8,0.6-1l9-5.4c0.9-0.5,0.7-1.9-0.2-2.2l-10-3.4C82.3,111.2,82,110.8,81.9,110.4z"/>
		</g>
	</g>
	<g>
		<g>
			
				<linearGradient id="SVGID_00000125595882493296536350000013803633413662832020_" gradientUnits="userSpaceOnUse" x1="-244.277" y1="206.1963" x2="-208.277" y2="206.1963" gradientTransform="matrix(-1 0 0 -1 -70.4219 275.3354)">
				<stop  offset="0" style="stop-color:#CF1B22"/>
				<stop  offset="0.4638" style="stop-color:#ED1C24"/>
				<stop  offset="0.9993" style="stop-color:#91072B"/>
			</linearGradient>
			<path style="fill:url(#SVGID_00000125595882493296536350000013803633413662832020_);" d="M146,73.5l-7.7-7.2
				c-0.8-0.7-0.3-2,0.7-2.1l10.5-1.3c0.4,0,0.8-0.3,1-0.7l4.4-9.6c0.4-0.9,1.8-0.9,2.2,0l4.4,9.6c0.2,0.4,0.5,0.6,1,0.7l10.5,1.3
				c1,0.1,1.4,1.4,0.7,2.1l-7.7,7.2c-0.3,0.3-0.4,0.7-0.4,1.1l2,10.3c0.2,1-0.9,1.8-1.8,1.3l-9.2-5.1c-0.4-0.2-0.8-0.2-1.2,0
				l-9.2,5.1c-0.9,0.5-2-0.3-1.8-1.3l2-10.3C146.4,74.2,146.3,73.8,146,73.5z"/>
		</g>
		<defs>
			
				<filter id="Adobe_OpacityMaskFilter_00000155858769362289664440000011379171017187696523_" filterUnits="userSpaceOnUse" x="137.9" y="51.9" width="36.1" height="34.4">
				<feColorMatrix  type="matrix" values="1 0 0 0 0  0 1 0 0 0  0 0 1 0 0  0 0 0 1 0"/>
			</filter>
		</defs>
		
			<mask maskUnits="userSpaceOnUse" x="137.9" y="51.9" width="36.1" height="34.4" id="SVGID_00000163777238293907132040000009734060206672968079_">
			<g style="filter:url(#Adobe_OpacityMaskFilter_00000155858769362289664440000011379171017187696523_);">
			</g>
		</mask>
		<g class="st96">
			<path d="M146,73.5l-7.7-7.2c-0.8-0.7-0.3-2,0.7-2.1l10.5-1.3c0.4,0,0.8-0.3,1-0.7l4.4-9.6c0.4-0.9,1.8-0.9,2.2,0l4.4,9.6
				c0.2,0.4,0.5,0.6,1,0.7l10.5,1.3c1,0.1,1.4,1.4,0.7,2.1l-7.7,7.2c-0.3,0.3-0.4,0.7-0.4,1.1l2,10.3c0.2,1-0.9,1.8-1.8,1.3
				l-9.2-5.1c-0.4-0.2-0.8-0.2-1.2,0l-9.2,5.1c-0.9,0.5-2-0.3-1.8-1.3l2-10.3C146.4,74.2,146.3,73.8,146,73.5z"/>
		</g>
	</g>
	<g>
		<g>
			
				<linearGradient id="SVGID_00000023965318956770028370000008119401163190396069_" gradientUnits="userSpaceOnUse" x1="-26.6562" y1="765.8795" x2="20.496" y2="765.8795" gradientTransform="matrix(0.866 -0.5 0.5 0.866 -200.7817 -459.2983)">
				<stop  offset="0" style="stop-color:#CF1B22"/>
				<stop  offset="0.4638" style="stop-color:#ED1C24"/>
				<stop  offset="0.9993" style="stop-color:#91072B"/>
			</linearGradient>
			<path style="fill:url(#SVGID_00000023965318956770028370000008119401163190396069_);" d="M187.9,194.2l13.4,3.1
				c1.3,0.3,1.7,2,0.6,2.8l-11,8.3c-0.4,0.3-0.7,0.9-0.6,1.4l1.2,13.7c0.1,1.3-1.4,2.2-2.5,1.4l-11.3-7.9c-0.4-0.3-1-0.4-1.5-0.2
				l-12.7,5.4c-1.2,0.5-2.5-0.6-2.1-1.9l4.1-13.2c0.2-0.5,0-1.1-0.3-1.5l-9.1-10.4c-0.9-1-0.2-2.6,1.2-2.6l13.8-0.2
				c0.5,0,1.1-0.3,1.3-0.8l7.1-11.8c0.7-1.2,2.4-1,2.9,0.3l4.5,13.1C186.9,193.6,187.4,194,187.9,194.2z"/>
		</g>
		<defs>
			
				<filter id="Adobe_OpacityMaskFilter_00000078016914760049571070000001775183148658257081_" filterUnits="userSpaceOnUse" x="155.7" y="179" width="46.8" height="46.2">
				<feColorMatrix  type="matrix" values="1 0 0 0 0  0 1 0 0 0  0 0 1 0 0  0 0 0 1 0"/>
			</filter>
		</defs>
		
			<mask maskUnits="userSpaceOnUse" x="155.7" y="179" width="46.8" height="46.2" id="SVGID_00000074401917764013633480000002550319173695346065_">
			<g style="filter:url(#Adobe_OpacityMaskFilter_00000078016914760049571070000001775183148658257081_);">
			</g>
		</mask>
		<g class="st99">
			<path d="M187.9,194.2l13.4,3.1c1.3,0.3,1.7,2,0.6,2.8l-11,8.3c-0.4,0.3-0.7,0.9-0.6,1.4l1.2,13.7c0.1,1.3-1.4,2.2-2.5,1.4
				l-11.3-7.9c-0.4-0.3-1-0.4-1.5-0.2l-12.7,5.4c-1.2,0.5-2.5-0.6-2.1-1.9l4.1-13.2c0.2-0.5,0-1.1-0.3-1.5l-9.1-10.4
				c-0.9-1-0.2-2.6,1.2-2.6l13.8-0.2c0.5,0,1.1-0.3,1.3-0.8l7.1-11.8c0.7-1.2,2.4-1,2.9,0.3l4.5,13.1
				C186.9,193.6,187.4,194,187.9,194.2z"/>
		</g>
	</g>
	<g>
		<g>
			
				<linearGradient id="SVGID_00000114057836079869353650000003377359294515891382_" gradientUnits="userSpaceOnUse" x1="77.723" y1="708.1963" x2="113.723" y2="708.1963" gradientTransform="matrix(1 0 0 1 36.4219 -489.3354)">
				<stop  offset="0" style="stop-color:#CF1B22"/>
				<stop  offset="0.4638" style="stop-color:#ED1C24"/>
				<stop  offset="0.9993" style="stop-color:#91072B"/>
			</linearGradient>
			<path style="fill:url(#SVGID_00000114057836079869353650000003377359294515891382_);" d="M142,214.5l7.7,7.2
				c0.8,0.7,0.3,2-0.7,2.1l-10.5,1.3c-0.4,0-0.8,0.3-1,0.7l-4.4,9.6c-0.4,0.9-1.8,0.9-2.2,0l-4.4-9.6c-0.2-0.4-0.5-0.6-1-0.7
				l-10.5-1.3c-1-0.1-1.4-1.4-0.7-2.1l7.7-7.2c0.3-0.3,0.4-0.7,0.4-1.1l-2-10.3c-0.2-1,0.9-1.8,1.8-1.3l9.2,5.1
				c0.4,0.2,0.8,0.2,1.2,0l9.2-5.1c0.9-0.5,2,0.3,1.8,1.3l-2,10.3C141.6,213.8,141.7,214.2,142,214.5z"/>
		</g>
		<defs>
			
				<filter id="Adobe_OpacityMaskFilter_00000181050494425221121640000014569054564035622034_" filterUnits="userSpaceOnUse" x="113.9" y="201.6" width="36.1" height="34.4">
				<feColorMatrix  type="matrix" values="1 0 0 0 0  0 1 0 0 0  0 0 1 0 0  0 0 0 1 0"/>
			</filter>
		</defs>
		
			<mask maskUnits="userSpaceOnUse" x="113.9" y="201.6" width="36.1" height="34.4" id="SVGID_00000004507251548259892710000013438866117572546995_">
			<g style="filter:url(#Adobe_OpacityMaskFilter_00000181050494425221121640000014569054564035622034_);">
			</g>
		</mask>
		<g class="st102">
			<path d="M142,214.5l7.7,7.2c0.8,0.7,0.3,2-0.7,2.1l-10.5,1.3c-0.4,0-0.8,0.3-1,0.7l-4.4,9.6c-0.4,0.9-1.8,0.9-2.2,0l-4.4-9.6
				c-0.2-0.4-0.5-0.6-1-0.7l-10.5-1.3c-1-0.1-1.4-1.4-0.7-2.1l7.7-7.2c0.3-0.3,0.4-0.7,0.4-1.1l-2-10.3c-0.2-1,0.9-1.8,1.8-1.3
				l9.2,5.1c0.4,0.2,0.8,0.2,1.2,0l9.2-5.1c0.9-0.5,2,0.3,1.8,1.3l-2,10.3C141.6,213.8,141.7,214.2,142,214.5z"/>
		</g>
	</g>
	<g>
		<g>
			
				<linearGradient id="SVGID_00000116222963715278297850000006415065305745019015_" gradientUnits="userSpaceOnUse" x1="53.595" y1="722.0237" x2="89.595" y2="722.0237" gradientTransform="matrix(-0.5 0.866 0.866 0.5 -374.8093 -251.907)">
				<stop  offset="0" style="stop-color:#CF1B22"/>
				<stop  offset="0.4638" style="stop-color:#ED1C24"/>
				<stop  offset="0.9993" style="stop-color:#91072B"/>
			</linearGradient>
			<path style="fill:url(#SVGID_00000116222963715278297850000006415065305745019015_);" d="M206.1,177.6l2.3,10.3
				c0.2,1,1.5,1.3,2.1,0.5l6.3-8.4c0.3-0.3,0.7-0.5,1.1-0.5l10.5,0.9c1,0.1,1.7-1.1,1.1-1.9l-6.1-8.6c-0.2-0.3-0.3-0.8-0.1-1.2
				l4.1-9.7c0.4-0.9-0.5-1.9-1.5-1.6l-10.1,3.1c-0.4,0.1-0.8,0-1.2-0.2l-7.9-6.9c-0.8-0.7-2-0.1-2,0.9l-0.2,10.5
				c0,0.4-0.2,0.8-0.6,1l-9,5.4c-0.9,0.5-0.7,1.9,0.2,2.2l10,3.4C205.7,176.8,206,177.2,206.1,177.6z"/>
		</g>
		<defs>
			
				<filter id="Adobe_OpacityMaskFilter_00000018202771163182854730000006993820361290824356_" filterUnits="userSpaceOnUse" x="194.3" y="153.1" width="35.4" height="35.8">
				<feColorMatrix  type="matrix" values="1 0 0 0 0  0 1 0 0 0  0 0 1 0 0  0 0 0 1 0"/>
			</filter>
		</defs>
		
			<mask maskUnits="userSpaceOnUse" x="194.3" y="153.1" width="35.4" height="35.8" id="SVGID_00000114752915855000934820000011795393219866188957_">
			<g style="filter:url(#Adobe_OpacityMaskFilter_00000018202771163182854730000006993820361290824356_);">
			</g>
		</mask>
		<g class="st105">
			<path d="M206.1,177.6l2.3,10.3c0.2,1,1.5,1.3,2.1,0.5l6.3-8.4c0.3-0.3,0.7-0.5,1.1-0.5l10.5,0.9c1,0.1,1.7-1.1,1.1-1.9l-6.1-8.6
				c-0.2-0.3-0.3-0.8-0.1-1.2l4.1-9.7c0.4-0.9-0.5-1.9-1.5-1.6l-10.1,3.1c-0.4,0.1-0.8,0-1.2-0.2l-7.9-6.9c-0.8-0.7-2-0.1-2,0.9
				l-0.2,10.5c0,0.4-0.2,0.8-0.6,1l-9,5.4c-0.9,0.5-0.7,1.9,0.2,2.2l10,3.4C205.7,176.8,206,177.2,206.1,177.6z"/>
		</g>
	</g>
</g>
</svg>
