<?xml version="1.0" encoding="utf-8"?>
<!-- Generator: Adobe Illustrator 26.2.1, SVG Export Plug-In . SVG Version: 6.00 Build 0)  -->
<svg version="1.1" xmlns="http://www.w3.org/2000/svg" xmlns:xlink="http://www.w3.org/1999/xlink" x="0px" y="0px"
	 viewBox="0 0 288 288" style="enable-background:new 0 0 288 288;" xml:space="preserve">
<style type="text/css">
	.st0{display:none;}
	.st1{fill:#26247B;}
	.st2{fill:#17479E;}
	.st3{fill:#15489E;}
	.st4{fill:#12499F;}
	.st5{fill:#104AA0;}
	.st6{fill:#0D4BA0;}
	.st7{fill:#094CA1;}
	.st8{fill:#054DA2;}
	.st9{fill:#014EA2;}
	.st10{fill:#004FA3;}
	.st11{fill:#0050A3;}
	.st12{fill:#0051A4;}
	.st13{fill:#0052A5;}
	.st14{fill:#0053A5;}
	.st15{fill:#0054A6;}
	.st16{fill:#0055A7;}
	.st17{fill:#0056A7;}
	.st18{fill:#0057A8;}
	.st19{fill:#0058A9;}
	.st20{fill:#0059A9;}
	.st21{fill:#005AAA;}
	.st22{fill:#005BAB;}
	.st23{fill:#005CAB;}
	.st24{fill:#005DAC;}
	.st25{fill:#005EAC;}
	.st26{fill:#005EAD;}
	.st27{fill:#005FAE;}
	.st28{fill:#0060AE;}
	.st29{fill:#0061AF;}
	.st30{fill:#0062B0;}
	.st31{fill:#0063B0;}
	.st32{fill:#0064B1;}
	.st33{fill:#0065B2;}
	.st34{fill:#0066B3;}
	.st35{fill:#CCA419;}
	.st36{fill:#CEA719;}
	.st37{fill:#D1AA18;}
	.st38{fill:#D4AD18;}
	.st39{fill:#D7B017;}
	.st40{fill:#DAB316;}
	.st41{fill:#DCB615;}
	.st42{fill:#DFB914;}
	.st43{fill:#E2BC12;}
	.st44{fill:#E5BF11;}
	.st45{fill:#E8C20F;}
	.st46{fill:#EBC60C;}
	.st47{fill:#EEC909;}
	.st48{fill:#F2CC05;}
	.st49{fill:#F5D001;}
	.st50{fill:#F9D400;}
	.st51{fill:#FED800;}
	.st52{fill:#FFDD00;}
	.st53{fill:url(#SVGID_1_);}
	.st54{fill:url(#SVGID_00000076580342417090741630000004408477762425768596_);}
	.st55{fill:url(#SVGID_00000042733001620886334040000016218638582293658044_);}
</style>
<g id="Guides" class="st0">
</g>
<g id="Circle">
	<g>
		<circle class="st1" cx="144" cy="144" r="142.2"/>
	</g>
</g>
<g id="Center">
	<g>
		<g>
			<circle class="st2" cx="144" cy="144" r="130.5"/>
		</g>
		<g>
			<circle class="st3" cx="143.3" cy="143.2" r="127.1"/>
		</g>
		<g>
			<circle class="st4" cx="142.7" cy="142.3" r="123.7"/>
		</g>
		<g>
			<circle class="st5" cx="142" cy="141.5" r="120.3"/>
		</g>
		<g>
			<circle class="st6" cx="141.3" cy="140.7" r="116.9"/>
		</g>
		<g>
			<circle class="st7" cx="140.6" cy="139.8" r="113.5"/>
		</g>
		<g>
			<circle class="st8" cx="140" cy="139" r="110"/>
		</g>
		<g>
			<circle class="st9" cx="139.3" cy="138.2" r="106.6"/>
		</g>
		<g>
			<circle class="st10" cx="138.6" cy="137.3" r="103.2"/>
		</g>
		<g>
			<circle class="st11" cx="137.9" cy="136.5" r="99.8"/>
		</g>
		<g>
			<circle class="st12" cx="137.3" cy="135.7" r="96.4"/>
		</g>
		<g>
			<circle class="st13" cx="136.6" cy="134.8" r="93"/>
		</g>
		<g>
			<circle class="st14" cx="135.9" cy="134" r="89.6"/>
		</g>
		<g>
			<circle class="st15" cx="135.3" cy="133.2" r="86.2"/>
		</g>
		<g>
			<circle class="st16" cx="134.6" cy="132.3" r="82.8"/>
		</g>
		<g>
			<circle class="st17" cx="133.9" cy="131.5" r="79.4"/>
		</g>
		<g>
			<circle class="st18" cx="133.2" cy="130.7" r="76"/>
		</g>
		<g>
			<circle class="st19" cx="132.6" cy="129.8" r="72.5"/>
		</g>
		<g>
			<circle class="st20" cx="131.9" cy="129" r="69.1"/>
		</g>
		<g>
			<circle class="st21" cx="131.2" cy="128.2" r="65.7"/>
		</g>
		<g>
			<circle class="st22" cx="130.5" cy="127.3" r="62.3"/>
		</g>
		<g>
			<circle class="st23" cx="129.9" cy="126.5" r="58.9"/>
		</g>
		<g>
			<circle class="st24" cx="129.2" cy="125.7" r="55.5"/>
		</g>
		<g>
			<circle class="st25" cx="128.5" cy="124.8" r="52.1"/>
		</g>
		<g>
			<circle class="st26" cx="127.8" cy="124" r="48.7"/>
		</g>
		<g>
			<circle class="st27" cx="127.2" cy="123.2" r="45.3"/>
		</g>
		<g>
			<circle class="st28" cx="126.5" cy="122.3" r="41.9"/>
		</g>
		<g>
			<circle class="st29" cx="125.8" cy="121.5" r="38.5"/>
		</g>
		<g>
			<circle class="st30" cx="125.2" cy="120.7" r="35"/>
		</g>
		<g>
			<circle class="st31" cx="124.5" cy="119.8" r="31.6"/>
		</g>
		<g>
			<circle class="st32" cx="123.8" cy="119" r="28.2"/>
		</g>
		<g>
			<circle class="st33" cx="123.1" cy="118.2" r="24.8"/>
		</g>
		<g>
			<circle class="st33" cx="122.5" cy="117.3" r="21.4"/>
		</g>
		<g>
			<circle class="st34" cx="121.8" cy="116.5" r="18"/>
		</g>
	</g>
</g>
<g id="Flag">
	<g>
		<g>
			<path class="st35" d="M91.3,248.2L50.5,78.8c-0.6-2.6,1.1-5.1,3.7-5.7c2.6-0.6,5.1,1.1,5.7,3.7l40.9,169.4
				c0.6,2.6-0.4,4.9-3.3,5.6C93.9,252.7,91.8,250.5,91.3,248.2z"/>
			<path class="st36" d="M59.6,76.9l40.9,169.4c0.5,2.5-0.4,4.7-3.1,5.4c-3.3,0.8-5.3-1.3-5.8-3.4L50.6,78.8c-0.5-2.5,1-4.9,3.5-5.5
				C56.6,72.8,59,74.4,59.6,76.9z"/>
			<path class="st37" d="M59.3,77l40.9,169.3c0.5,2.4-0.4,4.5-2.9,5.1c-3.1,0.8-5-1.2-5.5-3.2l-41-169.3c-0.5-2.4,0.9-4.7,3.3-5.2
				C56.5,73.1,58.8,74.6,59.3,77z"/>
			<path class="st38" d="M59,77.1l40.9,169.2c0.5,2.3-0.4,4.2-2.8,4.8c-3,0.7-4.8-1.2-5.2-3.1L51,78.9c-0.5-2.2,0.9-4.4,3.1-5
				C56.3,73.4,58.5,74.8,59,77.1z"/>
			<path class="st39" d="M58.8,77.3l40.9,169.2c0.5,2.2-0.4,4-2.6,4.6c-2.8,0.7-4.5-1.1-4.9-2.9l-41-169.2c-0.5-2.1,0.8-4.2,3-4.7
				C56.2,73.7,58.3,75.1,58.8,77.3z"/>
			<path class="st40" d="M58.5,77.4l40.9,169.1c0.5,2-0.3,3.8-2.4,4.3c-2.6,0.7-4.2-1-4.6-2.7L51.3,78.9c-0.4-2,0.7-4,2.8-4.4
				C56.1,74,58,75.3,58.5,77.4z"/>
			<path class="st41" d="M58.2,77.5l40.9,169c0.4,1.9-0.3,3.5-2.3,4c-2.4,0.6-3.9-1-4.3-2.5L51.5,79c-0.4-1.9,0.7-3.7,2.6-4.2
				C56,74.3,57.8,75.5,58.2,77.5z"/>
			<path class="st42" d="M58,77.7l41,169c0.4,1.8-0.3,3.3-2.1,3.8c-2.3,0.6-3.7-0.9-4-2.4L51.6,79c-0.4-1.8,0.6-3.5,2.4-3.9
				C55.8,74.6,57.5,75.7,58,77.7z"/>
			<path class="st43" d="M57.7,77.8l41,168.9c0.4,1.7-0.3,3.1-1.9,3.5c-2.1,0.5-3.4-0.8-3.7-2.2L51.8,79c-0.4-1.6,0.5-3.3,2.3-3.7
				C55.7,74.9,57.3,76,57.7,77.8z"/>
			<path class="st44" d="M57.4,77.9l41,168.8c0.4,1.6-0.3,2.8-1.8,3.2c-1.9,0.5-3.1-0.8-3.4-2L52,79c-0.4-1.5,0.4-3,2.1-3.4
				C55.6,75.2,57.1,76.2,57.4,77.9z"/>
			<path class="st45" d="M57.2,78.1l41,168.8c0.3,1.5-0.3,2.6-1.6,3c-1.7,0.4-2.8-0.7-3.1-1.8L52.2,79.1c-0.3-1.4,0.4-2.8,1.9-3.2
				C55.5,75.5,56.8,76.4,57.2,78.1z"/>
			<path class="st46" d="M56.9,78.2l41,168.7c0.3,1.4-0.2,2.4-1.4,2.7c-1.6,0.4-2.5-0.7-2.8-1.7L52.3,79.1c-0.3-1.3,0.3-2.6,1.7-2.9
				C55.4,75.8,56.6,76.6,56.9,78.2z"/>
			<path class="st47" d="M56.6,78.3l41,168.6c0.3,1.3-0.2,2.2-1.3,2.4c-1.4,0.3-2.3-0.6-2.5-1.5L52.5,79.1c-0.3-1.2,0.2-2.3,1.6-2.7
				C55.2,76.1,56.3,76.9,56.6,78.3z"/>
			<path class="st48" d="M56.4,78.4l41,168.6c0.3,1.2-0.2,1.9-1.1,2.1c-1.2,0.3-2-0.5-2.2-1.3L52.7,79.1c-0.3-1.1,0.2-2.1,1.4-2.4
				C55.1,76.4,56.1,77.1,56.4,78.4z"/>
			<path class="st49" d="M56.1,78.6l41,168.5c0.2,1.1-0.2,1.7-0.9,1.9c-1,0.3-1.7-0.5-1.9-1.2L52.8,79.2c-0.2-0.9,0.1-1.9,1.2-2.2
				C55,76.7,55.8,77.3,56.1,78.6z"/>
			<path class="st50" d="M55.8,78.7l41,168.4c0.2,1-0.2,1.5-0.8,1.6c-0.9,0.2-1.4-0.4-1.6-1L53,79.2c-0.2-0.8,0-1.6,1.1-1.9
				C54.9,77,55.6,77.5,55.8,78.7z"/>
			<path class="st51" d="M55.6,78.8l41.1,168.4c0.2,0.9-0.2,1.2-0.6,1.3c-0.7,0.2-1.2-0.4-1.3-0.8L53.2,79.2c-0.2-0.7,0-1.4,0.9-1.7
				C54.8,77.3,55.3,77.8,55.6,78.8z"/>
			<path class="st52" d="M94.9,247.7L53.3,79.2c-0.2-0.6-0.1-1.2,0.7-1.4c0.6-0.2,1,0.2,1.3,1.1l41.1,168.3c0.2,0.8-0.1,1-0.4,1.1
				C95.4,248.4,95.1,248,94.9,247.7z"/>
		</g>
	</g>
	<linearGradient id="SVGID_1_" gradientUnits="userSpaceOnUse" x1="68.7057" y1="124.3947" x2="185.6517" y2="113.6747">
		<stop  offset="0" style="stop-color:#CCA419"/>
		<stop  offset="0.5222" style="stop-color:#FFDD00"/>
		<stop  offset="1" style="stop-color:#CCA419"/>
	</linearGradient>
	<path class="st53" d="M177.9,166.2l3.4-102.3c3.7-22.9-79.3-6.7-113,16.8l23.1,105.1C108.5,163.8,134.6,155.7,177.9,166.2z"/>
	
		<linearGradient id="SVGID_00000132083663129303085420000003494225466292252345_" gradientUnits="userSpaceOnUse" x1="177.7897" y1="128.1314" x2="235.8995" y2="128.1314">
		<stop  offset="0" style="stop-color:#CCA419"/>
		<stop  offset="1" style="stop-color:#FFDD00"/>
	</linearGradient>
	<path style="fill:url(#SVGID_00000132083663129303085420000003494225466292252345_);" d="M187.5,81.2l-3,88.7
		c-14.9,13.6-7.6,40.7,47.7-3.4c-2.2-21.7-6.3-48,3.7-100.9C221.8,73.2,210.1,77.5,187.5,81.2z"/>
</g>
<g id="Leaf_Multi">
	
		<linearGradient id="SVGID_00000127039443627499035200000009813516978431603356_" gradientUnits="userSpaceOnUse" x1="79.4374" y1="122.3438" x2="179.5106" y2="115.0777">
		<stop  offset="0" style="stop-color:#007932"/>
		<stop  offset="0.5178" style="stop-color:#238937"/>
		<stop  offset="1" style="stop-color:#007932"/>
	</linearGradient>
	<path style="fill:url(#SVGID_00000127039443627499035200000009813516978431603356_);" d="M101.2,164.8c0,0-11.8-54.2,45-77.4
		c0,0-45.1,10.7-50.2,44.3c0,0-12.5-17.7,7.5-39.8c21.9-24.1,70.6-18.9,70.6-18.9c-24.5,29.4-14,69.9-65.6,65.5
		C108.5,138.6,102.5,148.1,101.2,164.8z"/>
</g>
<g id="Overlay">
</g>
</svg>
