<?xml version="1.0" encoding="utf-8"?>
<!-- Generator: Adobe Illustrator 26.2.1, SVG Export Plug-In . SVG Version: 6.00 Build 0)  -->
<svg version="1.1" xmlns="http://www.w3.org/2000/svg" xmlns:xlink="http://www.w3.org/1999/xlink" x="0px" y="0px"
	 viewBox="0 0 288 288" style="enable-background:new 0 0 288 288;" xml:space="preserve">
<style type="text/css">
	.st0{fill:#308AD4;}
	.st1{fill:#FFFFFF;}
</style>
<g id="Guides">
</g>
<g id="Logo">
	<circle class="st0" cx="144" cy="144" r="126"/>
	<g>
		<path class="st1" d="M168.3,54.6v13c0,0.8,0.5,1.4,1.2,1.7c31,10.6,53.3,40.1,53.3,74.6c0,34.6-22.3,64-53.3,74.6
			c-0.7,0.3-1.2,0.9-1.2,1.7v13c0,1.2,1.1,2.1,2.3,1.7c39.4-11.5,68.3-48,68.3-91.1c0-43.1-28.9-79.6-68.3-91.1
			C169.5,52.6,168.3,53.5,168.3,54.6z"/>
		<path class="st1" d="M118.7,220c0-0.8-0.5-1.4-1.2-1.7C87,207.4,65.1,178.2,65.1,144c0-34.2,21.9-63.4,52.4-74.3
			c0.7-0.3,1.2-0.9,1.2-1.7V54.9c0-1.2-1.2-2.1-2.3-1.7C77.5,65,49.1,101.3,49.1,144c0,42.7,28.4,79,67.3,90.8
			c1.1,0.3,2.3-0.5,2.3-1.7V220z"/>
	</g>
	<path class="st1" d="M178.5,163.1c0-20.1-13.7-23.7-33-27c-19.7-3.3-18.9-8.6-18.9-13.4c0-8,6.5-11.8,17.4-11.8
		c8.8,0,14.3,5.5,15.1,11.5c0.1,0.9,0.9,1.6,1.8,1.6h13.3c1,0,1.9-0.9,1.8-1.9c-0.8-10-8.1-20.9-24.3-23.6V83.6c0-1-0.8-1.8-1.8-1.8
		h-11.8c-1,0-1.8,0.8-1.8,1.8v14.7c-7.2,0.9-13.8,3.2-18.3,7.3c-5.7,5.2-8.2,11.6-8.2,19.5c0,5.2,0.6,12.1,7.9,17.9
		c4.9,3.9,13,6.6,24.8,8.9c19.8,3.8,19,7.1,19,12.1c0,6.7-2.1,14.5-17.7,14.5c-7.2,0-18.4-1.9-19.3-14.4c-0.1-0.9-0.8-1.7-1.8-1.7
		h-12.7c-1,0-1.9,0.9-1.8,1.9c0.8,16,11.1,25.6,28,27.8v14.1c0,1,0.8,1.8,1.8,1.8h11.8c1,0,1.8-0.8,1.8-1.8v-14.2
		C168.5,189.8,178.5,179.7,178.5,163.1z"/>
</g>
</svg>
